{
.appVersion = "1300";
classes = (
{
automatic = 1;

glyphs = (
{
color = 4;
glyphname = A;
layers = (
{
anchors = (
{
name = bottom;
position = "{343, 0}";
},
{
name = ogonek;
position = "{681, 0}";
},
{
name = top;
position = "{334, 630}";
}
);
layerId = "37751B57-50B3-4ADE-85C1-D4B223AC548E";
paths = (
{
closed = 1;
nodes = (
"193 0 LINE",
"193 45 LINE",
"122 45 LINE",
"290 518 LINE",
"241 518 LINE",
"424 45 LINE",
"372 45 LINE",
"372 0 LINE",
"681 0 LINE",
"681 45 LINE",
"652 45 LINE SMOOTH",
"641 45 OFFCURVE",
"636 51 OFFCURVE",
"633 59 CURVE SMOOTH",
"412 630 LINE",
"256 630 LINE",
"53 59 LINE SMOOTH",
"50 51 OFFCURVE",
"45 45 OFFCURVE",
"34 45 CURVE SMOOTH",
"4 45 LINE",
"4 0 LINE"
);
},
{
closed = 1;
nodes = (
"441 177 LINE",
"420 232 LINE",
"174 232 LINE",
"151 177 LINE"
);
}
);
width = 685;
},
{
anchors = (
{
name = bottom;
position = "{265, 0}";
},
{
name = ogonek;
position = "{514, 0}";
},
{
name = top;
position = "{254, 630}";
}
);
layerId = "AD4267C8-B72F-4114-A1A9-4AD5F5524DF4";
paths = (
{
closed = 1;
nodes = (
"123 0 LINE",
"123 11 LINE",
"60 11 LINE",
"248 589 LINE",
"243 589 LINE",
"441 11 LINE",
"371 11 LINE",
"371 0 LINE",
"514 0 LINE",
"514 11 LINE",
"487 11 LINE SMOOTH",
"477 11 OFFCURVE",
"471 17 OFFCURVE",
"468 25 CURVE SMOOTH",
"261 630 LINE",
"245 630 LINE",
"48 25 LINE SMOOTH",
"45 17 OFFCURVE",
"40 11 OFFCURVE",
"29 11 CURVE SMOOTH",
"3 11 LINE",
"3 0 LINE"
);
},
{
closed = 1;
nodes = (
"380 223 LINE",
"377 239 LINE",
"128 239 LINE",
"123 223 LINE"
);
}
);
width = 517;
},
{
anchors = (
{
name = bottom;
position = "{278, 0}";
},
{
name = ogonek;
position = "{541, 0}";
},
{
name = top;
position = "{267, 630}";
}
);
layerId = "2498D94C-62B8-4145-8082-B94B7C94C74A";
paths = (
{
closed = 1;
nodes = (
"134 0 LINE",
"134 16 LINE",
"70 16 LINE",
"255 578 LINE",
"243 578 LINE",
"438 16 LINE",
"371 16 LINE",
"371 0 LINE",
"541 0 LINE",
"541 16 LINE",
"514 16 LINE SMOOTH",
"503 16 OFFCURVE",
"498 22 OFFCURVE",
"495 30 CURVE SMOOTH",
"285 630 LINE",
"247 630 LINE",
"49 30 LINE SMOOTH",
"46 22 OFFCURVE",
"41 16 OFFCURVE",
"30 16 CURVE SMOOTH",
"3 16 LINE",
"3 0 LINE"
);
},
{
closed = 1;
nodes = (
"390 216 LINE",
"384 238 LINE",
"135 238 LINE",
"128 216 LINE"
);
}
);
width = 544.06667;
},
{
anchors = (
{
name = bottom;
position = "{343, 0}";
},
{
name = ogonek;
position = "{681, 0}";
},
{
name = top;
position = "{334, 630}";
}
);
layerId = "E8FFAA2E-5F75-47A2-A44E-FAA52327B69E";
paths = (
{
closed = 1;
nodes = (
"140 0 LINE",
"140 11 LINE",
"69 11 LINE",
"244 533 LINE",
"235 533 LINE",
"425 11 LINE",
"373 11 LINE",
"373 0 LINE",
"681 0 LINE",
"681 11 LINE",
"652 11 LINE SMOOTH",
"641 11 OFFCURVE",
"636 17 OFFCURVE",
"633 25 CURVE SMOOTH",
"412 630 LINE",
"256 630 LINE",
"53 25 LINE SMOOTH",
"50 17 OFFCURVE",
"45 11 OFFCURVE",
"34 11 CURVE SMOOTH",
"4 11 LINE",
"4 0 LINE"
);
},
{
closed = 1;
nodes = (
"441 194 LINE",
"420 215 LINE",
"130 215 LINE",
"121 194 LINE"
);
}
);
width = 685;
},
{
anchors = (
{
name = bottom;
position = "{293, 0}";
},
{
name = ogonek;
position = "{574, 0}";
},
{
name = top;
position = "{283, 630}";
}
);
hints = (
{
horizontal = 1;
origin = "{0, 21}";
target = "{0, 20}";
type = Stem;
},
{
horizontal = 1;
origin = "{1, 3}";
target = "{1, 2}";
type = Stem;
},
{
horizontal = 1;
origin = "{0, 15}";
target = down;
type = TopGhost;
}
);
layerId = "E3B85251-E3AC-4613-BF5C-C1AA05FDF004";
paths = (
{
closed = 1;
nodes = (
"148 0 LINE",
"148 23 LINE",
"82 23 LINE",
"263 564 LINE",
"243 564 LINE",
"435 23 LINE",
"371 23 LINE",
"371 0 LINE",
"574 0 LINE",
"574 23 LINE",
"546 23 LINE SMOOTH",
"535 23 OFFCURVE",
"530 29 OFFCURVE",
"527 37 CURVE SMOOTH",
"315 630 LINE",
"249 630 LINE",
"50 37 LINE SMOOTH",
"47 29 OFFCURVE",
"42 23 OFFCURVE",
"31 23 CURVE SMOOTH",
"3 23 LINE",
"3 0 LINE"
);
},
{
closed = 1;
nodes = (
"402 207 LINE",
"392 237 LINE",
"144 237 LINE",
"133 207 LINE"
);
}
);
width = 576.95111;
},
{
anchors = (
{
name = bottom;
position = "{283, 0}";
},
{
name = ogonek;
position = "{553, 0}";
},
{
name = top;
position = "{273, 630}";
}
);
layerId = "EFBCEE35-D457-4A39-AEF6-BDFE7C5D5DD9";
paths = (
{
closed = 1;
nodes = (
"127 0 LINE",
"127 11 LINE",
"62 11 LINE",
"247 576 LINE",
"241 576 LINE",
"437 11 LINE",
"371 11 LINE",
"371 0 LINE",
"553 0 LINE",
"553 11 LINE",
"526 11 LINE SMOOTH",
"515 11 OFFCURVE",
"509 17 OFFCURVE",
"506 25 CURVE SMOOTH",
"296 630 LINE",
"248 630 LINE",
"49 25 LINE SMOOTH",
"46 17 OFFCURVE",
"41 11 OFFCURVE",
"30 11 CURVE SMOOTH",
"3 11 LINE",
"3 0 LINE"
);
},
{
closed = 1;
nodes = (
"394 216 LINE",
"387 233 LINE",
"128 233 LINE",
"123 216 LINE"
);
}
);
width = 556.2;
}
);
leftKerningGroup = A;
leftMetricsKey = "=H*.1";
rightKerningGroup = A;
rightMetricsKey = "=H*.1";
unicode = 0041;
},
{
color = 4;
glyphname = B;
layers = (
{
guideLines = (
{
angle = -87.4552;
position = "{430, 0}";
},
{
angle = 208.8108;
position = "{352, 603}";
},
{
angle = 150.4463;
position = "{382, 28}";
}
);
layerId = "37751B57-50B3-4ADE-85C1-D4B223AC548E";
paths = (
{
closed = 1;
nodes = (
"301 600 LINE",
"275 575 LINE",
"318 575 LINE SMOOTH",
"371 575 OFFCURVE",
"412 538 OFFCURVE",
"412 467 CURVE SMOOTH",
"412 395 OFFCURVE",
"371 359 OFFCURVE",
"318 359 CURVE SMOOTH",
"275 359 LINE",
"275 314 LINE",
"402 314 LINE SMOOTH",
"535 314 OFFCURVE",
"622 375 OFFCURVE",
"622 475 CURVE SMOOTH",
"622 570 OFFCURVE",
"535 630 OFFCURVE",
"402 630 CURVE SMOOTH",
"40 630 LINE",
"40 585 LINE",
"77 585 LINE SMOOTH",
"85 585 OFFCURVE",
"91 580 OFFCURVE",
"91 573 CURVE SMOOTH",
"91 59 LINE SMOOTH",
"91 51 OFFCURVE",
"85 45 OFFCURVE",
"77 45 CURVE SMOOTH",
"40 45 LINE",
"40 0 LINE",
"430 0 LINE SMOOTH",
"576 0 OFFCURVE",
"672 67 OFFCURVE",
"672 172 CURVE SMOOTH",
"672 282 OFFCURVE",
"576 350 OFFCURVE",
"430 350 CURVE SMOOTH",
"275 350 LINE",
"275 304 LINE",
"349 304 LINE SMOOTH",
"413 304 OFFCURVE",
"462 262 OFFCURVE",
"462 180 CURVE SMOOTH",
"462 98 OFFCURVE",
"413 55 OFFCURVE",
"349 55 CURVE SMOOTH",
"275 55 LINE",
"301 30 LINE"
);
}
);
width = 686;
},
{
layerId = "AD4267C8-B72F-4114-A1A9-4AD5F5524DF4";
paths = (
{
closed = 1;
nodes = (
"127 625 LINE",
"114 614 LINE",
"185 614 LINE SMOOTH",
"302 614 OFFCURVE",
"356 568 OFFCURVE",
"356 477 CURVE SMOOTH",
"356 386 OFFCURVE",
"302 340 OFFCURVE",
"185 340 CURVE SMOOTH",
"119 340 LINE",
"119 326 LINE",
"217 326 LINE SMOOTH",
"322 326 OFFCURVE",
"390 382 OFFCURVE",
"390 475 CURVE SMOOTH",
"390 570 OFFCURVE",
"322 630 OFFCURVE",
"217 630 CURVE SMOOTH",
"33 630 LINE",
"33 619 LINE",
"83 619 LINE SMOOTH",
"91 619 OFFCURVE",
"97 614 OFFCURVE",
"97 607 CURVE SMOOTH",
"97 25 LINE SMOOTH",
"97 17 OFFCURVE",
"91 11 OFFCURVE",
"83 11 CURVE SMOOTH",
"33 11 LINE",
"33 0 LINE",
"245 0 LINE SMOOTH",
"363 0 OFFCURVE",
"440 67 OFFCURVE",
"440 172 CURVE SMOOTH",
"440 275 OFFCURVE",
"363 338 OFFCURVE",
"245 338 CURVE SMOOTH",
"119 338 LINE",
"119 324 LINE",
"214 324 LINE SMOOTH",
"346 324 OFFCURVE",
"406 272 OFFCURVE",
"406 170 CURVE SMOOTH",
"406 68 OFFCURVE",
"346 16 OFFCURVE",
"214 16 CURVE SMOOTH",
"114 16 LINE",
"127 5 LINE"
);
}
);
width = 451.54714;
},
{
layerId = "2498D94C-62B8-4145-8082-B94B7C94C74A";
paths = (
{
closed = 1;
nodes = (
"155 621 LINE",
"140 608 LINE",
"206 608 LINE SMOOTH",
"313 608 OFFCURVE",
"365 563 OFFCURVE",
"365 475 CURVE SMOOTH",
"365 387 OFFCURVE",
"313 343 OFFCURVE",
"206 343 CURVE SMOOTH",
"144 343 LINE",
"144 324 LINE",
"247 324 LINE SMOOTH",
"356 324 OFFCURVE",
"427 381 OFFCURVE",
"427 475 CURVE SMOOTH",
"427 570 OFFCURVE",
"356 630 OFFCURVE",
"247 630 CURVE SMOOTH",
"34 630 LINE",
"34 614 LINE",
"82 614 LINE SMOOTH",
"90 614 OFFCURVE",
"96 609 OFFCURVE",
"96 602 CURVE SMOOTH",
"96 30 LINE SMOOTH",
"96 22 OFFCURVE",
"90 16 OFFCURVE",
"82 16 CURVE SMOOTH",
"34 16 LINE",
"34 0 LINE",
"275 0 LINE SMOOTH",
"397 0 OFFCURVE",
"477 67 OFFCURVE",
"477 172 CURVE SMOOTH",
"477 276 OFFCURVE",
"397 340 OFFCURVE",
"275 340 CURVE SMOOTH",
"144 340 LINE",
"144 321 LINE",
"236 321 LINE SMOOTH",
"357 321 OFFCURVE",
"415 270 OFFCURVE",
"415 172 CURVE SMOOTH",
"415 73 OFFCURVE",
"357 22 OFFCURVE",
"236 22 CURVE SMOOTH",
"140 22 LINE",
"155 9 LINE"
);
}
);
width = 489.3201;
},
{
guideLines = (
{
angle = -87.4552;
position = "{430, 0}";
},
{
angle = 208.8108;
position = "{352, 603}";
},
{
angle = 150.4463;
position = "{382, 28}";
}
);
layerId = "E8FFAA2E-5F75-47A2-A44E-FAA52327B69E";
paths = (
{
closed = 1;
nodes = (
"301 619 LINE",
"275 609 LINE",
"318 609 LINE SMOOTH",
"371 609 OFFCURVE",
"412 565 OFFCURVE",
"412 480 CURVE SMOOTH",
"412 392 OFFCURVE",
"371 347 OFFCURVE",
"318 347 CURVE SMOOTH",
"275 347 LINE",
"275 327 LINE",
"402 327 LINE SMOOTH",
"535 327 OFFCURVE",
"622 383 OFFCURVE",
"622 475 CURVE SMOOTH",
"622 570 OFFCURVE",
"535 630 OFFCURVE",
"402 630 CURVE SMOOTH",
"40 630 LINE",
"40 619 LINE",
"77 619 LINE SMOOTH",
"85 619 OFFCURVE",
"91 614 OFFCURVE",
"91 607 CURVE SMOOTH",
"91 25 LINE SMOOTH",
"91 17 OFFCURVE",
"85 11 OFFCURVE",
"77 11 CURVE SMOOTH",
"40 11 LINE",
"40 0 LINE",
"430 0 LINE SMOOTH",
"576 0 OFFCURVE",
"672 67 OFFCURVE",
"672 172 CURVE SMOOTH",
"672 275 OFFCURVE",
"576 338 OFFCURVE",
"430 338 CURVE SMOOTH",
"275 338 LINE",
"275 317 LINE",
"349 317 LINE SMOOTH",
"413 317 OFFCURVE",
"462 267 OFFCURVE",
"462 169 CURVE SMOOTH",
"462 72 OFFCURVE",
"413 21 OFFCURVE",
"349 21 CURVE SMOOTH",
"275 21 LINE",
"301 11 LINE"
);
}
);
width = 686;
},
{
hints = (
{
horizontal = 1;
origin = "{0, 29}";
target = "{0, 46}";
type = Stem;
},
{
horizontal = 1;
origin = "{0, 38}";
target = "{0, 9}";
type = Stem;
},
{
horizontal = 1;
origin = "{0, 18}";
target = "{0, 19}";
type = Stem;
},
{
horizontal = 1;
origin = "{0, 18}";
target = "{0, 1}";
type = Stem;
},
{
origin = "{0, 24}";
target = "{0, 47}";
type = Stem;
},
{
origin = "{0, 42}";
target = "{0, 33}";
type = Stem;
},
{
origin = "{0, 5}";
target = "{0, 14}";
type = Stem;
}
);
layerId = "E3B85251-E3AC-4613-BF5C-C1AA05FDF004";
paths = (
{
closed = 1;
nodes = (
"189 616 LINE",
"172 600 LINE",
"232 600 LINE SMOOTH",
"327 600 OFFCURVE",
"376 557 OFFCURVE",
"376 473 CURVE SMOOTH",
"376 389 OFFCURVE",
"327 347 OFFCURVE",
"232 347 CURVE SMOOTH",
"175 347 LINE",
"175 322 LINE",
"283 322 LINE SMOOTH",
"398 322 OFFCURVE",
"472 380 OFFCURVE",
"472 475 CURVE SMOOTH",
"472 570 OFFCURVE",
"398 630 OFFCURVE",
"283 630 CURVE SMOOTH",
"35 630 LINE",
"35 607 LINE",
"81 607 LINE SMOOTH",
"89 607 OFFCURVE",
"95 602 OFFCURVE",
"95 595 CURVE SMOOTH",
"95 37 LINE SMOOTH",
"95 29 OFFCURVE",
"89 23 OFFCURVE",
"81 23 CURVE SMOOTH",
"35 23 LINE",
"35 0 LINE",
"311 0 LINE SMOOTH",
"439 0 OFFCURVE",
"523 67 OFFCURVE",
"523 172 CURVE SMOOTH",
"523 277 OFFCURVE",
"439 342 OFFCURVE",
"311 342 CURVE SMOOTH",
"175 342 LINE",
"175 317 LINE",
"262 317 LINE SMOOTH",
"370 317 OFFCURVE",
"426 268 OFFCURVE",
"426 174 CURVE SMOOTH",
"426 79 OFFCURVE",
"370 30 OFFCURVE",
"262 30 CURVE SMOOTH",
"172 30 LINE",
"189 14 LINE"
);
}
);
width = 535.21208;
},
{
layerId = "EFBCEE35-D457-4A39-AEF6-BDFE7C5D5DD9";
paths = (
{
closed = 1;
nodes = (
"168 624 LINE",
"152 613 LINE",
"216 613 LINE SMOOTH",
"318 613 OFFCURVE",
"369 567 OFFCURVE",
"369 478 CURVE SMOOTH",
"369 387 OFFCURVE",
"318 342 OFFCURVE",
"216 342 CURVE SMOOTH",
"155 342 LINE",
"155 326 LINE",
"260 326 LINE SMOOTH",
"372 326 OFFCURVE",
"444 382 OFFCURVE",
"444 475 CURVE SMOOTH",
"444 570 OFFCURVE",
"372 630 OFFCURVE",
"260 630 CURVE SMOOTH",
"35 630 LINE",
"35 619 LINE",
"82 619 LINE SMOOTH",
"90 619 OFFCURVE",
"96 614 OFFCURVE",
"96 607 CURVE SMOOTH",
"96 25 LINE SMOOTH",
"96 17 OFFCURVE",
"90 11 OFFCURVE",
"82 11 CURVE SMOOTH",
"35 11 LINE",
"35 0 LINE",
"288 0 LINE SMOOTH",
"413 0 OFFCURVE",
"494 67 OFFCURVE",
"494 172 CURVE SMOOTH",
"494 275 OFFCURVE",
"413 338 OFFCURVE",
"288 338 CURVE SMOOTH",
"155 338 LINE",
"155 322 LINE",
"246 322 LINE SMOOTH",
"362 322 OFFCURVE",
"419 271 OFFCURVE",
"419 170 CURVE SMOOTH",
"419 69 OFFCURVE",
"362 17 OFFCURVE",
"246 17 CURVE SMOOTH",
"152 17 LINE",
"168 6 LINE"
);
}
);
width = 506.25281;
}
);
leftKerningGroup = H;
leftMetricsKey = H;
rightKerningGroup = B;
rightMetricsKey = "=H*.35";
unicode = 0042;
},
{
color = 4;
glyphname = C;
layers = (
{
anchors = (
{
name = bottom;
position = "{335, 0}";
},
{
name = top;
position = "{335, 630}";
}
);
guideLines = (
{
angle = 59.7436;
position = "{349, -12}";
},
{
angle = -59.7436;
position = "{391, 570}";
}
);
layerId = "37751B57-50B3-4ADE-85C1-D4B223AC548E";
paths = (
{
closed = 1;
nodes = (
"459 -12 OFFCURVE",
"508 38 OFFCURVE",
"532 38 CURVE",
"545 38 OFFCURVE",
"550 33 OFFCURVE",
"551 17 CURVE SMOOTH",
"552 0 LINE",
"612 0 LINE",
"612 210 LINE",
"534 210 LINE",
"524 101 OFFCURVE",
"461 60 OFFCURVE",
"391 60 CURVE SMOOTH",
"306 60 OFFCURVE",
"243 155 OFFCURVE",
"243 314 CURVE SMOOTH",
"243 473 OFFCURVE",
"303 570 OFFCURVE",
"391 570 CURVE SMOOTH",
"461 570 OFFCURVE",
"524 529 OFFCURVE",
"534 420 CURVE",
"612 420 LINE",
"612 636 LINE",
"552 636 LINE",
"551 619 LINE SMOOTH",
"550 603 OFFCURVE",
"545 598 OFFCURVE",
"532 598 CURVE SMOOTH",
"502 598 OFFCURVE",
"455 642 OFFCURVE",
"349 642 CURVE SMOOTH",
"162 642 OFFCURVE",
"28 522 OFFCURVE",
"28 314 CURVE SMOOTH",
"28 107 OFFCURVE",
"165 -12 OFFCURVE",
"349 -12 CURVE SMOOTH"
);
}
);
width = 664;
},
{
anchors = (
{
name = bottom;
position = "{288, 0}";
},
{
name = top;
position = "{307, 630}";
}
);
layerId = "AD4267C8-B72F-4114-A1A9-4AD5F5524DF4";
paths = (
{
closed = 1;
nodes = (
"396 -12 OFFCURVE",
"443 35 OFFCURVE",
"467 35 CURVE SMOOTH",
"476 35 OFFCURVE",
"482 29 OFFCURVE",
"483 14 CURVE SMOOTH",
"484 0 LINE",
"491 0 LINE",
"491 156 LINE",
"481 156 LINE",
"477 47 OFFCURVE",
"396 0 OFFCURVE",
"303 0 CURVE SMOOTH",
"170 0 OFFCURVE",
"72 113 OFFCURVE",
"72 314 CURVE SMOOTH",
"72 513 OFFCURVE",
"167 630 OFFCURVE",
"303 630 CURVE SMOOTH",
"391 630 OFFCURVE",
"468 589 OFFCURVE",
"481 474 CURVE",
"491 474 LINE",
"491 636 LINE",
"484 636 LINE",
"483 619 LINE SMOOTH",
"482 604 OFFCURVE",
"475 598 OFFCURVE",
"467 598 CURVE SMOOTH",
"441 598 OFFCURVE",
"394 642 OFFCURVE",
"297 642 CURVE SMOOTH",
"146 642 OFFCURVE",
"38 522 OFFCURVE",
"38 314 CURVE SMOOTH",
"38 107 OFFCURVE",
"149 -12 OFFCURVE",
"297 -12 CURVE SMOOTH"
);
}
);
width = 534;
},
{
anchors = (
{
name = bottom;
position = "{296, 0}";
},
{
name = top;
position = "{312, 630}";
}
);
layerId = "2498D94C-62B8-4145-8082-B94B7C94C74A";
paths = (
{
closed = 1;
nodes = (
"406 -12 OFFCURVE",
"453 35 OFFCURVE",
"478 35 CURVE SMOOTH",
"487 35 OFFCURVE",
"493 29 OFFCURVE",
"494 14 CURVE SMOOTH",
"495 0 LINE",
"510 0 LINE",
"510 165 LINE",
"490 165 LINE",
"485 56 OFFCURVE",
"406 10 OFFCURVE",
"317 10 CURVE SMOOTH",
"192 10 OFFCURVE",
"100 120 OFFCURVE",
"100 314 CURVE SMOOTH",
"100 507 OFFCURVE",
"189 620 OFFCURVE",
"317 620 CURVE SMOOTH",
"402 620 OFFCURVE",
"477 579 OFFCURVE",
"490 465 CURVE",
"510 465 LINE",
"510 636 LINE",
"495 636 LINE",
"494 619 LINE SMOOTH",
"493 604 OFFCURVE",
"487 598 OFFCURVE",
"478 598 CURVE SMOOTH",
"451 598 OFFCURVE",
"404 642 OFFCURVE",
"305 642 CURVE SMOOTH",
"149 642 OFFCURVE",
"36 522 OFFCURVE",
"36 314 CURVE SMOOTH",
"36 107 OFFCURVE",
"152 -12 OFFCURVE",
"305 -12 CURVE SMOOTH"
);
}
);
width = 554;
},
{
anchors = (
{
name = bottom;
position = "{335, 0}";
},
{
name = top;
position = "{335, 630}";
}
);
guideLines = (
{
angle = 59.7436;
position = "{349, -12}";
},
{
angle = -59.7436;
position = "{391, 570}";
}
);
layerId = "E8FFAA2E-5F75-47A2-A44E-FAA52327B69E";
paths = (
{
closed = 1;
nodes = (
"479 -12 OFFCURVE",
"533 38 OFFCURVE",
"558 38 CURVE",
"570 38 OFFCURVE",
"576 32 OFFCURVE",
"577 17 CURVE SMOOTH",
"578 0 LINE",
"612 0 LINE",
"612 210 LINE",
"571 210 LINE",
"558 65 OFFCURVE",
"478 9 OFFCURVE",
"391 9 CURVE SMOOTH",
"306 9 OFFCURVE",
"243 122 OFFCURVE",
"243 314 CURVE SMOOTH",
"243 506 OFFCURVE",
"303 621 OFFCURVE",
"391 621 CURVE SMOOTH",
"473 621 OFFCURVE",
"548 565 OFFCURVE",
"560 420 CURVE",
"612 420 LINE",
"612 636 LINE",
"578 636 LINE",
"577 619 LINE SMOOTH",
"576 604 OFFCURVE",
"570 598 OFFCURVE",
"558 598 CURVE SMOOTH",
"525 598 OFFCURVE",
"475 642 OFFCURVE",
"360 642 CURVE SMOOTH",
"167 642 OFFCURVE",
"28 522 OFFCURVE",
"28 314 CURVE SMOOTH",
"28 107 OFFCURVE",
"170 -12 OFFCURVE",
"360 -12 CURVE SMOOTH"
);
}
);
width = 664;
},
{
anchors = (
{
name = bottom;
position = "{305, 0}";
},
{
name = top;
position = "{317, 630}";
}
);
hints = (
{
horizontal = 1;
origin = "{0, 37}";
target = "{0, 12}";
type = Stem;
},
{
horizontal = 1;
origin = "{0, 31}";
target = "{0, 18}";
type = Stem;
},
{
horizontal = 1;
origin = "{0, 6}";
target = up;
type = BottomGhost;
},
{
origin = "{0, 34}";
target = "{0, 15}";
type = Stem;
},
{
place = "{507.5, 26.5}";
type = Stem;
}
);
layerId = "E3B85251-E3AC-4613-BF5C-C1AA05FDF004";
paths = (
{
closed = 1;
nodes = (
"418 -12 OFFCURVE",
"466 36 OFFCURVE",
"491 36 CURVE SMOOTH",
"501 36 OFFCURVE",
"506 30 OFFCURVE",
"507 15 CURVE SMOOTH",
"508 0 LINE",
"534 0 LINE",
"534 175 LINE",
"500 175 LINE",
"494 67 OFFCURVE",
"419 22 OFFCURVE",
"334 22 CURVE SMOOTH",
"219 22 OFFCURVE",
"133 128 OFFCURVE",
"133 314 CURVE SMOOTH",
"133 499 OFFCURVE",
"216 608 OFFCURVE",
"334 608 CURVE SMOOTH",
"416 608 OFFCURVE",
"488 567 OFFCURVE",
"500 455 CURVE",
"534 455 LINE",
"534 636 LINE",
"508 636 LINE",
"507 619 LINE SMOOTH",
"506 604 OFFCURVE",
"501 598 OFFCURVE",
"491 598 CURVE SMOOTH",
"463 598 OFFCURVE",
"416 642 OFFCURVE",
"315 642 CURVE SMOOTH",
"152 642 OFFCURVE",
"34 522 OFFCURVE",
"34 314 CURVE SMOOTH",
"34 107 OFFCURVE",
"155 -12 OFFCURVE",
"315 -12 CURVE SMOOTH"
);
}
);
width = 579.66667;
},
{
anchors = (
{
name = bottom;
position = "{299, 0}";
},
{
name = top;
position = "{314, 630}";
}
);
layerId = "EFBCEE35-D457-4A39-AEF6-BDFE7C5D5DD9";
paths = (
{
closed = 1;
nodes = (
"415 -12 OFFCURVE",
"464 36 OFFCURVE",
"488 36 CURVE SMOOTH",
"498 36 OFFCURVE",
"504 30 OFFCURVE",
"505 15 CURVE SMOOTH",
"506 0 LINE",
"519 0 LINE",
"519 169 LINE",
"502 169 LINE",
"496 51 OFFCURVE",
"415 2 OFFCURVE",
"324 2 CURVE SMOOTH",
"202 2 OFFCURVE",
"112 115 OFFCURVE",
"112 314 CURVE SMOOTH",
"112 511 OFFCURVE",
"199 628 OFFCURVE",
"324 628 CURVE SMOOTH",
"410 628 OFFCURVE",
"487 583 OFFCURVE",
"499 461 CURVE",
"519 461 LINE",
"519 636 LINE",
"506 636 LINE",
"505 619 LINE SMOOTH",
"504 604 OFFCURVE",
"497 598 OFFCURVE",
"488 598 CURVE SMOOTH",
"461 598 OFFCURVE",
"413 642 OFFCURVE",
"312 642 CURVE SMOOTH",
"151 642 OFFCURVE",
"36 522 OFFCURVE",
"36 314 CURVE SMOOTH",
"36 107 OFFCURVE",
"154 -12 OFFCURVE",
"312 -12 CURVE SMOOTH"
);
}
);
width = 564.33333;
}
);
leftKerningGroup = O;
leftMetricsKey = O;
rightKerningGroup = C;
rightMetricsKey = "=H*1.3";
unicode = 0043;
},
{
color = 4;
glyphname = D;
layers = (
{
anchors = (
{
name = bottom;
position = "{391, 0}";
},
{
name = center;
position = "{241, 315}";
},
{
name = top;
position = "{391, 630}";
}
);
guideLines = (
{
angle = 61.3895;
position = "{391, 603}";
}
);
layerId = "37751B57-50B3-4ADE-85C1-D4B223AC548E";
paths = (
{
closed = 1;
nodes = (
"406 0 LINE SMOOTH",
"613 0 OFFCURVE",
"747 123 OFFCURVE",
"747 315 CURVE SMOOTH",
"747 507 OFFCURVE",
"613 630 OFFCURVE",
"406 630 CURVE SMOOTH",
"40 630 LINE",
"40 585 LINE",
"87 585 LINE SMOOTH",
"94 585 OFFCURVE",
"101 580 OFFCURVE",
"101 573 CURVE SMOOTH",
"101 57 LINE SMOOTH",
"101 50 OFFCURVE",
"94 45 OFFCURVE",
"87 45 CURVE SMOOTH",
"40 45 LINE",
"40 0 LINE"
);
},
{
closed = 1;
nodes = (
"311 575 LINE",
"376 575 LINE SMOOTH",
"483 575 OFFCURVE",
"532 493 OFFCURVE",
"532 315 CURVE SMOOTH",
"532 137 OFFCURVE",
"483 55 OFFCURVE",
"376 55 CURVE SMOOTH",
"311 55 LINE"
);
}
);
width = 775;
},
{
anchors = (
{
name = bottom;
position = "{267, 0}";
},
{
name = center;
position = "{109, 322}";
},
{
name = top;
position = "{240, 630}";
}
);
layerId = "AD4267C8-B72F-4114-A1A9-4AD5F5524DF4";
paths = (
{
closed = 1;
nodes = (
"240 0 LINE SMOOTH",
"404 0 OFFCURVE",
"511 125 OFFCURVE",
"511 315 CURVE SMOOTH",
"511 505 OFFCURVE",
"404 630 OFFCURVE",
"240 630 CURVE SMOOTH",
"33 630 LINE",
"33 619 LINE",
"80 619 LINE SMOOTH",
"89 619 OFFCURVE",
"94 614 OFFCURVE",
"94 607 CURVE SMOOTH",
"94 23 LINE SMOOTH",
"94 17 OFFCURVE",
"89 11 OFFCURVE",
"80 11 CURVE SMOOTH",
"33 11 LINE",
"33 0 LINE"
);
},
{
closed = 1;
nodes = (
"124 611 LINE",
"230 611 LINE SMOOTH",
"386 611 OFFCURVE",
"477 503 OFFCURVE",
"477 315 CURVE SMOOTH",
"477 129 OFFCURVE",
"386 19 OFFCURVE",
"230 19 CURVE SMOOTH",
"124 19 LINE"
);
}
);
width = 549;
},
{
anchors = (
{
name = bottom;
position = "{287, 0}";
},
{
name = center;
position = "{130, 321}";
},
{
name = top;
position = "{264, 630}";
}
);
layerId = "2498D94C-62B8-4145-8082-B94B7C94C74A";
paths = (
{
closed = 1;
nodes = (
"267 0 LINE SMOOTH",
"438 0 OFFCURVE",
"549 125 OFFCURVE",
"549 315 CURVE SMOOTH",
"549 505 OFFCURVE",
"438 630 OFFCURVE",
"267 630 CURVE SMOOTH",
"34 630 LINE",
"34 614 LINE",
"81 614 LINE SMOOTH",
"90 614 OFFCURVE",
"95 609 OFFCURVE",
"95 602 CURVE SMOOTH",
"95 28 LINE SMOOTH",
"95 22 OFFCURVE",
"90 16 OFFCURVE",
"81 16 CURVE SMOOTH",
"34 16 LINE",
"34 0 LINE"
);
},
{
closed = 1;
nodes = (
"154 605 LINE",
"254 605 LINE SMOOTH",
"402 605 OFFCURVE",
"486 501 OFFCURVE",
"486 315 CURVE SMOOTH",
"486 130 OFFCURVE",
"402 25 OFFCURVE",
"254 25 CURVE SMOOTH",
"154 25 LINE"
);
}
);
width = 585.41111;
},
{
anchors = (
{
name = bottom;
position = "{391, 0}";
},
{
name = center;
position = "{241, 315}";
},
{
name = top;
position = "{391, 630}";
}
);
guideLines = (
{
angle = 61.3895;
position = "{391, 603}";
}
);
layerId = "E8FFAA2E-5F75-47A2-A44E-FAA52327B69E";
paths = (
{
closed = 1;
nodes = (
"406 0 LINE SMOOTH",
"613 0 OFFCURVE",
"747 123 OFFCURVE",
"747 315 CURVE SMOOTH",
"747 507 OFFCURVE",
"613 630 OFFCURVE",
"406 630 CURVE SMOOTH",
"40 630 LINE",
"40 619 LINE",
"87 619 LINE SMOOTH",
"94 619 OFFCURVE",
"101 614 OFFCURVE",
"101 607 CURVE SMOOTH",
"101 23 LINE SMOOTH",
"101 16 OFFCURVE",
"94 11 OFFCURVE",
"87 11 CURVE SMOOTH",
"40 11 LINE",
"40 0 LINE"
);
},
{
closed = 1;
nodes = (
"311 609 LINE",
"376 609 LINE SMOOTH",
"483 609 OFFCURVE",
"532 517 OFFCURVE",
"532 315 CURVE SMOOTH",
"532 113 OFFCURVE",
"483 21 OFFCURVE",
"376 21 CURVE SMOOTH",
"311 21 LINE"
);
}
);
width = 775;
},
{
anchors = (
{
name = bottom;
position = "{311, 0}";
},
{
name = center;
position = "{156, 320}";
},
{
name = top;
position = "{294, 630}";
}
);
hints = (
{
horizontal = 1;
origin = "{0, 18}";
target = "{1, 8}";
type = Stem;
},
{
horizontal = 1;
origin = "{0, 7}";
target = "{1, 0}";
type = Stem;
},
{
origin = "{0, 13}";
target = "{1, 8}";
type = Stem;
},
{
origin = "{1, 4}";
target = "{0, 3}";
type = Stem;
}
);
layerId = "E3B85251-E3AC-4613-BF5C-C1AA05FDF004";
paths = (
{
closed = 1;
nodes = (
"299 0 LINE SMOOTH",
"479 0 OFFCURVE",
"595 125 OFFCURVE",
"595 315 CURVE SMOOTH",
"595 505 OFFCURVE",
"479 630 OFFCURVE",
"299 630 CURVE SMOOTH",
"35 630 LINE",
"35 607 LINE",
"82 607 LINE SMOOTH",
"91 607 OFFCURVE",
"96 602 OFFCURVE",
"96 595 CURVE SMOOTH",
"96 35 LINE SMOOTH",
"96 29 OFFCURVE",
"91 23 OFFCURVE",
"82 23 CURVE SMOOTH",
"35 23 LINE",
"35 0 LINE"
);
},
{
closed = 1;
nodes = (
"191 600 LINE",
"282 600 LINE SMOOTH",
"421 600 OFFCURVE",
"497 500 OFFCURVE",
"497 315 CURVE SMOOTH",
"497 132 OFFCURVE",
"421 32 OFFCURVE",
"282 32 CURVE SMOOTH",
"191 32 LINE"
);
}
);
width = 629;
},
{
anchors = (
{
name = bottom;
position = "{296, 0}";
},
{
name = center;
position = "{140, 320}";
},
{
name = top;
position = "{275, 630}";
}
);
layerId = "EFBCEE35-D457-4A39-AEF6-BDFE7C5D5DD9";
paths = (
{
closed = 1;
nodes = (
"279 0 LINE SMOOTH",
"453 0 OFFCURVE",
"566 125 OFFCURVE",
"566 315 CURVE SMOOTH",
"566 505 OFFCURVE",
"453 630 OFFCURVE",
"279 630 CURVE SMOOTH",
"35 630 LINE",
"35 619 LINE",
"82 619 LINE SMOOTH",
"90 619 OFFCURVE",
"96 614 OFFCURVE",
"96 607 CURVE SMOOTH",
"96 23 LINE SMOOTH",
"96 17 OFFCURVE",
"90 11 OFFCURVE",
"82 11 CURVE SMOOTH",
"35 11 LINE",
"35 0 LINE"
);
},
{
closed = 1;
nodes = (
"168 611 LINE",
"264 611 LINE SMOOTH",
"409 611 OFFCURVE",
"490 506 OFFCURVE",
"490 315 CURVE SMOOTH",
"490 125 OFFCURVE",
"409 19 OFFCURVE",
"264 19 CURVE SMOOTH",
"168 19 LINE"
);
}
);
width = 601.73333;
}
);
leftKerningGroup = H;
leftMetricsKey = H;
rightKerningGroup = O;
rightMetricsKey = O;
unicode = 0044;
},
{
color = 4;
glyphname = E;
layers = (
{
anchors = (
{
name = "#entry";
position = "{40, 432}";
},
{
name = bottom;
position = "{314, 0}";
},
{
name = ogonek;
position = "{595, -9}";
},
{
name = top;
position = "{314, 630}";
},
{
name = topleft;
position = "{40, 630}";
}
);
layerId = "37751B57-50B3-4ADE-85C1-D4B223AC548E";
paths = (
{
closed = 1;
nodes = (
"585 59 OFFCURVE",
"580 126 OFFCURVE",
"580 194 CURVE",
"513 194 LINE",
"478 77 LINE SMOOTH",
"473 59 OFFCURVE",
"467 55 OFFCURVE",
"451 55 CURVE SMOOTH",
"301 55 LINE",
"301 287 LINE",
"434 287 LINE SMOOTH",
"442 287 OFFCURVE",
"447 281 OFFCURVE",
"448 273 CURVE SMOOTH",
"453 221 LINE",
"498 221 LINE",
"498 408 LINE",
"453 408 LINE",
"448 356 LINE SMOOTH",
"447 348 OFFCURVE",
"442 342 OFFCURVE",
"434 342 CURVE SMOOTH",
"301 342 LINE",
"301 575 LINE",
"437 575 LINE SMOOTH",
"453 575 OFFCURVE",
"458 570 OFFCURVE",
"464 553 CURVE SMOOTH",
"499 451 LINE",
"566 451 LINE",
"566 514 OFFCURVE",
"571 576 OFFCURVE",
"581 639 CURVE",
"556 634 OFFCURVE",
"504 630 OFFCURVE",
"426 630 CURVE SMOOTH",
"40 630 LINE",
"40 585 LINE",
"68 585 LINE SMOOTH",
"84 585 OFFCURVE",
"91 578 OFFCURVE",
"91 562 CURVE SMOOTH",
"91 68 LINE SMOOTH",
"91 52 OFFCURVE",
"84 45 OFFCURVE",
"68 45 CURVE SMOOTH",
"40 45 LINE",
"40 0 LINE",
"440 0 LINE SMOOTH",
"518 0 OFFCURVE",
"570 -4 OFFCURVE",
"595 -9 CURVE"
);
}
);
width = 641;
},
{
anchors = (
{
name = "#entry";
position = "{33, 432}";
},
{
name = bottom;
position = "{245, 0}";
},
{
name = ogonek;
position = "{428, -9}";
},
{
name = top;
position = "{245, 630}";
},
{
name = topleft;
position = "{38, 630}";
}
);
layerId = "AD4267C8-B72F-4114-A1A9-4AD5F5524DF4";
paths = (
{
closed = 1;
nodes = (
"424 45 OFFCURVE",
"421 101 OFFCURVE",
"421 155 CURVE",
"412 155 LINE",
"402 38 LINE SMOOTH",
"401 20 OFFCURVE",
"390 16 OFFCURVE",
"374 16 CURVE SMOOTH",
"127 16 LINE",
"127 307 LINE",
"323 307 LINE SMOOTH",
"331 307 OFFCURVE",
"336 301 OFFCURVE",
"337 293 CURVE SMOOTH",
"342 233 LINE",
"352 233 LINE",
"352 397 LINE",
"342 397 LINE",
"337 339 LINE SMOOTH",
"336 329 OFFCURVE",
"331 323 OFFCURVE",
"323 323 CURVE SMOOTH",
"127 323 LINE",
"127 614 LINE",
"360 614 LINE SMOOTH",
"376 614 OFFCURVE",
"386 610 OFFCURVE",
"388 592 CURVE SMOOTH",
"398 490 LINE",
"407 490 LINE",
"407 539 OFFCURVE",
"410 590 OFFCURVE",
"414 639 CURVE",
"398 634 OFFCURVE",
"366 630 OFFCURVE",
"316 630 CURVE SMOOTH",
"33 630 LINE",
"33 619 LINE",
"85 619 LINE SMOOTH",
"94 619 OFFCURVE",
"97 615 OFFCURVE",
"97 607 CURVE SMOOTH",
"97 23 LINE SMOOTH",
"97 15 OFFCURVE",
"94 11 OFFCURVE",
"85 11 CURVE SMOOTH",
"33 11 LINE",
"33 0 LINE",
"330 0 LINE SMOOTH",
"380 0 OFFCURVE",
"412 -4 OFFCURVE",
"428 -9 CURVE"
);
}
);
width = 465.96633;
},
{
anchors = (
{
name = "#entry";
position = "{34, 432}";
},
{
name = bottom;
position = "{256, 0}";
},
{
name = ogonek;
position = "{455, -9}";
},
{
name = top;
position = "{256, 630}";
},
{
name = topleft;
position = "{38, 630}";
}
);
layerId = "2498D94C-62B8-4145-8082-B94B7C94C74A";
paths = (
{
closed = 1;
nodes = (
"450 47 OFFCURVE",
"447 105 OFFCURVE",
"447 161 CURVE",
"428 161 LINE",
"414 44 LINE SMOOTH",
"413 26 OFFCURVE",
"402 22 OFFCURVE",
"386 22 CURVE SMOOTH",
"155 22 LINE",
"155 304 LINE",
"341 304 LINE SMOOTH",
"349 304 OFFCURVE",
"354 298 OFFCURVE",
"355 290 CURVE SMOOTH",
"360 231 LINE",
"376 231 LINE",
"376 399 LINE",
"360 399 LINE",
"355 342 LINE SMOOTH",
"354 332 OFFCURVE",
"349 326 OFFCURVE",
"341 326 CURVE SMOOTH",
"155 326 LINE",
"155 608 LINE",
"372 608 LINE SMOOTH",
"388 608 OFFCURVE",
"398 604 OFFCURVE",
"400 586 CURVE SMOOTH",
"414 484 LINE",
"433 484 LINE",
"433 535 OFFCURVE",
"436 588 OFFCURVE",
"441 639 CURVE",
"423 634 OFFCURVE",
"388 630 OFFCURVE",
"334 630 CURVE SMOOTH",
"34 630 LINE",
"34 614 LINE",
"82 614 LINE SMOOTH",
"92 614 OFFCURVE",
"96 609 OFFCURVE",
"96 600 CURVE SMOOTH",
"96 30 LINE SMOOTH",
"96 21 OFFCURVE",
"92 16 OFFCURVE",
"82 16 CURVE SMOOTH",
"34 16 LINE",
"34 0 LINE",
"348 0 LINE SMOOTH",
"402 0 OFFCURVE",
"437 -4 OFFCURVE",
"455 -9 CURVE"
);
}
);
width = 494.1662;
},
{
anchors = (
{
name = "#entry";
position = "{40, 432}";
},
{
name = bottom;
position = "{314, 0}";
},
{
name = ogonek;
position = "{595, -9}";
},
{
name = top;
position = "{314, 630}";
},
{
name = topleft;
position = "{40, 630}";
}
);
layerId = "E8FFAA2E-5F75-47A2-A44E-FAA52327B69E";
paths = (
{
closed = 1;
nodes = (
"585 59 OFFCURVE",
"580 126 OFFCURVE",
"580 194 CURVE",
"528 194 LINE",
"483 43 LINE SMOOTH",
"478 26 OFFCURVE",
"473 21 OFFCURVE",
"456 21 CURVE SMOOTH",
"301 21 LINE",
"301 304 LINE",
"446 304 LINE SMOOTH",
"453 304 OFFCURVE",
"458 299 OFFCURVE",
"460 290 CURVE SMOOTH",
"475 221 LINE",
"498 221 LINE",
"498 408 LINE",
"475 408 LINE",
"460 339 LINE SMOOTH",
"458 330 OFFCURVE",
"453 325 OFFCURVE",
"446 325 CURVE SMOOTH",
"301 325 LINE",
"301 609 LINE",
"442 609 LINE SMOOTH",
"457 609 OFFCURVE",
"463 605 OFFCURVE",
"469 587 CURVE SMOOTH",
"514 451 LINE",
"566 451 LINE",
"566 514 OFFCURVE",
"571 576 OFFCURVE",
"581 639 CURVE",
"553 633 OFFCURVE",
"496 630 OFFCURVE",
"426 630 CURVE SMOOTH",
"40 630 LINE",
"40 619 LINE",
"68 619 LINE SMOOTH",
"84 619 OFFCURVE",
"91 612 OFFCURVE",
"91 596 CURVE SMOOTH",
"91 34 LINE SMOOTH",
"91 18 OFFCURVE",
"84 11 OFFCURVE",
"68 11 CURVE SMOOTH",
"40 11 LINE",
"40 0 LINE",
"440 0 LINE SMOOTH",
"510 0 OFFCURVE",
"567 -3 OFFCURVE",
"595 -9 CURVE"
);
}
);
width = 641;
},
{
anchors = (
{
name = "#entry";
position = "{35, 432}";
},
{
name = bottom;
position = "{270, 0}";
},
{
name = ogonek;
position = "{488, -9}";
},
{
name = top;
position = "{270, 630}";
},
{
name = topleft;
position = "{38, 630}";
}
);
hints = (
{
horizontal = 1;
origin = "{0, 9}";
target = "{0, 22}";
type = Stem;
},
{
horizontal = 1;
origin = "{0, 32}";
target = down;
type = TopGhost;
},
{
horizontal = 1;
origin = "{0, 47}";
target = "{0, 8}";
type = Stem;
},
{
origin = "{0, 42}";
target = "{0, 8}";
type = Stem;
},
{
place = "{379.5, 24.5}";
type = Stem;
},
{
origin = "{0, 28}";
target = "{0, 29}";
type = Stem;
},
{
horizontal = 1;
origin = "{0, 36}";
target = "{0, 23}";
type = Stem;
}
);
layerId = "E3B85251-E3AC-4613-BF5C-C1AA05FDF004";
paths = (
{
closed = 1;
nodes = (
"482 50 OFFCURVE",
"478 110 OFFCURVE",
"478 169 CURVE",
"448 169 LINE",
"429 52 LINE SMOOTH",
"427 34 OFFCURVE",
"417 30 OFFCURVE",
"401 30 CURVE SMOOTH",
"189 30 LINE",
"189 300 LINE",
"363 300 LINE SMOOTH",
"371 300 OFFCURVE",
"376 294 OFFCURVE",
"377 286 CURVE SMOOTH",
"382 229 LINE",
"404 229 LINE",
"404 401 LINE",
"382 401 LINE",
"377 345 LINE SMOOTH",
"376 336 OFFCURVE",
"371 330 OFFCURVE",
"363 330 CURVE SMOOTH",
"189 330 LINE",
"189 600 LINE",
"387 600 LINE SMOOTH",
"403 600 OFFCURVE",
"412 596 OFFCURVE",
"415 578 CURVE SMOOTH",
"434 476 LINE",
"464 476 LINE",
"464 530 OFFCURVE",
"468 585 OFFCURVE",
"474 639 CURVE",
"454 634 OFFCURVE",
"415 630 OFFCURVE",
"355 630 CURVE SMOOTH",
"35 630 LINE",
"35 607 LINE",
"79 607 LINE SMOOTH",
"90 607 OFFCURVE",
"95 602 OFFCURVE",
"95 591 CURVE SMOOTH",
"95 39 LINE SMOOTH",
"95 28 OFFCURVE",
"90 23 OFFCURVE",
"79 23 CURVE SMOOTH",
"35 23 LINE",
"35 0 LINE",
"369 0 LINE SMOOTH",
"429 0 OFFCURVE",
"468 -4 OFFCURVE",
"488 -9 CURVE"
);
}
);
width = 528;
},
{
anchors = (
{
name = "#entry";
position = "{35, 432}";
},
{
name = bottom;
position = "{261, 0}";
},
{
name = ogonek;
position = "{467, -9}";
},
{
name = top;
position = "{261, 630}";
},
{
name = topleft;
position = "{38, 630}";
}
);
layerId = "EFBCEE35-D457-4A39-AEF6-BDFE7C5D5DD9";
paths = (
{
closed = 1;
nodes = (
"462 48 OFFCURVE",
"458 107 OFFCURVE",
"458 164 CURVE",
"439 164 LINE",
"421 39 LINE SMOOTH",
"419 21 OFFCURVE",
"409 17 OFFCURVE",
"393 17 CURVE SMOOTH",
"168 17 LINE",
"168 306 LINE",
"352 306 LINE SMOOTH",
"359 306 OFFCURVE",
"364 301 OFFCURVE",
"366 292 CURVE SMOOTH",
"373 230 LINE",
"386 230 LINE",
"386 400 LINE",
"373 400 LINE",
"366 339 LINE SMOOTH",
"364 329 OFFCURVE",
"359 323 OFFCURVE",
"352 323 CURVE SMOOTH",
"168 323 LINE",
"168 613 LINE",
"379 613 LINE SMOOTH",
"395 613 OFFCURVE",
"404 609 OFFCURVE",
"407 591 CURVE SMOOTH",
"425 481 LINE",
"444 481 LINE",
"444 533 OFFCURVE",
"448 587 OFFCURVE",
"453 639 CURVE",
"434 634 OFFCURVE",
"396 630 OFFCURVE",
"342 630 CURVE SMOOTH",
"35 630 LINE",
"35 619 LINE",
"81 619 LINE SMOOTH",
"92 619 OFFCURVE",
"96 614 OFFCURVE",
"96 604 CURVE SMOOTH",
"96 26 LINE SMOOTH",
"96 16 OFFCURVE",
"92 11 OFFCURVE",
"81 11 CURVE SMOOTH",
"35 11 LINE",
"35 0 LINE",
"356 0 LINE SMOOTH",
"410 0 OFFCURVE",
"448 -4 OFFCURVE",
"467 -9 CURVE"
);
}
);
width = 506.80752;
}
);
leftKerningGroup = H;
leftMetricsKey = H;
rightKerningGroup = E;
rightMetricsKey = "=H*1.15";
unicode = 0045;
},
{
color = 4;
glyphname = F;
layers = (
{
layerId = "37751B57-50B3-4ADE-85C1-D4B223AC548E";
paths = (
{
closed = 1;
nodes = (
"377 0 LINE",
"377 45 LINE",
"324 45 LINE SMOOTH",
"308 45 OFFCURVE",
"301 52 OFFCURVE",
"301 68 CURVE SMOOTH",
"301 277 LINE",
"414 277 LINE SMOOTH",
"422 277 OFFCURVE",
"427 272 OFFCURVE",
"428 263 CURVE SMOOTH",
"433 211 LINE",
"478 211 LINE",
"478 398 LINE",
"433 398 LINE",
"428 346 LINE SMOOTH",
"427 337 OFFCURVE",
"422 332 OFFCURVE",
"414 332 CURVE SMOOTH",
"301 332 LINE",
"301 575 LINE",
"407 575 LINE SMOOTH",
"422 575 OFFCURVE",
"428 571 OFFCURVE",
"434 553 CURVE SMOOTH",
"469 451 LINE",
"536 451 LINE",
"536 514 OFFCURVE",
"541 576 OFFCURVE",
"551 639 CURVE",
"523 633 OFFCURVE",
"466 630 OFFCURVE",
"396 630 CURVE SMOOTH",
"40 630 LINE",
"40 585 LINE",
"68 585 LINE SMOOTH",
"84 585 OFFCURVE",
"91 578 OFFCURVE",
"91 562 CURVE SMOOTH",
"91 68 LINE SMOOTH",
"91 52 OFFCURVE",
"84 45 OFFCURVE",
"68 45 CURVE SMOOTH",
"40 45 LINE",
"40 0 LINE"
);
}
);
width = 559;
},
{
layerId = "AD4267C8-B72F-4114-A1A9-4AD5F5524DF4";
paths = (
{
closed = 1;
nodes = (
"190 0 LINE",
"190 11 LINE",
"138 11 LINE SMOOTH",
"130 11 OFFCURVE",
"127 15 OFFCURVE",
"127 23 CURVE SMOOTH",
"127 310 LINE",
"350 310 LINE SMOOTH",
"355 310 OFFCURVE",
"360 304 OFFCURVE",
"361 296 CURVE SMOOTH",
"366 231 LINE",
"377 231 LINE",
"377 406 LINE",
"366 406 LINE",
"361 340 LINE SMOOTH",
"360 333 OFFCURVE",
"355 326 OFFCURVE",
"350 326 CURVE SMOOTH",
"127 326 LINE",
"127 614 LINE",
"374 614 LINE SMOOTH",
"393 614 OFFCURVE",
"401 608 OFFCURVE",
"402 592 CURVE SMOOTH",
"411 485 LINE",
"422 485 LINE",
"422 537 OFFCURVE",
"424 587 OFFCURVE",
"428 639 CURVE",
"409 633 OFFCURVE",
"374 630 OFFCURVE",
"331 630 CURVE SMOOTH",
"33 630 LINE",
"33 619 LINE",
"85 619 LINE SMOOTH",
"94 619 OFFCURVE",
"97 615 OFFCURVE",
"97 607 CURVE SMOOTH",
"97 23 LINE SMOOTH",
"97 15 OFFCURVE",
"94 11 OFFCURVE",
"85 11 CURVE SMOOTH",
"33 11 LINE",
"33 0 LINE"
);
}
);
width = 434.69865;
},
{
layerId = "2498D94C-62B8-4145-8082-B94B7C94C74A";
paths = (
{
closed = 1;
nodes = (
"216 0 LINE",
"216 16 LINE",
"168 16 LINE SMOOTH",
"159 16 OFFCURVE",
"155 21 OFFCURVE",
"155 30 CURVE SMOOTH",
"155 305 LINE",
"360 305 LINE SMOOTH",
"366 305 OFFCURVE",
"371 299 OFFCURVE",
"372 291 CURVE SMOOTH",
"377 228 LINE",
"393 228 LINE",
"393 405 LINE",
"377 405 LINE",
"372 341 LINE SMOOTH",
"371 334 OFFCURVE",
"366 327 OFFCURVE",
"360 327 CURVE SMOOTH",
"155 327 LINE",
"155 608 LINE",
"379 608 LINE SMOOTH",
"398 608 OFFCURVE",
"405 602 OFFCURVE",
"407 586 CURVE SMOOTH",
"420 480 LINE",
"440 480 LINE",
"440 533 OFFCURVE",
"443 585 OFFCURVE",
"448 639 CURVE",
"427 633 OFFCURVE",
"389 630 OFFCURVE",
"341 630 CURVE SMOOTH",
"34 630 LINE",
"34 614 LINE",
"82 614 LINE SMOOTH",
"92 614 OFFCURVE",
"96 609 OFFCURVE",
"96 600 CURVE SMOOTH",
"96 30 LINE SMOOTH",
"96 21 OFFCURVE",
"92 16 OFFCURVE",
"82 16 CURVE SMOOTH",
"34 16 LINE",
"34 0 LINE"
);
}
);
width = 454.72498;
},
{
layerId = "E8FFAA2E-5F75-47A2-A44E-FAA52327B69E";
paths = (
{
closed = 1;
nodes = (
"377 0 LINE",
"377 11 LINE",
"324 11 LINE SMOOTH",
"308 11 OFFCURVE",
"301 18 OFFCURVE",
"301 34 CURVE SMOOTH",
"301 294 LINE",
"426 294 LINE SMOOTH",
"434 294 OFFCURVE",
"438 289 OFFCURVE",
"440 280 CURVE SMOOTH",
"455 211 LINE",
"478 211 LINE",
"478 398 LINE",
"455 398 LINE",
"440 329 LINE SMOOTH",
"438 320 OFFCURVE",
"434 315 OFFCURVE",
"426 315 CURVE SMOOTH",
"301 315 LINE",
"301 609 LINE",
"412 609 LINE SMOOTH",
"428 609 OFFCURVE",
"433 604 OFFCURVE",
"439 587 CURVE SMOOTH",
"484 451 LINE",
"536 451 LINE",
"536 514 OFFCURVE",
"541 576 OFFCURVE",
"551 639 CURVE",
"524 633 OFFCURVE",
"469 630 OFFCURVE",
"396 630 CURVE SMOOTH",
"40 630 LINE",
"40 619 LINE",
"68 619 LINE SMOOTH",
"84 619 OFFCURVE",
"91 612 OFFCURVE",
"91 596 CURVE SMOOTH",
"91 34 LINE SMOOTH",
"91 18 OFFCURVE",
"84 11 OFFCURVE",
"68 11 CURVE SMOOTH",
"40 11 LINE",
"40 0 LINE"
);
}
);
width = 559;
},
{
hints = (
{
horizontal = 1;
origin = "{0, 44}";
target = "{0, 43}";
type = Stem;
},
{
horizontal = 1;
origin = "{0, 6}";
target = "{0, 19}";
type = Stem;
},
{
horizontal = 1;
origin = "{0, 33}";
target = "{0, 20}";
type = Stem;
},
{
horizontal = 1;
origin = "{0, 29}";
target = down;
type = TopGhost;
},
{
origin = "{0, 39}";
target = "{0, 5}";
type = Stem;
},
{
place = "{387.5, 25.5}";
type = Stem;
},
{
origin = "{0, 25}";
target = "{0, 26}";
type = Stem;
}
);
layerId = "E3B85251-E3AC-4613-BF5C-C1AA05FDF004";
paths = (
{
closed = 1;
nodes = (
"254 0 LINE",
"254 23 LINE",
"204 23 LINE SMOOTH",
"194 23 OFFCURVE",
"189 28 OFFCURVE",
"189 39 CURVE SMOOTH",
"189 298 LINE",
"373 298 LINE SMOOTH",
"379 298 OFFCURVE",
"384 293 OFFCURVE",
"385 284 CURVE SMOOTH",
"390 224 LINE",
"413 224 LINE",
"413 403 LINE",
"390 403 LINE",
"385 342 LINE SMOOTH",
"384 335 OFFCURVE",
"379 328 OFFCURVE",
"373 328 CURVE SMOOTH",
"189 328 LINE",
"189 600 LINE",
"386 600 LINE SMOOTH",
"404 600 OFFCURVE",
"410 595 OFFCURVE",
"413 578 CURVE SMOOTH",
"431 473 LINE",
"462 473 LINE",
"462 529 OFFCURVE",
"466 583 OFFCURVE",
"472 639 CURVE",
"449 633 OFFCURVE",
"407 630 OFFCURVE",
"354 630 CURVE SMOOTH",
"35 630 LINE",
"35 607 LINE",
"79 607 LINE SMOOTH",
"90 607 OFFCURVE",
"95 602 OFFCURVE",
"95 591 CURVE SMOOTH",
"95 39 LINE SMOOTH",
"95 28 OFFCURVE",
"90 23 OFFCURVE",
"79 23 CURVE SMOOTH",
"35 23 LINE",
"35 0 LINE"
);
}
);
width = 479.05582;
},
{
layerId = "EFBCEE35-D457-4A39-AEF6-BDFE7C5D5DD9";
paths = (
{
closed = 1;
nodes = (
"234 0 LINE",
"234 11 LINE",
"181 11 LINE SMOOTH",
"172 11 OFFCURVE",
"168 16 OFFCURVE",
"168 26 CURVE SMOOTH",
"168 306 LINE",
"368 306 LINE SMOOTH",
"373 306 OFFCURVE",
"378 301 OFFCURVE",
"379 292 CURVE SMOOTH",
"387 226 LINE",
"401 226 LINE",
"401 404 LINE",
"387 404 LINE",
"379 337 LINE SMOOTH",
"378 330 OFFCURVE",
"373 323 OFFCURVE",
"368 323 CURVE SMOOTH",
"168 323 LINE",
"168 613 LINE",
"383 613 LINE SMOOTH",
"401 613 OFFCURVE",
"408 607 OFFCURVE",
"411 591 CURVE SMOOTH",
"428 477 LINE",
"449 477 LINE",
"449 532 OFFCURVE",
"451 584 OFFCURVE",
"457 639 CURVE",
"436 633 OFFCURVE",
"396 630 OFFCURVE",
"346 630 CURVE SMOOTH",
"35 630 LINE",
"35 619 LINE",
"81 619 LINE SMOOTH",
"92 619 OFFCURVE",
"96 614 OFFCURVE",
"96 604 CURVE SMOOTH",
"96 26 LINE SMOOTH",
"96 16 OFFCURVE",
"92 11 OFFCURVE",
"81 11 CURVE SMOOTH",
"35 11 LINE",
"35 0 LINE"
);
}
);
width = 463.7023;
}
);
leftKerningGroup = H;
leftMetricsKey = H;
rightKerningGroup = F;
rightMetricsKey = "=H*.2";
unicode = 0046;
},
{
color = 4;
glyphname = G;
layers = (
{
anchors = (
{
name = bottom;
position = "{361, 0}";
},
{
name = top;
position = "{359, 630}";
}
);
background = {
paths = (
{
closed = 1;
nodes = (
"300 60 OFFCURVE",
"253 155 OFFCURVE",
"253 314 CURVE SMOOTH",
"253 473 OFFCURVE",
"313 570 OFFCURVE",
"401 570 CURVE SMOOTH",
"471 570 OFFCURVE",
"534 529 OFFCURVE",
"544 420 CURVE",
"622 420 LINE",
"622 636 LINE",
"562 636 LINE",
"561 619 LINE SMOOTH",
"560 604 OFFCURVE",
"559 598 OFFCURVE",
"545 598 CURVE SMOOTH",
"514 598 OFFCURVE",
"467 642 OFFCURVE",
"359 642 CURVE SMOOTH",
"172 642 OFFCURVE",
"38 522 OFFCURVE",
"38 314 CURVE SMOOTH",
"38 107 OFFCURVE",
"175 -12 OFFCURVE",
"359 -12 CURVE SMOOTH",
"522 -12 OFFCURVE",
"644 78 OFFCURVE",
"644 192 CURVE SMOOTH",
"644 232 LINE SMOOTH",
"644 240 OFFCURVE",
"650 246 OFFCURVE",
"658 246 CURVE SMOOTH",
"685 246 LINE",
"685 291 LINE",
"353 291 LINE",
"353 246 LINE",
"430 246 LINE SMOOTH",
"437 246 OFFCURVE",
"444 241 OFFCURVE",
"444 234 CURVE SMOOTH",
"444 190 LINE SMOOTH",
"444 110 OFFCURVE",
"421 60 OFFCURVE",
"361 60 CURVE SMOOTH"
);
}
);
};
guideLines = (
{
angle = -5.7106;
position = "{544, 200}";
},
{
angle = -83.6598;
position = "{361, 60}";
}
);
layerId = "37751B57-50B3-4ADE-85C1-D4B223AC548E";
paths = (
{
closed = 1;
nodes = (
"528 -12 OFFCURVE",
"644 73 OFFCURVE",
"644 190 CURVE SMOOTH",
"644 252 LINE SMOOTH",
"644 260 OFFCURVE",
"650 266 OFFCURVE",
"658 266 CURVE SMOOTH",
"685 266 LINE",
"685 311 LINE",
"353 311 LINE",
"353 266 LINE",
"430 266 LINE SMOOTH",
"438 266 OFFCURVE",
"444 261 OFFCURVE",
"444 254 CURVE SMOOTH",
"444 210 LINE SMOOTH",
"444 109 OFFCURVE",
"417 60 OFFCURVE",
"361 60 CURVE SMOOTH",
"291 60 OFFCURVE",
"243 163 OFFCURVE",
"243 314 CURVE SMOOTH",
"243 470 OFFCURVE",
"305 570 OFFCURVE",
"401 570 CURVE SMOOTH",
"483 570 OFFCURVE",
"535 515 OFFCURVE",
"544 420 CURVE",
"622 420 LINE",
"622 636 LINE",
"562 636 LINE",
"561 619 LINE SMOOTH",
"560 603 OFFCURVE",
"555 598 OFFCURVE",
"542 598 CURVE SMOOTH",
"514 598 OFFCURVE",
"467 642 OFFCURVE",
"359 642 CURVE SMOOTH",
"166 642 OFFCURVE",
"28 520 OFFCURVE",
"28 318 CURVE SMOOTH",
"28 106 OFFCURVE",
"179 -12 OFFCURVE",
"369 -12 CURVE SMOOTH"
);
}
);
width = 711;
},
{
anchors = (
{
name = bottom;
position = "{299, 0}";
},
{
name = top;
position = "{325, 630}";
}
);
layerId = "AD4267C8-B72F-4114-A1A9-4AD5F5524DF4";
paths = (
{
closed = 1;
nodes = (
"419 -12 OFFCURVE",
"510 66 OFFCURVE",
"510 179 CURVE SMOOTH",
"510 259 LINE SMOOTH",
"510 266 OFFCURVE",
"515 271 OFFCURVE",
"524 271 CURVE SMOOTH",
"551 271 LINE",
"551 282 LINE",
"398 282 LINE",
"398 271 LINE",
"462 271 LINE SMOOTH",
"470 271 OFFCURVE",
"476 266 OFFCURVE",
"476 259 CURVE SMOOTH",
"476 182 LINE SMOOTH",
"476 64 OFFCURVE",
"409 0 OFFCURVE",
"286 0 CURVE SMOOTH",
"156 0 OFFCURVE",
"72 124 OFFCURVE",
"72 314 CURVE SMOOTH",
"72 506 OFFCURVE",
"161 630 OFFCURVE",
"300 630 CURVE SMOOTH",
"404 630 OFFCURVE",
"468 573 OFFCURVE",
"478 474 CURVE",
"488 474 LINE",
"488 636 LINE",
"481 636 LINE",
"480 619 LINE SMOOTH",
"479 605 OFFCURVE",
"473 598 OFFCURVE",
"464 598 CURVE SMOOTH",
"438 598 OFFCURVE",
"392 642 OFFCURVE",
"294 642 CURVE SMOOTH",
"145 642 OFFCURVE",
"38 522 OFFCURVE",
"38 313 CURVE SMOOTH",
"38 108 OFFCURVE",
"145 -12 OFFCURVE",
"288 -12 CURVE SMOOTH"
);
}
);
width = 572;
},
{
anchors = (
{
name = bottom;
position = "{309, 0}";
},
{
name = top;
position = "{330, 630}";
}
);
layerId = "2498D94C-62B8-4145-8082-B94B7C94C74A";
paths = (
{
closed = 1;
nodes = (
"437 -12 OFFCURVE",
"532 67 OFFCURVE",
"532 181 CURVE SMOOTH",
"532 258 LINE SMOOTH",
"532 265 OFFCURVE",
"537 270 OFFCURVE",
"546 270 CURVE SMOOTH",
"573 270 LINE",
"573 287 LINE",
"391 287 LINE",
"391 270 LINE",
"457 270 LINE SMOOTH",
"465 270 OFFCURVE",
"471 265 OFFCURVE",
"471 258 CURVE SMOOTH",
"471 187 LINE SMOOTH",
"471 71 OFFCURVE",
"410 10 OFFCURVE",
"298 10 CURVE SMOOTH",
"178 10 OFFCURVE",
"100 130 OFFCURVE",
"100 314 CURVE SMOOTH",
"100 500 OFFCURVE",
"184 620 OFFCURVE",
"316 620 CURVE SMOOTH",
"417 620 OFFCURVE",
"479 564 OFFCURVE",
"489 465 CURVE",
"510 465 LINE",
"510 636 LINE",
"494 636 LINE",
"493 619 LINE SMOOTH",
"492 605 OFFCURVE",
"487 598 OFFCURVE",
"477 598 CURVE SMOOTH",
"450 598 OFFCURVE",
"404 642 OFFCURVE",
"304 642 CURVE SMOOTH",
"148 642 OFFCURVE",
"36 522 OFFCURVE",
"36 314 CURVE SMOOTH",
"36 108 OFFCURVE",
"150 -12 OFFCURVE",
"301 -12 CURVE SMOOTH"
);
}
);
width = 595;
},
{
anchors = (
{
name = bottom;
position = "{361, 0}";
},
{
name = top;
position = "{359, 630}";
}
);
background = {
paths = (
{
closed = 1;
nodes = (
"300 60 OFFCURVE",
"253 155 OFFCURVE",
"253 314 CURVE SMOOTH",
"253 473 OFFCURVE",
"313 570 OFFCURVE",
"401 570 CURVE SMOOTH",
"471 570 OFFCURVE",
"534 529 OFFCURVE",
"544 420 CURVE",
"622 420 LINE",
"622 636 LINE",
"562 636 LINE",
"561 619 LINE SMOOTH",
"560 604 OFFCURVE",
"559 598 OFFCURVE",
"545 598 CURVE SMOOTH",
"514 598 OFFCURVE",
"467 642 OFFCURVE",
"359 642 CURVE SMOOTH",
"172 642 OFFCURVE",
"38 522 OFFCURVE",
"38 314 CURVE SMOOTH",
"38 107 OFFCURVE",
"175 -12 OFFCURVE",
"359 -12 CURVE SMOOTH",
"522 -12 OFFCURVE",
"644 78 OFFCURVE",
"644 192 CURVE SMOOTH",
"644 232 LINE SMOOTH",
"644 240 OFFCURVE",
"650 246 OFFCURVE",
"658 246 CURVE SMOOTH",
"685 246 LINE",
"685 291 LINE",
"353 291 LINE",
"353 246 LINE",
"430 246 LINE SMOOTH",
"437 246 OFFCURVE",
"444 241 OFFCURVE",
"444 234 CURVE SMOOTH",
"444 190 LINE SMOOTH",
"444 110 OFFCURVE",
"421 60 OFFCURVE",
"361 60 CURVE SMOOTH"
);
}
);
};
guideLines = (
{
angle = -5.7106;
position = "{544, 200}";
},
{
angle = -83.6598;
position = "{361, 60}";
}
);
layerId = "E8FFAA2E-5F75-47A2-A44E-FAA52327B69E";
paths = (
{
closed = 1;
nodes = (
"528 -12 OFFCURVE",
"644 73 OFFCURVE",
"644 190 CURVE SMOOTH",
"644 269 LINE SMOOTH",
"644 277 OFFCURVE",
"650 283 OFFCURVE",
"658 283 CURVE SMOOTH",
"685 283 LINE",
"685 294 LINE",
"353 294 LINE",
"353 283 LINE",
"430 283 LINE SMOOTH",
"438 283 OFFCURVE",
"444 278 OFFCURVE",
"444 271 CURVE SMOOTH",
"444 159 LINE SMOOTH",
"444 58 OFFCURVE",
"417 9 OFFCURVE",
"361 9 CURVE SMOOTH",
"291 9 OFFCURVE",
"243 133 OFFCURVE",
"243 314 CURVE SMOOTH",
"243 500 OFFCURVE",
"305 621 OFFCURVE",
"401 621 CURVE SMOOTH",
"483 621 OFFCURVE",
"558 565 OFFCURVE",
"570 420 CURVE",
"622 420 LINE",
"622 636 LINE",
"588 636 LINE",
"587 619 LINE SMOOTH",
"586 604 OFFCURVE",
"580 598 OFFCURVE",
"568 598 CURVE SMOOTH",
"535 598 OFFCURVE",
"485 642 OFFCURVE",
"370 642 CURVE SMOOTH",
"171 642 OFFCURVE",
"28 520 OFFCURVE",
"28 318 CURVE SMOOTH",
"28 106 OFFCURVE",
"179 -12 OFFCURVE",
"369 -12 CURVE SMOOTH"
);
}
);
width = 711;
},
{
anchors = (
{
name = bottom;
position = "{321, 0}";
},
{
name = top;
position = "{337, 630}";
}
);
hints = (
{
horizontal = 1;
origin = "{0, 43}";
target = "{0, 18}";
type = Stem;
},
{
horizontal = 1;
origin = "{0, 10}";
target = "{0, 9}";
type = Stem;
},
{
horizontal = 1;
origin = "{0, 37}";
target = "{0, 24}";
type = Stem;
},
{
origin = "{0, 40}";
target = "{0, 21}";
type = Stem;
},
{
place = "{509.5, 26.5}";
type = Stem;
},
{
origin = "{0, 15}";
target = "{0, 2}";
type = Stem;
}
);
layerId = "E3B85251-E3AC-4613-BF5C-C1AA05FDF004";
paths = (
{
closed = 1;
nodes = (
"458 -12 OFFCURVE",
"558 68 OFFCURVE",
"558 183 CURVE SMOOTH",
"558 257 LINE SMOOTH",
"558 264 OFFCURVE",
"563 269 OFFCURVE",
"572 269 CURVE SMOOTH",
"599 269 LINE",
"599 293 LINE",
"382 293 LINE",
"382 269 LINE",
"451 269 LINE SMOOTH",
"459 269 OFFCURVE",
"465 264 OFFCURVE",
"465 257 CURVE SMOOTH",
"465 192 LINE SMOOTH",
"465 80 OFFCURVE",
"412 22 OFFCURVE",
"313 22 CURVE SMOOTH",
"204 22 OFFCURVE",
"133 138 OFFCURVE",
"133 314 CURVE SMOOTH",
"133 493 OFFCURVE",
"212 608 OFFCURVE",
"336 608 CURVE SMOOTH",
"432 608 OFFCURVE",
"492 553 OFFCURVE",
"502 455 CURVE",
"536 455 LINE",
"536 636 LINE",
"510 636 LINE",
"509 619 LINE SMOOTH",
"508 605 OFFCURVE",
"503 598 OFFCURVE",
"492 598 CURVE SMOOTH",
"465 598 OFFCURVE",
"419 642 OFFCURVE",
"317 642 CURVE SMOOTH",
"152 642 OFFCURVE",
"34 522 OFFCURVE",
"34 315 CURVE SMOOTH",
"34 108 OFFCURVE",
"157 -12 OFFCURVE",
"317 -12 CURVE SMOOTH"
);
}
);
width = 622.06667;
},
{
anchors = (
{
name = bottom;
position = "{313, 0}";
},
{
name = top;
position = "{333, 630}";
}
);
layerId = "EFBCEE35-D457-4A39-AEF6-BDFE7C5D5DD9";
paths = (
{
closed = 1;
nodes = (
"444 -12 OFFCURVE",
"541 68 OFFCURVE",
"541 182 CURVE SMOOTH",
"541 261 LINE SMOOTH",
"541 269 OFFCURVE",
"547 274 OFFCURVE",
"555 274 CURVE SMOOTH",
"582 274 LINE",
"582 285 LINE",
"388 285 LINE",
"388 274 LINE",
"455 274 LINE SMOOTH",
"463 274 OFFCURVE",
"469 269 OFFCURVE",
"469 262 CURVE SMOOTH",
"469 177 LINE SMOOTH",
"469 63 OFFCURVE",
"411 2 OFFCURVE",
"304 2 CURVE SMOOTH",
"188 2 OFFCURVE",
"112 126 OFFCURVE",
"112 314 CURVE SMOOTH",
"112 505 OFFCURVE",
"195 628 OFFCURVE",
"324 628 CURVE SMOOTH",
"422 628 OFFCURVE",
"489 571 OFFCURVE",
"499 461 CURVE",
"519 461 LINE",
"519 636 LINE",
"506 636 LINE",
"505 619 LINE SMOOTH",
"504 605 OFFCURVE",
"498 598 OFFCURVE",
"488 598 CURVE SMOOTH",
"461 598 OFFCURVE",
"414 642 OFFCURVE",
"312 642 CURVE SMOOTH",
"151 642 OFFCURVE",
"36 522 OFFCURVE",
"36 314 CURVE SMOOTH",
"36 108 OFFCURVE",
"153 -12 OFFCURVE",
"307 -12 CURVE SMOOTH"
);
}
);
width = 605;
}
);
leftKerningGroup = O;
leftMetricsKey = O;
rightKerningGroup = G;
rightMetricsKey = "=H*.65";
unicode = 0047;
},
{
color = 4;
glyphname = H;
layers = (
{
anchors = (
{
name = bottom;
position = "{393, 0}";
},
{
name = center;
position = "{393, 466}";
},
{
name = top;
position = "{393, 630}";
},
{
name = topleft;
position = "{75, 630}";
}
);
layerId = "37751B57-50B3-4ADE-85C1-D4B223AC548E";
paths = (
{
closed = 1;
nodes = (
"352 0 LINE",
"352 45 LINE",
"324 45 LINE SMOOTH",
"308 45 OFFCURVE",
"301 52 OFFCURVE",
"301 68 CURVE SMOOTH",
"301 287 LINE",
"485 287 LINE",
"485 68 LINE SMOOTH",
"485 52 OFFCURVE",
"478 45 OFFCURVE",
"462 45 CURVE SMOOTH",
"434 45 LINE",
"434 0 LINE",
"746 0 LINE",
"746 45 LINE",
"718 45 LINE SMOOTH",
"702 45 OFFCURVE",
"695 52 OFFCURVE",
"695 68 CURVE SMOOTH",
"695 562 LINE SMOOTH",
"695 578 OFFCURVE",
"702 585 OFFCURVE",
"718 585 CURVE SMOOTH",
"746 585 LINE",
"746 630 LINE",
"434 630 LINE",
"434 585 LINE",
"462 585 LINE SMOOTH",
"478 585 OFFCURVE",
"485 578 OFFCURVE",
"485 562 CURVE SMOOTH",
"485 342 LINE",
"301 342 LINE",
"301 562 LINE SMOOTH",
"301 578 OFFCURVE",
"308 585 OFFCURVE",
"324 585 CURVE SMOOTH",
"352 585 LINE",
"352 630 LINE",
"40 630 LINE",
"40 585 LINE",
"68 585 LINE SMOOTH",
"84 585 OFFCURVE",
"91 578 OFFCURVE",
"91 562 CURVE SMOOTH",
"91 68 LINE SMOOTH",
"91 52 OFFCURVE",
"84 45 OFFCURVE",
"68 45 CURVE SMOOTH",
"40 45 LINE",
"40 0 LINE"
);
}
);
width = 786;
},
{
anchors = (
{
name = bottom;
position = "{290, 0}";
},
{
name = center;
position = "{290, 466}";
},
{
name = top;
position = "{290, 630}";
},
{
name = topleft;
position = "{-10, 630}";
}
);
hints = (
{
horizontal = 1;
origin = "{0, 51}";
target = "{0, 50}";
type = Stem;
},
{
horizontal = 1;
origin = "{0, 6}";
target = "{0, 33}";
type = Stem;
},
{
horizontal = 1;
origin = "{0, 40}";
target = "{0, 41}";
type = Stem;
},
{
origin = "{0, 46}";
target = "{0, 5}";
type = Stem;
},
{
origin = "{0, 8}";
target = "{0, 19}";
type = Stem;
}
);
layerId = "AD4267C8-B72F-4114-A1A9-4AD5F5524DF4";
paths = (
{
closed = 1;
nodes = (
"190 0 LINE",
"190 11 LINE",
"138 11 LINE SMOOTH",
"130 11 OFFCURVE",
"127 15 OFFCURVE",
"127 23 CURVE SMOOTH",
"127 307 LINE",
"453 307 LINE",
"453 23 LINE SMOOTH",
"453 15 OFFCURVE",
"450 11 OFFCURVE",
"442 11 CURVE SMOOTH",
"389 11 LINE",
"389 0 LINE",
"547 0 LINE",
"547 11 LINE",
"495 11 LINE SMOOTH",
"486 11 OFFCURVE",
"483 15 OFFCURVE",
"483 23 CURVE SMOOTH",
"483 607 LINE SMOOTH",
"483 615 OFFCURVE",
"486 619 OFFCURVE",
"495 619 CURVE SMOOTH",
"547 619 LINE",
"547 630 LINE",
"389 630 LINE",
"389 619 LINE",
"442 619 LINE SMOOTH",
"450 619 OFFCURVE",
"453 615 OFFCURVE",
"453 607 CURVE SMOOTH",
"453 323 LINE",
"127 323 LINE",
"127 607 LINE SMOOTH",
"127 615 OFFCURVE",
"130 619 OFFCURVE",
"138 619 CURVE SMOOTH",
"190 619 LINE",
"190 630 LINE",
"33 630 LINE",
"33 619 LINE",
"85 619 LINE SMOOTH",
"94 619 OFFCURVE",
"97 615 OFFCURVE",
"97 607 CURVE SMOOTH",
"97 23 LINE SMOOTH",
"97 15 OFFCURVE",
"94 11 OFFCURVE",
"85 11 CURVE SMOOTH",
"33 11 LINE",
"33 0 LINE"
);
}
);
width = 579.95623;
},
{
anchors = (
{
name = bottom;
position = "{307, 0}";
},
{
name = center;
position = "{307, 466}";
},
{
name = top;
position = "{307, 630}";
},
{
name = topleft;
position = "{4, 630}";
}
);
hints = (
{
horizontal = 1;
origin = "{0, 51}";
target = "{0, 50}";
type = Stem;
},
{
horizontal = 1;
origin = "{0, 6}";
target = "{0, 33}";
type = Stem;
},
{
horizontal = 1;
origin = "{0, 40}";
target = "{0, 41}";
type = Stem;
},
{
origin = "{0, 46}";
target = "{0, 5}";
type = Stem;
},
{
origin = "{0, 8}";
target = "{0, 19}";
type = Stem;
}
);
layerId = "2498D94C-62B8-4145-8082-B94B7C94C74A";
paths = (
{
closed = 1;
nodes = (
"216 0 LINE",
"216 16 LINE",
"168 16 LINE SMOOTH",
"159 16 OFFCURVE",
"155 21 OFFCURVE",
"155 30 CURVE SMOOTH",
"155 304 LINE",
"458 304 LINE",
"458 30 LINE SMOOTH",
"458 21 OFFCURVE",
"455 16 OFFCURVE",
"445 16 CURVE SMOOTH",
"396 16 LINE",
"396 0 LINE",
"579 0 LINE",
"579 16 LINE",
"531 16 LINE SMOOTH",
"521 16 OFFCURVE",
"517 21 OFFCURVE",
"517 30 CURVE SMOOTH",
"517 600 LINE SMOOTH",
"517 609 OFFCURVE",
"521 614 OFFCURVE",
"531 614 CURVE SMOOTH",
"579 614 LINE",
"579 630 LINE",
"396 630 LINE",
"396 614 LINE",
"445 614 LINE SMOOTH",
"455 614 OFFCURVE",
"458 609 OFFCURVE",
"458 600 CURVE SMOOTH",
"458 326 LINE",
"155 326 LINE",
"155 600 LINE SMOOTH",
"155 609 OFFCURVE",
"159 614 OFFCURVE",
"168 614 CURVE SMOOTH",
"216 614 LINE",
"216 630 LINE",
"34 630 LINE",
"34 614 LINE",
"82 614 LINE SMOOTH",
"92 614 OFFCURVE",
"96 609 OFFCURVE",
"96 600 CURVE SMOOTH",
"96 30 LINE SMOOTH",
"96 21 OFFCURVE",
"92 16 OFFCURVE",
"82 16 CURVE SMOOTH",
"34 16 LINE",
"34 0 LINE"
);
}
);
width = 613.15217;
},
{
anchors = (
{
name = bottom;
position = "{393, 0}";
},
{
name = center;
position = "{393, 466}";
},
{
name = top;
position = "{393, 630}";
},
{
name = topleft;
position = "{75, 630}";
}
);
layerId = "E8FFAA2E-5F75-47A2-A44E-FAA52327B69E";
paths = (
{
closed = 1;
nodes = (
"352 0 LINE",
"352 11 LINE",
"324 11 LINE SMOOTH",
"308 11 OFFCURVE",
"301 18 OFFCURVE",
"301 34 CURVE SMOOTH",
"301 304 LINE",
"485 304 LINE",
"485 34 LINE SMOOTH",
"485 18 OFFCURVE",
"478 11 OFFCURVE",
"462 11 CURVE SMOOTH",
"434 11 LINE",
"434 0 LINE",
"746 0 LINE",
"746 11 LINE",
"718 11 LINE SMOOTH",
"702 11 OFFCURVE",
"695 18 OFFCURVE",
"695 34 CURVE SMOOTH",
"695 596 LINE SMOOTH",
"695 612 OFFCURVE",
"702 619 OFFCURVE",
"718 619 CURVE SMOOTH",
"746 619 LINE",
"746 630 LINE",
"434 630 LINE",
"434 619 LINE",
"462 619 LINE SMOOTH",
"478 619 OFFCURVE",
"485 612 OFFCURVE",
"485 596 CURVE SMOOTH",
"485 325 LINE",
"301 325 LINE",
"301 596 LINE SMOOTH",
"301 612 OFFCURVE",
"308 619 OFFCURVE",
"324 619 CURVE SMOOTH",
"352 619 LINE",
"352 630 LINE",
"40 630 LINE",
"40 619 LINE",
"68 619 LINE SMOOTH",
"84 619 OFFCURVE",
"91 612 OFFCURVE",
"91 596 CURVE SMOOTH",
"91 34 LINE SMOOTH",
"91 18 OFFCURVE",
"84 11 OFFCURVE",
"68 11 CURVE SMOOTH",
"40 11 LINE",
"40 0 LINE"
);
}
);
width = 786;
},
{
anchors = (
{
name = bottom;
position = "{327, 0}";
},
{
name = center;
position = "{327, 466}";
},
{
name = top;
position = "{327, 630}";
},
{
name = topleft;
position = "{21, 630}";
}
);
hints = (
{
horizontal = 1;
origin = "{0, 51}";
target = "{0, 50}";
type = Stem;
},
{
horizontal = 1;
origin = "{0, 6}";
target = "{0, 33}";
type = Stem;
},
{
horizontal = 1;
origin = "{0, 40}";
target = "{0, 41}";
type = Stem;
},
{
origin = "{0, 46}";
target = "{0, 5}";
type = Stem;
},
{
origin = "{0, 8}";
target = "{0, 19}";
type = Stem;
}
);
layerId = "E3B85251-E3AC-4613-BF5C-C1AA05FDF004";
paths = (
{
closed = 1;
nodes = (
"248 0 LINE",
"248 23 LINE",
"204 23 LINE SMOOTH",
"194 23 OFFCURVE",
"189 28 OFFCURVE",
"189 39 CURVE SMOOTH",
"189 300 LINE",
"464 300 LINE",
"464 39 LINE SMOOTH",
"464 28 OFFCURVE",
"460 23 OFFCURVE",
"449 23 CURVE SMOOTH",
"405 23 LINE",
"405 0 LINE",
"618 0 LINE",
"618 23 LINE",
"575 23 LINE SMOOTH",
"563 23 OFFCURVE",
"559 28 OFFCURVE",
"559 39 CURVE SMOOTH",
"559 591 LINE SMOOTH",
"559 602 OFFCURVE",
"563 607 OFFCURVE",
"575 607 CURVE SMOOTH",
"618 607 LINE",
"618 630 LINE",
"405 630 LINE",
"405 607 LINE",
"449 607 LINE SMOOTH",
"460 607 OFFCURVE",
"464 602 OFFCURVE",
"464 591 CURVE SMOOTH",
"464 330 LINE",
"189 330 LINE",
"189 591 LINE SMOOTH",
"189 602 OFFCURVE",
"194 607 OFFCURVE",
"204 607 CURVE SMOOTH",
"248 607 LINE",
"248 630 LINE",
"35 630 LINE",
"35 607 LINE",
"79 607 LINE SMOOTH",
"90 607 OFFCURVE",
"95 602 OFFCURVE",
"95 591 CURVE SMOOTH",
"95 39 LINE SMOOTH",
"95 28 OFFCURVE",
"90 23 OFFCURVE",
"79 23 CURVE SMOOTH",
"35 23 LINE",
"35 0 LINE"
);
}
);
width = 653.48333;
},
{
anchors = (
{
name = bottom;
position = "{314, 0}";
},
{
name = center;
position = "{314, 466}";
},
{
name = top;
position = "{314, 630}";
},
{
name = topleft;
position = "{10, 630}";
}
);
hints = (
{
horizontal = 1;
origin = "{0, 51}";
target = "{0, 50}";
type = Stem;
},
{
horizontal = 1;
origin = "{0, 6}";
target = "{0, 33}";
type = Stem;
},
{
horizontal = 1;
origin = "{0, 40}";
target = "{0, 41}";
type = Stem;
},
{
origin = "{0, 46}";
target = "{0, 5}";
type = Stem;
},
{
origin = "{0, 8}";
target = "{0, 19}";
type = Stem;
}
);
layerId = "EFBCEE35-D457-4A39-AEF6-BDFE7C5D5DD9";
paths = (
{
closed = 1;
nodes = (
"228 0 LINE",
"228 11 LINE",
"181 11 LINE SMOOTH",
"172 11 OFFCURVE",
"168 16 OFFCURVE",
"168 26 CURVE SMOOTH",
"168 306 LINE",
"460 306 LINE",
"460 26 LINE SMOOTH",
"460 16 OFFCURVE",
"457 11 OFFCURVE",
"447 11 CURVE SMOOTH",
"399 11 LINE",
"399 0 LINE",
"593 0 LINE",
"593 11 LINE",
"547 11 LINE SMOOTH",
"536 11 OFFCURVE",
"532 16 OFFCURVE",
"532 26 CURVE SMOOTH",
"532 604 LINE SMOOTH",
"532 614 OFFCURVE",
"536 619 OFFCURVE",
"547 619 CURVE SMOOTH",
"593 619 LINE",
"593 630 LINE",
"399 630 LINE",
"399 619 LINE",
"447 619 LINE SMOOTH",
"457 619 OFFCURVE",
"460 614 OFFCURVE",
"460 604 CURVE SMOOTH",
"460 323 LINE",
"168 323 LINE",
"168 604 LINE SMOOTH",
"168 614 OFFCURVE",
"172 619 OFFCURVE",
"181 619 CURVE SMOOTH",
"228 619 LINE",
"228 630 LINE",
"35 630 LINE",
"35 619 LINE",
"81 619 LINE SMOOTH",
"92 619 OFFCURVE",
"96 614 OFFCURVE",
"96 604 CURVE SMOOTH",
"96 26 LINE SMOOTH",
"96 16 OFFCURVE",
"92 11 OFFCURVE",
"81 11 CURVE SMOOTH",
"35 11 LINE",
"35 0 LINE"
);
}
);
width = 628.03311;
}
);
leftKerningGroup = H;
rightKerningGroup = H;
unicode = 0048;
},
{
color = 4;
glyphname = I;
layers = (
{
anchors = (
{
name = bottom;
position = "{206, 0}";
},
{
name = ogonek;
position = "{372, 0}";
},
{
name = top;
position = "{206, 630}";
},
{
name = topleft;
position = "{40, 630}";
}
);
layerId = "37751B57-50B3-4ADE-85C1-D4B223AC548E";
paths = (
{
closed = 1;
nodes = (
"372 0 LINE",
"372 45 LINE",
"334 45 LINE SMOOTH",
"318 45 OFFCURVE",
"311 52 OFFCURVE",
"311 68 CURVE SMOOTH",
"311 562 LINE SMOOTH",
"311 578 OFFCURVE",
"318 585 OFFCURVE",
"334 585 CURVE SMOOTH",
"372 585 LINE",
"372 630 LINE",
"40 630 LINE",
"40 585 LINE",
"78 585 LINE SMOOTH",
"94 585 OFFCURVE",
"101 578 OFFCURVE",
"101 562 CURVE SMOOTH",
"101 68 LINE SMOOTH",
"101 52 OFFCURVE",
"94 45 OFFCURVE",
"78 45 CURVE SMOOTH",
"40 45 LINE",
"40 0 LINE"
);
}
);
width = 412;
},
{
anchors = (
{
name = bottom;
position = "{109, 0}";
},
{
name = ogonek;
position = "{185, 0}";
},
{
name = top;
position = "{109, 630}";
},
{
name = topleft;
position = "{33, 630}";
}
);
hints = (
{
horizontal = 1;
place = "{0, 0}";
type = Stem;
},
{
horizontal = 1;
place = "{396.667, 0}";
type = Stem;
},
{
origin = "{0, 18}";
target = "{0, 5}";
type = Stem;
}
);
layerId = "AD4267C8-B72F-4114-A1A9-4AD5F5524DF4";
paths = (
{
closed = 1;
nodes = (
"185 0 LINE",
"185 11 LINE",
"135 11 LINE SMOOTH",
"127 11 OFFCURVE",
"124 15 OFFCURVE",
"124 23 CURVE SMOOTH",
"124 607 LINE SMOOTH",
"124 615 OFFCURVE",
"127 619 OFFCURVE",
"135 619 CURVE SMOOTH",
"185 619 LINE",
"185 630 LINE",
"33 630 LINE",
"33 619 LINE",
"82 619 LINE SMOOTH",
"91 619 OFFCURVE",
"94 615 OFFCURVE",
"94 607 CURVE SMOOTH",
"94 23 LINE SMOOTH",
"94 15 OFFCURVE",
"91 11 OFFCURVE",
"82 11 CURVE SMOOTH",
"33 11 LINE",
"33 0 LINE"
);
}
);
width = 218;
},
{
anchors = (
{
name = bottom;
position = "{125, 0}";
},
{
name = ogonek;
position = "{215, 0}";
},
{
name = top;
position = "{125, 630}";
},
{
name = topleft;
position = "{34, 630}";
}
);
hints = (
{
horizontal = 1;
place = "{0, 0}";
type = Stem;
},
{
horizontal = 1;
place = "{332.76, 0}";
type = Stem;
},
{
origin = "{0, 18}";
target = "{0, 5}";
type = Stem;
}
);
layerId = "2498D94C-62B8-4145-8082-B94B7C94C74A";
paths = (
{
closed = 1;
nodes = (
"215 0 LINE",
"215 16 LINE",
"167 16 LINE SMOOTH",
"158 16 OFFCURVE",
"154 21 OFFCURVE",
"154 30 CURVE SMOOTH",
"154 600 LINE SMOOTH",
"154 609 OFFCURVE",
"158 614 OFFCURVE",
"167 614 CURVE SMOOTH",
"215 614 LINE",
"215 630 LINE",
"34 630 LINE",
"34 614 LINE",
"81 614 LINE SMOOTH",
"91 614 OFFCURVE",
"95 609 OFFCURVE",
"95 600 CURVE SMOOTH",
"95 30 LINE SMOOTH",
"95 21 OFFCURVE",
"91 16 OFFCURVE",
"81 16 CURVE SMOOTH",
"34 16 LINE",
"34 0 LINE"
);
}
);
width = 249.25556;
},
{
anchors = (
{
name = bottom;
position = "{206, 0}";
},
{
name = ogonek;
position = "{372, 0}";
},
{
name = top;
position = "{206, 630}";
},
{
name = topleft;
position = "{40, 630}";
}
);
layerId = "E8FFAA2E-5F75-47A2-A44E-FAA52327B69E";
paths = (
{
closed = 1;
nodes = (
"372 0 LINE",
"372 11 LINE",
"334 11 LINE SMOOTH",
"318 11 OFFCURVE",
"311 18 OFFCURVE",
"311 34 CURVE SMOOTH",
"311 596 LINE SMOOTH",
"311 612 OFFCURVE",
"318 619 OFFCURVE",
"334 619 CURVE SMOOTH",
"372 619 LINE",
"372 630 LINE",
"40 630 LINE",
"40 619 LINE",
"78 619 LINE SMOOTH",
"94 619 OFFCURVE",
"101 612 OFFCURVE",
"101 596 CURVE SMOOTH",
"101 34 LINE SMOOTH",
"101 18 OFFCURVE",
"94 11 OFFCURVE",
"78 11 CURVE SMOOTH",
"40 11 LINE",
"40 0 LINE"
);
}
);
width = 412;
},
{
anchors = (
{
name = bottom;
position = "{144, 0}";
},
{
name = ogonek;
position = "{252, 0}";
},
{
name = top;
position = "{144, 630}";
},
{
name = topleft;
position = "{35, 630}";
}
);
hints = (
{
horizontal = 1;
origin = "{0, 23}";
target = "{0, 22}";
type = Stem;
},
{
horizontal = 1;
origin = "{0, 12}";
target = "{0, 13}";
type = Stem;
},
{
origin = "{0, 18}";
target = "{0, 5}";
type = Stem;
}
);
layerId = "E3B85251-E3AC-4613-BF5C-C1AA05FDF004";
paths = (
{
closed = 1;
nodes = (
"252 0 LINE",
"252 23 LINE",
"206 23 LINE SMOOTH",
"195 23 OFFCURVE",
"191 28 OFFCURVE",
"191 39 CURVE SMOOTH",
"191 591 LINE SMOOTH",
"191 602 OFFCURVE",
"195 607 OFFCURVE",
"206 607 CURVE SMOOTH",
"252 607 LINE",
"252 630 LINE",
"35 630 LINE",
"35 607 LINE",
"80 607 LINE SMOOTH",
"92 607 OFFCURVE",
"96 602 OFFCURVE",
"96 591 CURVE SMOOTH",
"96 39 LINE SMOOTH",
"96 28 OFFCURVE",
"92 23 OFFCURVE",
"80 23 CURVE SMOOTH",
"35 23 LINE",
"35 0 LINE"
);
}
);
width = 287.22926;
},
{
anchors = (
{
name = bottom;
position = "{132, 0}";
},
{
name = ogonek;
position = "{229, 0}";
},
{
name = top;
position = "{132, 630}";
},
{
name = topleft;
position = "{35, 630}";
}
);
hints = (
{
horizontal = 1;
place = "{0, 0}";
type = Stem;
},
{
horizontal = 1;
place = "{304.111, 0}";
type = Stem;
},
{
origin = "{0, 18}";
target = "{0, 5}";
type = Stem;
}
);
layerId = "EFBCEE35-D457-4A39-AEF6-BDFE7C5D5DD9";
paths = (
{
closed = 1;
nodes = (
"229 0 LINE",
"229 11 LINE",
"181 11 LINE SMOOTH",
"172 11 OFFCURVE",
"168 16 OFFCURVE",
"168 26 CURVE SMOOTH",
"168 604 LINE SMOOTH",
"168 614 OFFCURVE",
"172 619 OFFCURVE",
"181 619 CURVE SMOOTH",
"229 619 LINE",
"229 630 LINE",
"35 630 LINE",
"35 619 LINE",
"81 619 LINE SMOOTH",
"92 619 OFFCURVE",
"96 614 OFFCURVE",
"96 604 CURVE SMOOTH",
"96 26 LINE SMOOTH",
"96 16 OFFCURVE",
"92 11 OFFCURVE",
"81 11 CURVE SMOOTH",
"35 11 LINE",
"35 0 LINE"
);
}
);
width = 264;
}
);
leftKerningGroup = H;
leftMetricsKey = H;
rightKerningGroup = H;
rightMetricsKey = H;
unicode = 0049;
},
{
color = 4;
glyphname = J;
layers = (
{
anchors = (
{
name = bottom;
position = "{207, 0}";
},
{
name = top;
position = "{207, 630}";
}
);
guideLines = (
{
angle = 251.0296;
position = "{79, -116}";
}
);
layerId = "37751B57-50B3-4ADE-85C1-D4B223AC548E";
paths = (
{
closed = 1;
nodes = (
"201 -228 OFFCURVE",
"312 -133 OFFCURVE",
"312 30 CURVE SMOOTH",
"312 636 LINE",
"286 633 OFFCURVE",
"212 630 OFFCURVE",
"147 630 CURVE SMOOTH",
"30 630 LINE",
"30 585 LINE",
"88 585 LINE SMOOTH",
"96 585 OFFCURVE",
"102 579 OFFCURVE",
"102 571 CURVE SMOOTH",
"102 -117 LINE SMOOTH",
"102 -148 OFFCURVE",
"94 -164 OFFCURVE",
"79 -164 CURVE SMOOTH",
"63 -164 OFFCURVE",
"53 -149 OFFCURVE",
"53 -127 CURVE SMOOTH",
"53 -98 OFFCURVE",
"58 -72 OFFCURVE",
"70 -46 CURVE",
"51 -30 OFFCURVE",
"14 -19 OFFCURVE",
"-21 -19 CURVE SMOOTH",
"-72 -19 OFFCURVE",
"-100 -48 OFFCURVE",
"-100 -101 CURVE SMOOTH",
"-100 -182 OFFCURVE",
"-43 -228 OFFCURVE",
"57 -228 CURVE SMOOTH"
);
}
);
width = 424;
},
{
anchors = (
{
name = bottom;
position = "{112, 0}";
},
{
name = top;
position = "{112, 630}";
}
);
layerId = "AD4267C8-B72F-4114-A1A9-4AD5F5524DF4";
paths = (
{
closed = 1;
nodes = (
"99 -168 OFFCURVE",
"128 -117 OFFCURVE",
"128 -30 CURVE SMOOTH",
"128 636 LINE",
"117 633 OFFCURVE",
"90 630 OFFCURVE",
"70 630 CURVE SMOOTH",
"-11 630 LINE",
"-11 619 LINE",
"84 619 LINE SMOOTH",
"94 619 OFFCURVE",
"98 614 OFFCURVE",
"98 608 CURVE SMOOTH",
"98 -54 LINE SMOOTH",
"98 -118 OFFCURVE",
"74 -155 OFFCURVE",
"32 -155 CURVE SMOOTH",
"6 -155 OFFCURVE",
"-13 -138 OFFCURVE",
"-13 -111 CURVE SMOOTH",
"-13 -96 OFFCURVE",
"-9 -84 OFFCURVE",
"1 -62 CURVE",
"-6 -51 OFFCURVE",
"-16 -45 OFFCURVE",
"-27 -45 CURVE SMOOTH",
"-43 -45 OFFCURVE",
"-55 -64 OFFCURVE",
"-55 -92 CURVE SMOOTH",
"-55 -136 OFFCURVE",
"-21 -168 OFFCURVE",
"28 -168 CURVE SMOOTH"
);
}
);
width = 220;
},
{
anchors = (
{
name = bottom;
position = "{127, 0}";
},
{
name = top;
position = "{127, 630}";
}
);
layerId = "2498D94C-62B8-4145-8082-B94B7C94C74A";
paths = (
{
closed = 1;
nodes = (
"115 -178 OFFCURVE",
"158 -120 OFFCURVE",
"158 -20 CURVE SMOOTH",
"158 636 LINE",
"144 633 OFFCURVE",
"110 630 OFFCURVE",
"82 630 CURVE SMOOTH",
"-4 630 LINE",
"-4 614 LINE",
"85 614 LINE SMOOTH",
"94 614 OFFCURVE",
"99 608 OFFCURVE",
"99 602 CURVE SMOOTH",
"99 -64 LINE SMOOTH",
"99 -123 OFFCURVE",
"77 -156 OFFCURVE",
"40 -156 CURVE SMOOTH",
"15 -156 OFFCURVE",
"-2 -140 OFFCURVE",
"-2 -114 CURVE SMOOTH",
"-2 -96 OFFCURVE",
"2 -82 OFFCURVE",
"12 -59 CURVE",
"3 -48 OFFCURVE",
"-11 -41 OFFCURVE",
"-26 -41 CURVE SMOOTH",
"-48 -41 OFFCURVE",
"-62 -61 OFFCURVE",
"-62 -93 CURVE SMOOTH",
"-62 -143 OFFCURVE",
"-25 -178 OFFCURVE",
"33 -178 CURVE SMOOTH"
);
}
);
width = 252.86667;
},
{
anchors = (
{
name = bottom;
position = "{207, 0}";
},
{
name = top;
position = "{207, 630}";
}
);
guideLines = (
{
angle = 251.0296;
position = "{79, -116}";
}
);
layerId = "E8FFAA2E-5F75-47A2-A44E-FAA52327B69E";
paths = (
{
closed = 1;
nodes = (
"201 -228 OFFCURVE",
"312 -133 OFFCURVE",
"312 30 CURVE SMOOTH",
"312 636 LINE",
"286 633 OFFCURVE",
"212 630 OFFCURVE",
"147 630 CURVE SMOOTH",
"30 630 LINE",
"30 619 LINE",
"88 619 LINE SMOOTH",
"96 619 OFFCURVE",
"102 613 OFFCURVE",
"102 605 CURVE SMOOTH",
"102 -147 LINE SMOOTH",
"102 -182 OFFCURVE",
"94 -198 OFFCURVE",
"79 -198 CURVE SMOOTH",
"61 -198 OFFCURVE",
"53 -181 OFFCURVE",
"53 -144 CURVE SMOOTH",
"53 -109 OFFCURVE",
"59 -72 OFFCURVE",
"70 -46 CURVE",
"51 -30 OFFCURVE",
"14 -19 OFFCURVE",
"-21 -19 CURVE SMOOTH",
"-72 -19 OFFCURVE",
"-100 -48 OFFCURVE",
"-100 -101 CURVE SMOOTH",
"-100 -182 OFFCURVE",
"-43 -228 OFFCURVE",
"57 -228 CURVE SMOOTH"
);
}
);
width = 424;
},
{
anchors = (
{
name = bottom;
position = "{146, 0}";
},
{
name = top;
position = "{146, 630}";
}
);
hints = (
{
horizontal = 1;
origin = "{0, 31}";
target = "{0, 16}";
type = Stem;
},
{
horizontal = 1;
origin = "{0, 7}";
target = "{0, 8}";
type = Stem;
},
{
horizontal = 1;
origin = "{0, 3}";
target = down;
type = TopGhost;
},
{
origin = "{0, 28}";
target = "{0, 19}";
type = Stem;
},
{
origin = "{0, 13}";
target = "{0, 2}";
type = Stem;
}
);
layerId = "E3B85251-E3AC-4613-BF5C-C1AA05FDF004";
paths = (
{
closed = 1;
nodes = (
"135 -190 OFFCURVE",
"194 -123 OFFCURVE",
"194 -8 CURVE SMOOTH",
"194 636 LINE",
"177 633 OFFCURVE",
"134 630 OFFCURVE",
"97 630 CURVE SMOOTH",
"4 630 LINE",
"4 607 LINE",
"86 607 LINE SMOOTH",
"94 607 OFFCURVE",
"100 601 OFFCURVE",
"100 595 CURVE SMOOTH",
"100 -76 LINE SMOOTH",
"100 -129 OFFCURVE",
"81 -158 OFFCURVE",
"49 -158 CURVE SMOOTH",
"26 -158 OFFCURVE",
"11 -142 OFFCURVE",
"11 -117 CURVE SMOOTH",
"11 -96 OFFCURVE",
"15 -80 OFFCURVE",
"26 -56 CURVE",
"14 -44 OFFCURVE",
"-5 -36 OFFCURVE",
"-25 -36 CURVE SMOOTH",
"-54 -36 OFFCURVE",
"-71 -58 OFFCURVE",
"-71 -95 CURVE SMOOTH",
"-71 -152 OFFCURVE",
"-29 -190 OFFCURVE",
"39 -190 CURVE SMOOTH"
);
}
);
width = 292;
},
{
anchors = (
{
name = bottom;
position = "{134, 0}";
},
{
name = top;
position = "{134, 630}";
}
);
layerId = "EFBCEE35-D457-4A39-AEF6-BDFE7C5D5DD9";
paths = (
{
closed = 1;
nodes = (
"123 -182 OFFCURVE",
"171 -121 OFFCURVE",
"171 -16 CURVE SMOOTH",
"171 636 LINE",
"156 633 OFFCURVE",
"118 630 OFFCURVE",
"88 630 CURVE SMOOTH",
"-1 630 LINE",
"-1 619 LINE",
"85 619 LINE SMOOTH",
"94 619 OFFCURVE",
"99 614 OFFCURVE",
"99 607 CURVE SMOOTH",
"99 -76 LINE SMOOTH",
"99 -133 OFFCURVE",
"79 -165 OFFCURVE",
"43 -165 CURVE SMOOTH",
"19 -165 OFFCURVE",
"2 -148 OFFCURVE",
"2 -119 CURVE SMOOTH",
"2 -99 OFFCURVE",
"7 -81 OFFCURVE",
"17 -58 CURVE",
"7 -46 OFFCURVE",
"-9 -39 OFFCURVE",
"-26 -39 CURVE SMOOTH",
"-50 -39 OFFCURVE",
"-66 -60 OFFCURVE",
"-66 -94 CURVE SMOOTH",
"-66 -147 OFFCURVE",
"-26 -182 OFFCURVE",
"35 -182 CURVE SMOOTH"
);
}
);
width = 269;
}
);
leftKerningGroup = J;
rightKerningGroup = J;
rightMetricsKey = "=H*2.8";
unicode = 004A;
},
{
color = 4;
glyphname = K;
layers = (
{
anchors = (
{
name = bottom;
position = "{353, 0}";
},
{
name = top;
position = "{353, 630}";
}
);
guideLines = (
{
angle = 92.0309;
position = "{684, 80}";
},
{
angle = -77.6806;
position = "{592, 121}";
},
{
angle = -9.0903;
position = "{363, 232}";
},
{
angle = -5.7106;
position = "{651, 96}";
},
{
angle = 100.9807;
position = "{608, 118}";
},
{
angle = 230.5722;
position = "{598, 33}";
}
);
layerId = "37751B57-50B3-4ADE-85C1-D4B223AC548E";
paths = (
{
closed = 1;
nodes = (
"352 0 LINE",
"352 45 LINE",
"324 45 LINE SMOOTH",
"308 45 OFFCURVE",
"301 52 OFFCURVE",
"301 68 CURVE SMOOTH",
"301 562 LINE SMOOTH",
"301 578 OFFCURVE",
"308 585 OFFCURVE",
"324 585 CURVE SMOOTH",
"352 585 LINE",
"352 630 LINE",
"40 630 LINE",
"40 585 LINE",
"68 585 LINE SMOOTH",
"84 585 OFFCURVE",
"91 578 OFFCURVE",
"91 562 CURVE SMOOTH",
"91 68 LINE SMOOTH",
"91 52 OFFCURVE",
"84 45 OFFCURVE",
"68 45 CURVE SMOOTH",
"40 45 LINE",
"40 0 LINE"
);
},
{
closed = 1;
nodes = (
"647 -12 OFFCURVE",
"700 35 OFFCURVE",
"700 111 CURVE",
"651 116 LINE",
"651 89 OFFCURVE",
"646 78 OFFCURVE",
"635 78 CURVE SMOOTH",
"622 78 OFFCURVE",
"613 92 OFFCURVE",
"608 118 CURVE SMOOTH",
"599 166 LINE SMOOTH",
"576 290 OFFCURVE",
"516 335 OFFCURVE",
"374 337 CURVE SMOOTH",
"301 338 LINE",
"301 281 LINE",
"362 281 OFFCURVE",
"383 261 OFFCURVE",
"399 188 CURVE SMOOTH",
"408 140 LINE SMOOTH",
"427 31 OFFCURVE",
"471 -12 OFFCURVE",
"561 -12 CURVE SMOOTH"
);
},
{
closed = 1;
nodes = (
"615 571 LINE SMOOTH",
"626 582 OFFCURVE",
"628 585 OFFCURVE",
"637 585 CURVE SMOOTH",
"680 585 LINE",
"680 630 LINE",
"474 630 LINE",
"474 585 LINE",
"533 585 LINE",
"301 338 LINE",
"373 312 LINE"
);
}
);
width = 704;
},
{
anchors = (
{
name = bottom;
position = "{245, 0}";
},
{
name = top;
position = "{245, 630}";
}
);
layerId = "AD4267C8-B72F-4114-A1A9-4AD5F5524DF4";
paths = (
{
closed = 1;
nodes = (
"191 0 LINE",
"191 11 LINE",
"139 11 LINE SMOOTH",
"131 11 OFFCURVE",
"128 15 OFFCURVE",
"128 22 CURVE SMOOTH",
"128 608 LINE SMOOTH",
"128 615 OFFCURVE",
"131 619 OFFCURVE",
"139 619 CURVE SMOOTH",
"191 619 LINE",
"191 630 LINE",
"33 630 LINE",
"33 619 LINE",
"86 619 LINE SMOOTH",
"95 619 OFFCURVE",
"98 615 OFFCURVE",
"98 608 CURVE SMOOTH",
"98 22 LINE SMOOTH",
"98 15 OFFCURVE",
"95 11 OFFCURVE",
"86 11 CURVE SMOOTH",
"33 11 LINE",
"33 0 LINE"
);
},
{
closed = 1;
nodes = (
"464 -12 OFFCURVE",
"490 14 OFFCURVE",
"490 54 CURVE",
"479 56 LINE",
"479 27 OFFCURVE",
"461 6 OFFCURVE",
"437 6 CURVE SMOOTH",
"412 6 OFFCURVE",
"399 18 OFFCURVE",
"387 60 CURVE SMOOTH",
"353 177 LINE SMOOTH",
"322 280 OFFCURVE",
"288 323 OFFCURVE",
"199 325 CURVE SMOOTH",
"165 324 LINE",
"165 309 LINE",
"258 309 OFFCURVE",
"290 282 OFFCURVE",
"319 186 CURVE SMOOTH",
"353 69 LINE SMOOTH",
"372 12 OFFCURVE",
"389 -12 OFFCURVE",
"424 -12 CURVE SMOOTH"
);
},
{
closed = 1;
nodes = (
"417 605 LINE SMOOTH",
"427 617 OFFCURVE",
"430 619 OFFCURVE",
"439 619 CURVE SMOOTH",
"470 619 LINE",
"470 630 LINE",
"355 630 LINE",
"355 619 LINE",
"408 619 LINE",
"165 324 LINE",
"180 317 LINE"
);
}
);
width = 493;
},
{
anchors = (
{
name = bottom;
position = "{262, 0}";
},
{
name = top;
position = "{262, 630}";
}
);
layerId = "2498D94C-62B8-4145-8082-B94B7C94C74A";
paths = (
{
closed = 1;
nodes = (
"217 0 LINE",
"217 16 LINE",
"169 16 LINE SMOOTH",
"160 16 OFFCURVE",
"156 21 OFFCURVE",
"156 29 CURVE SMOOTH",
"156 601 LINE SMOOTH",
"156 609 OFFCURVE",
"160 614 OFFCURVE",
"169 614 CURVE SMOOTH",
"217 614 LINE",
"217 630 LINE",
"34 630 LINE",
"34 614 LINE",
"83 614 LINE SMOOTH",
"93 614 OFFCURVE",
"97 609 OFFCURVE",
"97 601 CURVE SMOOTH",
"97 29 LINE SMOOTH",
"97 21 OFFCURVE",
"93 16 OFFCURVE",
"83 16 CURVE SMOOTH",
"34 16 LINE",
"34 0 LINE"
);
},
{
closed = 1;
nodes = (
"493 -12 OFFCURVE",
"524 17 OFFCURVE",
"524 63 CURVE",
"507 66 LINE",
"507 37 OFFCURVE",
"491 18 OFFCURVE",
"469 18 CURVE SMOOTH",
"446 18 OFFCURVE",
"433 30 OFFCURVE",
"423 69 CURVE SMOOTH",
"393 175 LINE SMOOTH",
"363 282 OFFCURVE",
"325 325 OFFCURVE",
"227 327 CURVE SMOOTH",
"187 326 LINE",
"187 304 LINE",
"275 304 OFFCURVE",
"305 279 OFFCURVE",
"332 186 CURVE SMOOTH",
"362 80 LINE SMOOTH",
"381 15 OFFCURVE",
"402 -12 OFFCURVE",
"446 -12 CURVE SMOOTH"
);
},
{
closed = 1;
nodes = (
"449 600 LINE SMOOTH",
"459 611 OFFCURVE",
"462 614 OFFCURVE",
"471 614 CURVE SMOOTH",
"504 614 LINE",
"504 630 LINE",
"374 630 LINE",
"374 614 LINE",
"428 614 LINE",
"187 326 LINE",
"211 316 LINE"
);
}
);
width = 526.99444;
},
{
anchors = (
{
name = bottom;
position = "{353, 0}";
},
{
name = top;
position = "{353, 630}";
}
);
guideLines = (
{
angle = 92.0309;
position = "{684, 80}";
},
{
angle = -77.6806;
position = "{592, 121}";
},
{
angle = 100.9807;
position = "{608, 76}";
}
);
layerId = "E8FFAA2E-5F75-47A2-A44E-FAA52327B69E";
paths = (
{
closed = 1;
nodes = (
"352 0 LINE",
"352 11 LINE",
"324 11 LINE SMOOTH",
"308 11 OFFCURVE",
"301 18 OFFCURVE",
"301 34 CURVE SMOOTH",
"301 596 LINE SMOOTH",
"301 612 OFFCURVE",
"308 619 OFFCURVE",
"324 619 CURVE SMOOTH",
"352 619 LINE",
"352 630 LINE",
"40 630 LINE",
"40 619 LINE",
"68 619 LINE SMOOTH",
"84 619 OFFCURVE",
"91 612 OFFCURVE",
"91 596 CURVE SMOOTH",
"91 34 LINE SMOOTH",
"91 18 OFFCURVE",
"84 11 OFFCURVE",
"68 11 CURVE SMOOTH",
"40 11 LINE",
"40 0 LINE"
);
},
{
closed = 1;
nodes = (
"654 -12 OFFCURVE",
"700 24 OFFCURVE",
"700 96 CURVE",
"685 98 LINE",
"685 58 OFFCURVE",
"671 33 OFFCURVE",
"649 33 CURVE SMOOTH",
"632 33 OFFCURVE",
"621 48 OFFCURVE",
"615 79 CURVE SMOOTH",
"599 166 LINE SMOOTH",
"576 277 OFFCURVE",
"517 318 OFFCURVE",
"374 320 CURVE SMOOTH",
"301 321 LINE",
"301 298 LINE",
"362 298 OFFCURVE",
"383 274 OFFCURVE",
"399 188 CURVE SMOOTH",
"408 140 LINE SMOOTH",
"428 24 OFFCURVE",
"464 -12 OFFCURVE",
"561 -12 CURVE SMOOTH"
);
},
{
closed = 1;
nodes = (
"615 605 LINE SMOOTH",
"626 616 OFFCURVE",
"628 619 OFFCURVE",
"637 619 CURVE SMOOTH",
"680 619 LINE",
"680 630 LINE",
"541 630 LINE",
"541 619 LINE",
"600 619 LINE",
"301 321 LINE",
"323 315 LINE"
);
}
);
width = 704;
},
{
anchors = (
{
name = bottom;
position = "{283, 0}";
},
{
name = top;
position = "{283, 630}";
}
);
hints = (
{
horizontal = 1;
origin = "{0, 23}";
target = "{0, 22}";
type = Stem;
},
{
horizontal = 1;
origin = "{1, 15}";
target = "{1, 14}";
type = Stem;
},
{
horizontal = 1;
origin = "{0, 12}";
target = "{0, 13}";
type = Stem;
},
{
horizontal = 1;
origin = "{1, 22}";
target = "{1, 6}";
type = Stem;
},
{
origin = "{0, 18}";
target = "{0, 5}";
type = Stem;
},
{
origin = "{1, 3}";
target = "{1, 2}";
type = Stem;
}
);
layerId = "E3B85251-E3AC-4613-BF5C-C1AA05FDF004";
paths = (
{
closed = 1;
nodes = (
"248 0 LINE",
"248 23 LINE",
"205 23 LINE SMOOTH",
"195 23 OFFCURVE",
"190 28 OFFCURVE",
"190 38 CURVE SMOOTH",
"190 592 LINE SMOOTH",
"190 602 OFFCURVE",
"195 607 OFFCURVE",
"205 607 CURVE SMOOTH",
"248 607 LINE",
"248 630 LINE",
"35 630 LINE",
"35 607 LINE",
"79 607 LINE SMOOTH",
"91 607 OFFCURVE",
"96 602 OFFCURVE",
"96 592 CURVE SMOOTH",
"96 38 LINE SMOOTH",
"96 28 OFFCURVE",
"91 23 OFFCURVE",
"79 23 CURVE SMOOTH",
"35 23 LINE",
"35 0 LINE"
);
},
{
closed = 1;
nodes = (
"529 -12 OFFCURVE",
"565 21 OFFCURVE",
"565 74 CURVE",
"541 78 LINE",
"541 49 OFFCURVE",
"527 32 OFFCURVE",
"508 32 CURVE SMOOTH",
"487 32 OFFCURVE",
"475 44 OFFCURVE",
"466 80 CURVE SMOOTH",
"441 173 LINE SMOOTH",
"413 284 OFFCURVE",
"370 327 OFFCURVE",
"261 329 CURVE SMOOTH",
"214 329 LINE",
"214 299 LINE",
"295 299 OFFCURVE",
"323 275 OFFCURVE",
"348 186 CURVE SMOOTH",
"373 94 LINE SMOOTH",
"392 19 OFFCURVE",
"418 -12 OFFCURVE",
"473 -12 CURVE SMOOTH"
);
},
{
closed = 1;
nodes = (
"488 593 LINE SMOOTH",
"498 604 OFFCURVE",
"501 607 OFFCURVE",
"510 607 CURVE SMOOTH",
"545 607 LINE",
"545 630 LINE",
"397 630 LINE",
"397 607 LINE",
"453 607 LINE",
"214 329 LINE",
"249 315 LINE"
);
}
);
width = 568.29574;
},
{
anchors = (
{
name = bottom;
position = "{270, 0}";
},
{
name = top;
position = "{270, 630}";
}
);
layerId = "EFBCEE35-D457-4A39-AEF6-BDFE7C5D5DD9";
paths = (
{
closed = 1;
nodes = (
"229 0 LINE",
"229 11 LINE",
"182 11 LINE SMOOTH",
"172 11 OFFCURVE",
"168 16 OFFCURVE",
"168 25 CURVE SMOOTH",
"168 605 LINE SMOOTH",
"168 614 OFFCURVE",
"172 619 OFFCURVE",
"182 619 CURVE SMOOTH",
"229 619 LINE",
"229 630 LINE",
"35 630 LINE",
"35 619 LINE",
"82 619 LINE SMOOTH",
"92 619 OFFCURVE",
"96 614 OFFCURVE",
"96 605 CURVE SMOOTH",
"96 25 LINE SMOOTH",
"96 16 OFFCURVE",
"92 11 OFFCURVE",
"82 11 CURVE SMOOTH",
"35 11 LINE",
"35 0 LINE"
);
},
{
closed = 1;
nodes = (
"508 -12 OFFCURVE",
"539 16 OFFCURVE",
"539 64 CURVE",
"527 66 LINE",
"527 34 OFFCURVE",
"510 12 OFFCURVE",
"486 12 CURVE SMOOTH",
"463 12 OFFCURVE",
"451 25 OFFCURVE",
"440 64 CURVE SMOOTH",
"410 174 LINE SMOOTH",
"381 279 OFFCURVE",
"341 322 OFFCURVE",
"240 324 CURVE SMOOTH",
"197 323 LINE",
"197 306 LINE",
"282 306 OFFCURVE",
"312 280 OFFCURVE",
"338 186 CURVE SMOOTH",
"366 86 LINE SMOOTH",
"385 15 OFFCURVE",
"406 -12 OFFCURVE",
"456 -12 CURVE SMOOTH"
);
},
{
closed = 1;
nodes = (
"463 605 LINE SMOOTH",
"473 617 OFFCURVE",
"476 619 OFFCURVE",
"485 619 CURVE SMOOTH",
"519 619 LINE",
"519 630 LINE",
"398 630 LINE",
"398 619 LINE",
"453 619 LINE",
"197 323 LINE",
"213 317 LINE"
);
}
);
width = 542.23333;
}
);
leftKerningGroup = H;
leftMetricsKey = H;
rightKerningGroup = K;
rightMetricsKey = "=H*.1";
unicode = 004B;
},
{
color = 4;
glyphname = L;
layers = (
{
anchors = (
{
name = bottom;
position = "{289, 0}";
},
{
name = center;
position = "{196, 315}";
},
{
name = top;
position = "{196, 630}";
},
{
name = topright;
position = "{397, 432}";
}
);
layerId = "37751B57-50B3-4ADE-85C1-D4B223AC548E";
paths = (
{
closed = 1;
nodes = (
"543 59 OFFCURVE",
"538 126 OFFCURVE",
"538 194 CURVE",
"471 194 LINE",
"436 77 LINE SMOOTH",
"431 59 OFFCURVE",
"425 55 OFFCURVE",
"409 55 CURVE SMOOTH",
"301 55 LINE",
"301 562 LINE SMOOTH",
"301 578 OFFCURVE",
"308 585 OFFCURVE",
"324 585 CURVE SMOOTH",
"352 585 LINE",
"352 630 LINE",
"40 630 LINE",
"40 585 LINE",
"68 585 LINE SMOOTH",
"84 585 OFFCURVE",
"91 578 OFFCURVE",
"91 562 CURVE SMOOTH",
"91 68 LINE SMOOTH",
"91 52 OFFCURVE",
"84 45 OFFCURVE",
"68 45 CURVE SMOOTH",
"40 45 LINE",
"40 0 LINE",
"398 0 LINE SMOOTH",
"476 0 OFFCURVE",
"528 -4 OFFCURVE",
"553 -9 CURVE"
);
}
);
width = 559;
},
{
anchors = (
{
name = bottom;
position = "{239, 0}";
},
{
name = center;
position = "{113, 364}";
},
{
name = top;
position = "{111, 630}";
},
{
name = topright;
position = "{307, 436}";
}
);
layerId = "AD4267C8-B72F-4114-A1A9-4AD5F5524DF4";
paths = (
{
closed = 1;
nodes = (
"397 48 OFFCURVE",
"395 103 OFFCURVE",
"395 160 CURVE",
"385 160 LINE",
"375 38 LINE SMOOTH",
"375 22 OFFCURVE",
"366 16 OFFCURVE",
"348 16 CURVE SMOOTH",
"127 16 LINE",
"127 607 LINE SMOOTH",
"127 615 OFFCURVE",
"130 619 OFFCURVE",
"138 619 CURVE SMOOTH",
"190 619 LINE",
"190 630 LINE",
"33 630 LINE",
"33 619 LINE",
"85 619 LINE SMOOTH",
"94 619 OFFCURVE",
"97 615 OFFCURVE",
"97 607 CURVE SMOOTH",
"97 23 LINE SMOOTH",
"97 15 OFFCURVE",
"94 11 OFFCURVE",
"85 11 CURVE SMOOTH",
"33 11 LINE",
"33 0 LINE",
"304 0 LINE SMOOTH",
"346 0 OFFCURVE",
"382 -2 OFFCURVE",
"402 -9 CURVE"
);
}
);
width = 406.80303;
},
{
anchors = (
{
name = bottom;
position = "{247, 0}";
},
{
name = center;
position = "{126, 356}";
},
{
name = top;
position = "{125, 630}";
},
{
name = topright;
position = "{322, 435}";
}
);
layerId = "2498D94C-62B8-4145-8082-B94B7C94C74A";
paths = (
{
closed = 1;
nodes = (
"421 50 OFFCURVE",
"418 107 OFFCURVE",
"418 165 CURVE",
"399 165 LINE",
"385 44 LINE SMOOTH",
"384 28 OFFCURVE",
"376 22 OFFCURVE",
"358 22 CURVE SMOOTH",
"155 22 LINE",
"155 600 LINE SMOOTH",
"155 609 OFFCURVE",
"159 614 OFFCURVE",
"168 614 CURVE SMOOTH",
"216 614 LINE",
"216 630 LINE",
"34 630 LINE",
"34 614 LINE",
"82 614 LINE SMOOTH",
"92 614 OFFCURVE",
"96 609 OFFCURVE",
"96 600 CURVE SMOOTH",
"96 30 LINE SMOOTH",
"96 21 OFFCURVE",
"92 16 OFFCURVE",
"82 16 CURVE SMOOTH",
"34 16 LINE",
"34 0 LINE",
"319 0 LINE SMOOTH",
"367 0 OFFCURVE",
"406 -2 OFFCURVE",
"426 -9 CURVE"
);
}
);
width = 431.32365;
},
{
anchors = (
{
name = bottom;
position = "{289, 0}";
},
{
name = center;
position = "{196, 315}";
},
{
name = top;
position = "{196, 630}";
},
{
name = topright;
position = "{397, 432}";
}
);
layerId = "E8FFAA2E-5F75-47A2-A44E-FAA52327B69E";
paths = (
{
closed = 1;
nodes = (
"543 59 OFFCURVE",
"538 126 OFFCURVE",
"538 194 CURVE",
"486 194 LINE",
"441 43 LINE SMOOTH",
"436 25 OFFCURVE",
"430 21 OFFCURVE",
"414 21 CURVE SMOOTH",
"301 21 LINE",
"301 596 LINE SMOOTH",
"301 612 OFFCURVE",
"308 619 OFFCURVE",
"324 619 CURVE SMOOTH",
"352 619 LINE",
"352 630 LINE",
"40 630 LINE",
"40 619 LINE",
"68 619 LINE SMOOTH",
"84 619 OFFCURVE",
"91 612 OFFCURVE",
"91 596 CURVE SMOOTH",
"91 34 LINE SMOOTH",
"91 18 OFFCURVE",
"84 11 OFFCURVE",
"68 11 CURVE SMOOTH",
"40 11 LINE",
"40 0 LINE",
"398 0 LINE SMOOTH",
"476 0 OFFCURVE",
"528 -4 OFFCURVE",
"553 -9 CURVE"
);
}
);
width = 559;
},
{
anchors = (
{
name = bottom;
position = "{257, 0}";
},
{
name = center;
position = "{142, 346}";
},
{
name = top;
position = "{142, 630}";
},
{
name = topright;
position = "{340, 434}";
}
);
hints = (
{
horizontal = 1;
origin = "{0, 30}";
target = up;
type = BottomGhost;
},
{
horizontal = 1;
origin = "{0, 15}";
target = "{0, 16}";
type = Stem;
},
{
horizontal = 1;
origin = "{0, 26}";
target = "{0, 8}";
type = Stem;
},
{
horizontal = 1;
origin = "{0, 26}";
target = "{0, 25}";
type = Stem;
},
{
origin = "{0, 21}";
target = "{0, 8}";
type = Stem;
}
);
layerId = "E3B85251-E3AC-4613-BF5C-C1AA05FDF004";
paths = (
{
closed = 1;
nodes = (
"449 52 OFFCURVE",
"446 111 OFFCURVE",
"446 172 CURVE",
"416 172 LINE",
"397 52 LINE SMOOTH",
"395 35 OFFCURVE",
"387 30 OFFCURVE",
"370 30 CURVE SMOOTH",
"189 30 LINE",
"189 591 LINE SMOOTH",
"189 602 OFFCURVE",
"194 607 OFFCURVE",
"204 607 CURVE SMOOTH",
"248 607 LINE",
"248 630 LINE",
"35 630 LINE",
"35 607 LINE",
"79 607 LINE SMOOTH",
"90 607 OFFCURVE",
"95 602 OFFCURVE",
"95 591 CURVE SMOOTH",
"95 39 LINE SMOOTH",
"95 28 OFFCURVE",
"90 23 OFFCURVE",
"79 23 CURVE SMOOTH",
"35 23 LINE",
"35 0 LINE",
"337 0 LINE SMOOTH",
"392 0 OFFCURVE",
"434 -2 OFFCURVE",
"456 -9 CURVE"
);
}
);
width = 461.1148;
},
{
anchors = (
{
name = bottom;
position = "{251, 0}";
},
{
name = center;
position = "{132, 353}";
},
{
name = top;
position = "{131, 630}";
},
{
name = topright;
position = "{328, 435}";
}
);
layerId = "EFBCEE35-D457-4A39-AEF6-BDFE7C5D5DD9";
paths = (
{
closed = 1;
nodes = (
"431 51 OFFCURVE",
"428 108 OFFCURVE",
"428 168 CURVE",
"409 168 LINE",
"390 39 LINE SMOOTH",
"389 23 OFFCURVE",
"381 17 OFFCURVE",
"363 17 CURVE SMOOTH",
"168 17 LINE",
"168 604 LINE SMOOTH",
"168 614 OFFCURVE",
"172 619 OFFCURVE",
"181 619 CURVE SMOOTH",
"228 619 LINE",
"228 630 LINE",
"35 630 LINE",
"35 619 LINE",
"81 619 LINE SMOOTH",
"92 619 OFFCURVE",
"96 614 OFFCURVE",
"96 604 CURVE SMOOTH",
"96 26 LINE SMOOTH",
"96 16 OFFCURVE",
"92 11 OFFCURVE",
"81 11 CURVE SMOOTH",
"35 11 LINE",
"35 0 LINE",
"326 0 LINE SMOOTH",
"376 0 OFFCURVE",
"416 -2 OFFCURVE",
"437 -9 CURVE"
);
}
);
width = 442.31566;
}
);
leftKerningGroup = H;
leftMetricsKey = H;
rightKerningGroup = L;
rightMetricsKey = "=H*.15";
unicode = 004C;
},
{
color = 4;
glyphname = M;
layers = (
{
anchors = (
{
name = bottom;
position = "{483, 0}";
},
{
name = top;
position = "{483, 630}";
}
);
guideLines = (
{
angle = 264.5077;
position = "{639, 538}";
}
);
layerId = "37751B57-50B3-4ADE-85C1-D4B223AC548E";
paths = (
{
closed = 1;
nodes = (
"232 0 LINE",
"232 45 LINE",
"185 45 LINE SMOOTH",
"177 45 OFFCURVE",
"171 51 OFFCURVE",
"171 59 CURVE SMOOTH",
"171 518 LINE",
"134 518 LINE",
"340 0 LINE",
"464 0 LINE",
"678 518 LINE",
"639 518 LINE",
"639 57 LINE SMOOTH",
"639 50 OFFCURVE",
"632 45 OFFCURVE",
"625 45 CURVE SMOOTH",
"578 45 LINE",
"578 0 LINE",
"910 0 LINE",
"910 45 LINE",
"863 45 LINE SMOOTH",
"856 45 OFFCURVE",
"849 50 OFFCURVE",
"849 57 CURVE SMOOTH",
"849 571 LINE SMOOTH",
"849 579 OFFCURVE",
"855 585 OFFCURVE",
"863 585 CURVE SMOOTH",
"910 585 LINE",
"910 630 LINE",
"648 630 LINE",
"447 141 LINE",
"499 141 LINE",
"305 630 LINE",
"40 630 LINE",
"40 585 LINE",
"87 585 LINE SMOOTH",
"94 585 OFFCURVE",
"101 580 OFFCURVE",
"101 573 CURVE SMOOTH",
"101 59 LINE SMOOTH",
"101 51 OFFCURVE",
"95 45 OFFCURVE",
"87 45 CURVE SMOOTH",
"40 45 LINE",
"40 0 LINE"
);
}
);
width = 950;
},
{
anchors = (
{
name = bottom;
position = "{351, 0}";
},
{
name = top;
position = "{351, 630}";
}
);
layerId = "AD4267C8-B72F-4114-A1A9-4AD5F5524DF4";
paths = (
{
closed = 1;
nodes = (
"171 0 LINE",
"171 11 LINE",
"124 11 LINE SMOOTH",
"116 11 OFFCURVE",
"110 17 OFFCURVE",
"110 25 CURVE SMOOTH",
"110 604 LINE",
"105 604 LINE",
"327 0 LINE",
"354 0 LINE",
"572 604 LINE",
"566 604 LINE",
"566 23 LINE SMOOTH",
"566 16 OFFCURVE",
"559 11 OFFCURVE",
"552 11 CURVE SMOOTH",
"505 11 LINE",
"505 0 LINE",
"657 0 LINE",
"657 11 LINE",
"610 11 LINE SMOOTH",
"603 11 OFFCURVE",
"596 16 OFFCURVE",
"596 23 CURVE SMOOTH",
"596 605 LINE SMOOTH",
"596 613 OFFCURVE",
"602 619 OFFCURVE",
"610 619 CURVE SMOOTH",
"657 619 LINE",
"657 630 LINE",
"567 630 LINE",
"342 15 LINE",
"353 15 LINE",
"128 630 LINE",
"33 630 LINE",
"33 619 LINE",
"80 619 LINE SMOOTH",
"87 619 OFFCURVE",
"94 614 OFFCURVE",
"94 607 CURVE SMOOTH",
"94 25 LINE SMOOTH",
"94 17 OFFCURVE",
"88 11 OFFCURVE",
"80 11 CURVE SMOOTH",
"33 11 LINE",
"33 0 LINE"
);
}
);
width = 690.10943;
},
{
anchors = (
{
name = bottom;
position = "{372, 0}";
},
{
name = top;
position = "{372, 630}";
}
);
layerId = "2498D94C-62B8-4145-8082-B94B7C94C74A";
paths = (
{
closed = 1;
nodes = (
"181 0 LINE",
"181 16 LINE",
"134 16 LINE SMOOTH",
"126 16 OFFCURVE",
"120 22 OFFCURVE",
"120 30 CURVE SMOOTH",
"120 590 LINE",
"110 590 LINE",
"329 0 LINE",
"372 0 LINE",
"589 590 LINE",
"578 590 LINE",
"578 28 LINE SMOOTH",
"578 21 OFFCURVE",
"571 16 OFFCURVE",
"564 16 CURVE SMOOTH",
"517 16 LINE",
"517 0 LINE",
"698 0 LINE",
"698 16 LINE",
"651 16 LINE SMOOTH",
"644 16 OFFCURVE",
"637 21 OFFCURVE",
"637 28 CURVE SMOOTH",
"637 600 LINE SMOOTH",
"637 608 OFFCURVE",
"643 614 OFFCURVE",
"651 614 CURVE SMOOTH",
"698 614 LINE",
"698 630 LINE",
"580 630 LINE",
"359 35 LINE",
"377 35 LINE",
"157 630 LINE",
"34 630 LINE",
"34 614 LINE",
"81 614 LINE SMOOTH",
"88 614 OFFCURVE",
"95 609 OFFCURVE",
"95 602 CURVE SMOOTH",
"95 30 LINE SMOOTH",
"95 22 OFFCURVE",
"89 16 OFFCURVE",
"81 16 CURVE SMOOTH",
"34 16 LINE",
"34 0 LINE"
);
}
);
width = 731.98069;
},
{
anchors = (
{
name = bottom;
position = "{483, 0}";
},
{
name = top;
position = "{483, 630}";
}
);
guideLines = (
{
angle = 264.5077;
position = "{639, 538}";
}
);
layerId = "E8FFAA2E-5F75-47A2-A44E-FAA52327B69E";
paths = (
{
closed = 1;
nodes = (
"182 0 LINE",
"182 11 LINE",
"135 11 LINE SMOOTH",
"127 11 OFFCURVE",
"121 17 OFFCURVE",
"121 25 CURVE SMOOTH",
"121 582 LINE",
"115 582 LINE",
"340 0 LINE",
"432 0 LINE",
"651 582 LINE",
"639 582 LINE",
"639 23 LINE SMOOTH",
"639 16 OFFCURVE",
"632 11 OFFCURVE",
"625 11 CURVE SMOOTH",
"578 11 LINE",
"578 0 LINE",
"910 0 LINE",
"910 11 LINE",
"863 11 LINE SMOOTH",
"856 11 OFFCURVE",
"849 16 OFFCURVE",
"849 23 CURVE SMOOTH",
"849 605 LINE SMOOTH",
"849 613 OFFCURVE",
"855 619 OFFCURVE",
"863 619 CURVE SMOOTH",
"910 619 LINE",
"910 630 LINE",
"648 630 LINE",
"470 158 LINE",
"488 158 LINE",
"305 630 LINE",
"40 630 LINE",
"40 619 LINE",
"87 619 LINE SMOOTH",
"94 619 OFFCURVE",
"101 614 OFFCURVE",
"101 607 CURVE SMOOTH",
"101 25 LINE SMOOTH",
"101 17 OFFCURVE",
"95 11 OFFCURVE",
"87 11 CURVE SMOOTH",
"40 11 LINE",
"40 0 LINE"
);
}
);
width = 950;
},
{
anchors = (
{
name = bottom;
position = "{398, 0}";
},
{
name = top;
position = "{398, 630}";
}
);
hints = (
{
horizontal = 1;
origin = "{0, 45}";
target = "{0, 44}";
type = Stem;
},
{
horizontal = 1;
origin = "{0, 34}";
target = "{0, 35}";
type = Stem;
},
{
origin = "{0, 40}";
target = "{0, 5}";
type = Stem;
},
{
origin = "{0, 12}";
target = "{0, 23}";
type = Stem;
}
);
layerId = "E3B85251-E3AC-4613-BF5C-C1AA05FDF004";
paths = (
{
closed = 1;
nodes = (
"193 0 LINE",
"193 23 LINE",
"146 23 LINE SMOOTH",
"138 23 OFFCURVE",
"132 29 OFFCURVE",
"132 37 CURVE SMOOTH",
"132 573 LINE",
"116 573 LINE",
"332 0 LINE",
"393 0 LINE",
"610 573 LINE",
"592 573 LINE",
"592 35 LINE SMOOTH",
"592 28 OFFCURVE",
"585 23 OFFCURVE",
"578 23 CURVE SMOOTH",
"531 23 LINE",
"531 0 LINE",
"747 0 LINE",
"747 23 LINE",
"700 23 LINE SMOOTH",
"693 23 OFFCURVE",
"686 28 OFFCURVE",
"686 35 CURVE SMOOTH",
"686 593 LINE SMOOTH",
"686 601 OFFCURVE",
"692 607 OFFCURVE",
"700 607 CURVE SMOOTH",
"747 607 LINE",
"747 630 LINE",
"596 630 LINE",
"380 60 LINE",
"405 60 LINE",
"192 630 LINE",
"35 630 LINE",
"35 607 LINE",
"82 607 LINE SMOOTH",
"89 607 OFFCURVE",
"96 602 OFFCURVE",
"96 595 CURVE SMOOTH",
"96 37 LINE SMOOTH",
"96 29 OFFCURVE",
"90 23 OFFCURVE",
"82 23 CURVE SMOOTH",
"35 23 LINE",
"35 0 LINE"
);
}
);
width = 782;
},
{
anchors = (
{
name = bottom;
position = "{382, 0}";
},
{
name = top;
position = "{382, 630}";
}
);
layerId = "EFBCEE35-D457-4A39-AEF6-BDFE7C5D5DD9";
paths = (
{
closed = 1;
nodes = (
"174 0 LINE",
"174 11 LINE",
"127 11 LINE SMOOTH",
"119 11 OFFCURVE",
"113 17 OFFCURVE",
"113 25 CURVE SMOOTH",
"113 599 LINE",
"107 599 LINE",
"330 0 LINE",
"372 0 LINE",
"590 599 LINE",
"583 599 LINE",
"583 23 LINE SMOOTH",
"583 16 OFFCURVE",
"576 11 OFFCURVE",
"569 11 CURVE SMOOTH",
"522 11 LINE",
"522 0 LINE",
"716 0 LINE",
"716 11 LINE",
"669 11 LINE SMOOTH",
"662 11 OFFCURVE",
"655 16 OFFCURVE",
"655 23 CURVE SMOOTH",
"655 605 LINE SMOOTH",
"655 613 OFFCURVE",
"661 619 OFFCURVE",
"669 619 CURVE SMOOTH",
"716 619 LINE",
"716 630 LINE",
"586 630 LINE",
"372 48 LINE",
"385 48 LINE",
"169 630 LINE",
"35 630 LINE",
"35 619 LINE",
"82 619 LINE SMOOTH",
"89 619 OFFCURVE",
"96 614 OFFCURVE",
"96 607 CURVE SMOOTH",
"96 25 LINE SMOOTH",
"96 17 OFFCURVE",
"90 11 OFFCURVE",
"82 11 CURVE SMOOTH",
"35 11 LINE",
"35 0 LINE"
);
}
);
width = 750.75056;
}
);
leftKerningGroup = M;
leftMetricsKey = H;
rightKerningGroup = M;
rightMetricsKey = H;
unicode = 004D;
},
{
color = 4;
glyphname = N;
layers = (
{
anchors = (
{
name = bottom;
position = "{363, 0}";
},
{
name = top;
position = "{363, 630}";
}
);
guideLines = (
{
angle = -65.5845;
position = "{592, 111}";
},
{
angle = -56.9837;
position = "{297, 630}";
}
);
layerId = "37751B57-50B3-4ADE-85C1-D4B223AC548E";
paths = (
{
closed = 1;
nodes = (
"232 0 LINE",
"232 46 LINE",
"175 46 LINE SMOOTH",
"167 46 OFFCURVE",
"161 52 OFFCURVE",
"161 60 CURVE SMOOTH",
"161 534 LINE",
"115 534 LINE",
"462 0 LINE",
"597 0 LINE",
"597 572 LINE SMOOTH",
"597 579 OFFCURVE",
"604 584 OFFCURVE",
"611 584 CURVE SMOOTH",
"648 584 LINE",
"648 630 LINE",
"456 630 LINE",
"456 584 LINE",
"513 584 LINE SMOOTH",
"521 584 OFFCURVE",
"527 578 OFFCURVE",
"527 570 CURVE SMOOTH",
"527 194 LINE",
"574 194 LINE",
"291 630 LINE",
"40 630 LINE",
"40 584 LINE",
"77 584 LINE SMOOTH",
"84 584 OFFCURVE",
"91 579 OFFCURVE",
"91 572 CURVE SMOOTH",
"91 60 LINE SMOOTH",
"91 52 OFFCURVE",
"85 46 OFFCURVE",
"77 46 CURVE SMOOTH",
"40 46 LINE",
"40 0 LINE"
);
}
);
width = 682;
},
{
anchors = (
{
name = bottom;
position = "{301, 0}";
},
{
name = top;
position = "{301, 630}";
}
);
layerId = "AD4267C8-B72F-4114-A1A9-4AD5F5524DF4";
paths = (
{
closed = 1;
nodes = (
"182 0 LINE",
"182 11 LINE",
"128 11 LINE SMOOTH",
"120 11 OFFCURVE",
"114 17 OFFCURVE",
"114 25 CURVE SMOOTH",
"114 619 LINE",
"107 619 LINE",
"513 0 LINE",
"521 0 LINE",
"521 605 LINE SMOOTH",
"521 613 OFFCURVE",
"528 619 OFFCURVE",
"535 619 CURVE SMOOTH",
"584 619 LINE",
"584 630 LINE",
"436 630 LINE",
"436 619 LINE",
"491 619 LINE SMOOTH",
"499 619 OFFCURVE",
"505 613 OFFCURVE",
"505 605 CURVE SMOOTH",
"505 55 LINE",
"513 55 LINE",
"136 630 LINE",
"33 630 LINE",
"33 619 LINE",
"84 619 LINE SMOOTH",
"91 619 OFFCURVE",
"98 614 OFFCURVE",
"98 607 CURVE SMOOTH",
"98 25 LINE SMOOTH",
"98 17 OFFCURVE",
"92 11 OFFCURVE",
"84 11 CURVE SMOOTH",
"33 11 LINE",
"33 0 LINE"
);
}
);
width = 612;
},
{
anchors = (
{
name = bottom;
position = "{311, 0}";
},
{
name = top;
position = "{311, 630}";
}
);
layerId = "2498D94C-62B8-4145-8082-B94B7C94C74A";
paths = (
{
closed = 1;
nodes = (
"190 0 LINE",
"190 17 LINE",
"136 17 LINE SMOOTH",
"128 17 OFFCURVE",
"122 23 OFFCURVE",
"122 31 CURVE SMOOTH",
"122 605 LINE",
"108 605 LINE",
"505 0 LINE",
"533 0 LINE",
"533 600 LINE SMOOTH",
"533 608 OFFCURVE",
"540 613 OFFCURVE",
"547 613 CURVE SMOOTH",
"594 613 LINE",
"594 630 LINE",
"439 630 LINE",
"439 613 LINE",
"495 613 LINE SMOOTH",
"503 613 OFFCURVE",
"509 607 OFFCURVE",
"509 599 CURVE SMOOTH",
"509 77 LINE",
"523 77 LINE",
"161 630 LINE",
"34 630 LINE",
"34 613 LINE",
"83 613 LINE SMOOTH",
"90 613 OFFCURVE",
"97 608 OFFCURVE",
"97 601 CURVE SMOOTH",
"97 31 LINE SMOOTH",
"97 23 OFFCURVE",
"91 17 OFFCURVE",
"83 17 CURVE SMOOTH",
"34 17 LINE",
"34 0 LINE"
);
}
);
width = 623.27778;
},
{
anchors = (
{
name = bottom;
position = "{363, 0}";
},
{
name = top;
position = "{363, 630}";
}
);
guideLines = (
{
angle = -65.5845;
position = "{592, 111}";
},
{
angle = -56.9837;
position = "{297, 630}";
}
);
layerId = "E8FFAA2E-5F75-47A2-A44E-FAA52327B69E";
paths = (
{
closed = 1;
nodes = (
"182 0 LINE",
"182 12 LINE",
"125 12 LINE SMOOTH",
"117 12 OFFCURVE",
"111 18 OFFCURVE",
"111 26 CURVE SMOOTH",
"111 602 LINE",
"101 555 LINE",
"462 0 LINE",
"597 0 LINE",
"597 606 LINE SMOOTH",
"597 613 OFFCURVE",
"604 618 OFFCURVE",
"611 618 CURVE SMOOTH",
"648 618 LINE",
"648 630 LINE",
"506 630 LINE",
"506 618 LINE",
"563 618 LINE SMOOTH",
"571 618 OFFCURVE",
"577 612 OFFCURVE",
"577 604 CURVE SMOOTH",
"577 126 LINE",
"588 173 LINE",
"291 630 LINE",
"40 630 LINE",
"40 618 LINE",
"77 618 LINE SMOOTH",
"84 618 OFFCURVE",
"91 613 OFFCURVE",
"91 606 CURVE SMOOTH",
"91 26 LINE SMOOTH",
"91 18 OFFCURVE",
"85 12 OFFCURVE",
"77 12 CURVE SMOOTH",
"40 12 LINE",
"40 0 LINE"
);
}
);
width = 682;
},
{
anchors = (
{
name = bottom;
position = "{323, 0}";
},
{
name = top;
position = "{323, 630}";
}
);
hints = (
{
horizontal = 1;
origin = "{0, 36}";
target = "{0, 35}";
type = Stem;
},
{
horizontal = 1;
origin = "{0, 25}";
target = "{0, 26}";
type = Stem;
},
{
origin = "{0, 31}";
target = "{0, 5}";
type = Stem;
},
{
origin = "{0, 22}";
target = "{0, 9}";
type = Stem;
}
);
layerId = "E3B85251-E3AC-4613-BF5C-C1AA05FDF004";
paths = (
{
closed = 1;
nodes = (
"200 0 LINE",
"200 24 LINE",
"145 24 LINE SMOOTH",
"137 24 OFFCURVE",
"131 30 OFFCURVE",
"131 38 CURVE SMOOTH",
"131 588 LINE",
"110 588 LINE",
"495 0 LINE",
"548 0 LINE",
"548 593 LINE SMOOTH",
"548 601 OFFCURVE",
"555 606 OFFCURVE",
"562 606 CURVE SMOOTH",
"607 606 LINE",
"607 630 LINE",
"443 630 LINE",
"443 606 LINE",
"499 606 LINE SMOOTH",
"507 606 OFFCURVE",
"513 600 OFFCURVE",
"513 592 CURVE SMOOTH",
"513 104 LINE",
"535 104 LINE",
"191 630 LINE",
"35 630 LINE",
"35 606 LINE",
"82 606 LINE SMOOTH",
"89 606 OFFCURVE",
"96 601 OFFCURVE",
"96 594 CURVE SMOOTH",
"96 38 LINE SMOOTH",
"96 30 OFFCURVE",
"90 24 OFFCURVE",
"82 24 CURVE SMOOTH",
"35 24 LINE",
"35 0 LINE"
);
}
);
width = 636.97963;
},
{
anchors = (
{
name = bottom;
position = "{315, 0}";
},
{
name = top;
position = "{315, 630}";
}
);
layerId = "EFBCEE35-D457-4A39-AEF6-BDFE7C5D5DD9";
paths = (
{
closed = 1;
nodes = (
"182 0 LINE",
"182 11 LINE",
"127 11 LINE SMOOTH",
"119 11 OFFCURVE",
"113 17 OFFCURVE",
"113 25 CURVE SMOOTH",
"113 615 LINE",
"106 604 LINE",
"501 0 LINE",
"539 0 LINE",
"539 605 LINE SMOOTH",
"539 613 OFFCURVE",
"546 619 OFFCURVE",
"553 619 CURVE SMOOTH",
"599 619 LINE",
"599 630 LINE",
"452 630 LINE",
"452 619 LINE",
"508 619 LINE SMOOTH",
"516 619 OFFCURVE",
"522 613 OFFCURVE",
"522 605 CURVE SMOOTH",
"522 72 LINE",
"531 83 LINE",
"172 630 LINE",
"35 630 LINE",
"35 619 LINE",
"82 619 LINE SMOOTH",
"89 619 OFFCURVE",
"96 614 OFFCURVE",
"96 607 CURVE SMOOTH",
"96 25 LINE SMOOTH",
"96 17 OFFCURVE",
"90 11 OFFCURVE",
"82 11 CURVE SMOOTH",
"35 11 LINE",
"35 0 LINE"
);
}
);
width = 629;
}
);
leftKerningGroup = H;
leftMetricsKey = H;
rightKerningGroup = N;
rightMetricsKey = "=H*.85";
unicode = 004E;
},
{
color = 3;
glyphname = Eng;
layers = (
{
components = (
{
name = N;
}
);
guideLines = (
{
angle = -69.2277;
position = "{200, -126}";
},
{
angle = -69.2278;
position = "{285, -157}";
}
);
layerId = "37751B57-50B3-4ADE-85C1-D4B223AC548E";
paths = (
{
closed = 1;
nodes = (
"505 -225 OFFCURVE",
"597 -141 OFFCURVE",
"597 -20 CURVE SMOOTH",
"597 0 LINE",
"387 293 LINE",
"387 -37 LINE SMOOTH",
"387 -113 OFFCURVE",
"350 -154 OFFCURVE",
"288 -154 CURVE SMOOTH",
"260 -154 OFFCURVE",
"240 -146 OFFCURVE",
"222 -131 CURVE",
"200 -180 LINE",
"239 -210 OFFCURVE",
"291 -225 OFFCURVE",
"355 -225 CURVE SMOOTH"
);
}
);
width = 682;
},
{
components = (
{
alignment = -1;
name = N;
}
);
layerId = "AD4267C8-B72F-4114-A1A9-4AD5F5524DF4";
paths = (
{
closed = 1;
nodes = (
"450 -229 OFFCURVE",
"521 -155 OFFCURVE",
"521 -48 CURVE SMOOTH",
"521 0 LINE",
"491 72 LINE",
"491 -51 LINE SMOOTH",
"491 -150 OFFCURVE",
"431 -217 OFFCURVE",
"341 -217 CURVE SMOOTH",
"306 -217 OFFCURVE",
"275 -205 OFFCURVE",
"252 -184 CURVE",
"249 -193 LINE",
"275 -216 OFFCURVE",
"309 -229 OFFCURVE",
"348 -229 CURVE SMOOTH"
);
}
);
width = 613.10269;
},
{
components = (
{
alignment = -1;
name = N;
}
);
layerId = "2498D94C-62B8-4145-8082-B94B7C94C74A";
paths = (
{
closed = 1;
nodes = (
"458 -228 OFFCURVE",
"533 -153 OFFCURVE",
"533 -43 CURVE SMOOTH",
"533 0 LINE",
"474 108 LINE",
"474 -44 LINE SMOOTH",
"474 -142 OFFCURVE",
"418 -207 OFFCURVE",
"332 -207 CURVE SMOOTH",
"299 -207 OFFCURVE",
"269 -195 OFFCURVE",
"247 -175 CURVE",
"241 -191 LINE",
"269 -215 OFFCURVE",
"306 -228 OFFCURVE",
"349 -228 CURVE SMOOTH"
);
}
);
width = 624.20281;
},
{
components = (
{
name = N;
}
);
guideLines = (
{
angle = -69.2277;
position = "{200, -126}";
},
{
angle = -69.2278;
position = "{285, -157}";
}
);
layerId = "E8FFAA2E-5F75-47A2-A44E-FAA52327B69E";
paths = (
{
closed = 1;
nodes = (
"501 -225 OFFCURVE",
"597 -144 OFFCURVE",
"597 -20 CURVE SMOOTH",
"597 0 LINE",
"387 293 LINE",
"387 -55 LINE SMOOTH",
"387 -139 OFFCURVE",
"345 -196 OFFCURVE",
"285 -196 CURVE SMOOTH",
"257 -196 OFFCURVE",
"226 -184 OFFCURVE",
"207 -165 CURVE",
"200 -180 LINE",
"239 -210 OFFCURVE",
"291 -225 OFFCURVE",
"355 -225 CURVE SMOOTH"
);
}
);
width = 682;
},
{
components = (
{
alignment = -1;
name = N;
}
);
layerId = "E3B85251-E3AC-4613-BF5C-C1AA05FDF004";
paths = (
{
closed = 1;
nodes = (
"468 -227 OFFCURVE",
"548 -151 OFFCURVE",
"548 -38 CURVE SMOOTH",
"548 0 LINE",
"454 151 LINE",
"454 -35 LINE SMOOTH",
"454 -133 OFFCURVE",
"402 -195 OFFCURVE",
"321 -195 CURVE SMOOTH",
"290 -195 OFFCURVE",
"262 -184 OFFCURVE",
"241 -165 CURVE",
"231 -188 LINE",
"262 -214 OFFCURVE",
"303 -227 OFFCURVE",
"351 -227 CURVE SMOOTH"
);
}
);
width = 637.68882;
},
{
components = (
{
alignment = -1;
name = N;
}
);
layerId = "EFBCEE35-D457-4A39-AEF6-BDFE7C5D5DD9";
paths = (
{
closed = 1;
nodes = (
"462 -228 OFFCURVE",
"539 -152 OFFCURVE",
"539 -41 CURVE SMOOTH",
"539 0 LINE",
"467 124 LINE",
"467 -52 LINE SMOOTH",
"467 -147 OFFCURVE",
"411 -212 OFFCURVE",
"328 -212 CURVE SMOOTH",
"295 -212 OFFCURVE",
"264 -200 OFFCURVE",
"242 -180 CURVE",
"238 -190 LINE",
"267 -215 OFFCURVE",
"305 -228 OFFCURVE",
"350 -228 CURVE SMOOTH"
);
}
);
width = 629;
}
);
leftKerningGroup = H;
rightKerningGroup = N;
unicode = 014A;
},
{
color = 4;
glyphname = O;
layers = (
{
anchors = (
{
name = bottom;
position = "{369, 0}";
},
{
name = center;
position = "{369, 315}";
},
{
name = ogonek;
position = "{458, 0}";
},
{
name = top;
position = "{369, 630}";
},
{
name = topleft;
position = "{53, 630}";
},
{
name = topright;
position = "{544, 562}";
}
);
guideLines = (
{
angle = 46.3119;
position = "{369, 315}";
}
);
layerId = "37751B57-50B3-4ADE-85C1-D4B223AC548E";
paths = (
{
closed = 1;
nodes = (
"575 -12 OFFCURVE",
"709 116 OFFCURVE",
"709 315 CURVE SMOOTH",
"709 514 OFFCURVE",
"575 642 OFFCURVE",
"368 642 CURVE SMOOTH",
"161 642 OFFCURVE",
"28 514 OFFCURVE",
"28 315 CURVE SMOOTH",
"28 116 OFFCURVE",
"161 -12 OFFCURVE",
"368 -12 CURVE SMOOTH"
);
},
{
closed = 1;
nodes = (
"293 60 OFFCURVE",
"243 162 OFFCURVE",
"243 315 CURVE SMOOTH",
"243 468 OFFCURVE",
"293 570 OFFCURVE",
"368 570 CURVE SMOOTH",
"443 570 OFFCURVE",
"494 466 OFFCURVE",
"494 315 CURVE SMOOTH",
"494 164 OFFCURVE",
"443 60 OFFCURVE",
"368 60 CURVE SMOOTH"
);
}
);
width = 737;
},
{
anchors = (
{
name = bottom;
position = "{307, 0}";
},
{
name = center;
position = "{307, 315}";
},
{
name = ogonek;
position = "{378, 0}";
},
{
name = top;
position = "{307, 630}";
},
{
name = topleft;
position = "{0, 630}";
},
{
name = topright;
position = "{393, 626}";
}
);
layerId = "AD4267C8-B72F-4114-A1A9-4AD5F5524DF4";
paths = (
{
closed = 1;
nodes = (
"469 -12 OFFCURVE",
"574 116 OFFCURVE",
"574 315 CURVE SMOOTH",
"574 514 OFFCURVE",
"469 642 OFFCURVE",
"306 642 CURVE SMOOTH",
"144 642 OFFCURVE",
"38 512 OFFCURVE",
"38 315 CURVE SMOOTH",
"38 118 OFFCURVE",
"144 -12 OFFCURVE",
"306 -12 CURVE SMOOTH"
);
},
{
closed = 1;
nodes = (
"168 0 OFFCURVE",
"72 129 OFFCURVE",
"72 315 CURVE SMOOTH",
"72 501 OFFCURVE",
"168 630 OFFCURVE",
"306 630 CURVE SMOOTH",
"444 630 OFFCURVE",
"540 501 OFFCURVE",
"540 315 CURVE SMOOTH",
"540 129 OFFCURVE",
"444 0 OFFCURVE",
"306 0 CURVE SMOOTH"
);
}
);
width = 611.52862;
},
{
anchors = (
{
name = bottom;
position = "{317, 0}";
},
{
name = center;
position = "{317, 315}";
},
{
name = ogonek;
position = "{391, 0}";
},
{
name = top;
position = "{317, 630}";
},
{
name = topleft;
position = "{9, 630}";
},
{
name = topright;
position = "{417, 616}";
}
);
layerId = "2498D94C-62B8-4145-8082-B94B7C94C74A";
paths = (
{
closed = 1;
nodes = (
"486 -12 OFFCURVE",
"596 116 OFFCURVE",
"596 315 CURVE SMOOTH",
"596 514 OFFCURVE",
"486 642 OFFCURVE",
"316 642 CURVE SMOOTH",
"147 642 OFFCURVE",
"36 512 OFFCURVE",
"36 315 CURVE SMOOTH",
"36 118 OFFCURVE",
"147 -12 OFFCURVE",
"316 -12 CURVE SMOOTH"
);
},
{
closed = 1;
nodes = (
"188 10 OFFCURVE",
"100 134 OFFCURVE",
"100 315 CURVE SMOOTH",
"100 496 OFFCURVE",
"188 620 OFFCURVE",
"316 620 CURVE SMOOTH",
"444 620 OFFCURVE",
"533 495 OFFCURVE",
"533 315 CURVE SMOOTH",
"533 135 OFFCURVE",
"444 10 OFFCURVE",
"316 10 CURVE SMOOTH"
);
}
);
width = 631.74345;
},
{
anchors = (
{
name = bottom;
position = "{369, 0}";
},
{
name = center;
position = "{369, 315}";
},
{
name = ogonek;
position = "{458, 0}";
},
{
name = top;
position = "{369, 630}";
},
{
name = topleft;
position = "{53, 630}";
},
{
name = topright;
position = "{544, 562}";
}
);
guideLines = (
{
angle = 46.3119;
position = "{369, 315}";
}
);
layerId = "E8FFAA2E-5F75-47A2-A44E-FAA52327B69E";
paths = (
{
closed = 1;
nodes = (
"575 -12 OFFCURVE",
"709 116 OFFCURVE",
"709 315 CURVE SMOOTH",
"709 514 OFFCURVE",
"575 642 OFFCURVE",
"368 642 CURVE SMOOTH",
"161 642 OFFCURVE",
"28 514 OFFCURVE",
"28 315 CURVE SMOOTH",
"28 116 OFFCURVE",
"161 -12 OFFCURVE",
"368 -12 CURVE SMOOTH"
);
},
{
closed = 1;
nodes = (
"293 -1 OFFCURVE",
"243 125 OFFCURVE",
"243 315 CURVE SMOOTH",
"243 505 OFFCURVE",
"293 631 OFFCURVE",
"368 631 CURVE SMOOTH",
"443 631 OFFCURVE",
"494 502 OFFCURVE",
"494 315 CURVE SMOOTH",
"494 128 OFFCURVE",
"443 -1 OFFCURVE",
"368 -1 CURVE SMOOTH"
);
}
);
width = 737;
},
{
anchors = (
{
name = bottom;
position = "{329, 0}";
},
{
name = center;
position = "{329, 315}";
},
{
name = ogonek;
position = "{407, 0}";
},
{
name = top;
position = "{329, 630}";
},
{
name = topleft;
position = "{19, 630}";
},
{
name = topright;
position = "{447, 603}";
}
);
hints = (
{
horizontal = 1;
origin = "{0, 11}";
target = "{1, 11}";
type = Stem;
},
{
horizontal = 1;
origin = "{0, 5}";
target = "{1, 5}";
type = Stem;
},
{
origin = "{0, 8}";
target = "{1, 2}";
type = Stem;
},
{
origin = "{1, 8}";
target = "{0, 2}";
type = Stem;
}
);
layerId = "E3B85251-E3AC-4613-BF5C-C1AA05FDF004";
paths = (
{
closed = 1;
nodes = (
"507 -12 OFFCURVE",
"622 116 OFFCURVE",
"622 315 CURVE SMOOTH",
"622 514 OFFCURVE",
"507 642 OFFCURVE",
"328 642 CURVE SMOOTH",
"150 642 OFFCURVE",
"34 512 OFFCURVE",
"34 315 CURVE SMOOTH",
"34 118 OFFCURVE",
"150 -12 OFFCURVE",
"328 -12 CURVE SMOOTH"
);
},
{
closed = 1;
nodes = (
"212 22 OFFCURVE",
"132 141 OFFCURVE",
"132 315 CURVE SMOOTH",
"132 489 OFFCURVE",
"212 608 OFFCURVE",
"328 608 CURVE SMOOTH",
"444 608 OFFCURVE",
"524 488 OFFCURVE",
"524 315 CURVE SMOOTH",
"524 142 OFFCURVE",
"444 22 OFFCURVE",
"328 22 CURVE SMOOTH"
);
}
);
width = 656.30331;
},
{
anchors = (
{
name = bottom;
position = "{321, 0}";
},
{
name = center;
position = "{321, 315}";
},
{
name = ogonek;
position = "{397, 0}";
},
{
name = top;
position = "{321, 630}";
},
{
name = topleft;
position = "{12, 630}";
},
{
name = topright;
position = "{428, 611}";
}
);
layerId = "EFBCEE35-D457-4A39-AEF6-BDFE7C5D5DD9";
paths = (
{
closed = 1;
nodes = (
"494 -12 OFFCURVE",
"605 116 OFFCURVE",
"605 315 CURVE SMOOTH",
"605 514 OFFCURVE",
"494 642 OFFCURVE",
"320 642 CURVE SMOOTH",
"148 642 OFFCURVE",
"36 512 OFFCURVE",
"36 315 CURVE SMOOTH",
"36 118 OFFCURVE",
"148 -12 OFFCURVE",
"320 -12 CURVE SMOOTH"
);
},
{
closed = 1;
nodes = (
"197 0 OFFCURVE",
"112 128 OFFCURVE",
"112 315 CURVE SMOOTH",
"112 502 OFFCURVE",
"197 630 OFFCURVE",
"320 630 CURVE SMOOTH",
"444 630 OFFCURVE",
"529 501 OFFCURVE",
"529 315 CURVE SMOOTH",
"529 129 OFFCURVE",
"444 0 OFFCURVE",
"320 0 CURVE SMOOTH"
);
}
);
width = 640.80528;
}
);
leftKerningGroup = O;
rightKerningGroup = O;
unicode = 004F;
},
{
color = 4;
glyphname = P;
layers = (
{
guideLines = (
{
angle = 135;
position = "{377, 238}";
}
);
layerId = "37751B57-50B3-4ADE-85C1-D4B223AC548E";
paths = (
{
closed = 1;
nodes = (
"311 613 LINE",
"293 575 LINE",
"339 575 LINE SMOOTH",
"430 575 OFFCURVE",
"469 529 OFFCURVE",
"469 420 CURVE SMOOTH",
"469 311 OFFCURVE",
"430 265 OFFCURVE",
"339 265 CURVE SMOOTH",
"301 265 LINE",
"302 210 LINE",
"394 210 LINE SMOOTH",
"570 210 OFFCURVE",
"674 288 OFFCURVE",
"674 420 CURVE SMOOTH",
"674 552 OFFCURVE",
"570 630 OFFCURVE",
"394 630 CURVE SMOOTH",
"40 630 LINE",
"40 585 LINE",
"87 585 LINE SMOOTH",
"94 585 OFFCURVE",
"100 580 OFFCURVE",
"101 573 CURVE",
"101 59 LINE SMOOTH",
"101 51 OFFCURVE",
"95 45 OFFCURVE",
"87 45 CURVE SMOOTH",
"40 45 LINE",
"40 0 LINE",
"392 0 LINE",
"392 45 LINE",
"325 45 LINE SMOOTH",
"317 45 OFFCURVE",
"311 51 OFFCURVE",
"311 59 CURVE SMOOTH"
);
}
);
width = 694;
},
{
layerId = "AD4267C8-B72F-4114-A1A9-4AD5F5524DF4";
paths = (
{
closed = 1;
nodes = (
"124 622 LINE",
"111 614 LINE",
"189 614 LINE SMOOTH",
"315 614 OFFCURVE",
"377 555 OFFCURVE",
"377 445 CURVE SMOOTH",
"377 336 OFFCURVE",
"315 277 OFFCURVE",
"189 277 CURVE SMOOTH",
"119 277 LINE",
"119 261 LINE",
"204 261 LINE SMOOTH",
"331 261 OFFCURVE",
"411 329 OFFCURVE",
"411 445 CURVE SMOOTH",
"411 560 OFFCURVE",
"331 630 OFFCURVE",
"204 630 CURVE SMOOTH",
"33 630 LINE",
"33 619 LINE",
"80 619 LINE SMOOTH",
"88 619 OFFCURVE",
"94 614 OFFCURVE",
"94 607 CURVE SMOOTH",
"94 25 LINE SMOOTH",
"94 17 OFFCURVE",
"88 11 OFFCURVE",
"80 11 CURVE SMOOTH",
"33 11 LINE",
"33 0 LINE",
"206 0 LINE",
"206 11 LINE",
"138 11 LINE SMOOTH",
"130 11 OFFCURVE",
"124 17 OFFCURVE",
"124 25 CURVE SMOOTH"
);
}
);
width = 427.49327;
},
{
layerId = "2498D94C-62B8-4145-8082-B94B7C94C74A";
paths = (
{
closed = 1;
nodes = (
"154 621 LINE",
"140 608 LINE",
"213 608 LINE SMOOTH",
"334 608 OFFCURVE",
"392 551 OFFCURVE",
"392 441 CURVE SMOOTH",
"392 332 OFFCURVE",
"334 275 OFFCURVE",
"213 275 CURVE SMOOTH",
"148 275 LINE",
"148 253 LINE",
"235 253 LINE SMOOTH",
"370 253 OFFCURVE",
"453 322 OFFCURVE",
"453 441 CURVE SMOOTH",
"453 559 OFFCURVE",
"370 630 OFFCURVE",
"235 630 CURVE SMOOTH",
"34 630 LINE",
"34 614 LINE",
"81 614 LINE SMOOTH",
"89 614 OFFCURVE",
"95 609 OFFCURVE",
"95 602 CURVE SMOOTH",
"95 30 LINE SMOOTH",
"95 22 OFFCURVE",
"89 16 OFFCURVE",
"81 16 CURVE SMOOTH",
"34 16 LINE",
"34 0 LINE",
"236 0 LINE",
"236 16 LINE",
"168 16 LINE SMOOTH",
"160 16 OFFCURVE",
"154 22 OFFCURVE",
"154 30 CURVE SMOOTH"
);
}
);
width = 470.43047;
},
{
guideLines = (
{
angle = 135;
position = "{377, 238}";
}
);
layerId = "E8FFAA2E-5F75-47A2-A44E-FAA52327B69E";
paths = (
{
closed = 1;
nodes = (
"311 621 LINE",
"293 609 LINE",
"339 609 LINE SMOOTH",
"430 609 OFFCURVE",
"469 555 OFFCURVE",
"469 428 CURVE SMOOTH",
"469 301 OFFCURVE",
"430 248 OFFCURVE",
"339 248 CURVE SMOOTH",
"301 248 LINE",
"302 227 LINE",
"394 227 LINE SMOOTH",
"570 227 OFFCURVE",
"674 302 OFFCURVE",
"674 428 CURVE SMOOTH",
"674 555 OFFCURVE",
"570 630 OFFCURVE",
"394 630 CURVE SMOOTH",
"40 630 LINE",
"40 619 LINE",
"87 619 LINE SMOOTH",
"94 619 OFFCURVE",
"100 614 OFFCURVE",
"101 607 CURVE",
"101 25 LINE SMOOTH",
"101 17 OFFCURVE",
"95 11 OFFCURVE",
"87 11 CURVE SMOOTH",
"40 11 LINE",
"40 0 LINE",
"392 0 LINE",
"392 11 LINE",
"325 11 LINE SMOOTH",
"317 11 OFFCURVE",
"311 17 OFFCURVE",
"311 25 CURVE SMOOTH"
);
}
);
width = 694;
},
{
hints = (
{
horizontal = 1;
origin = "{0, 29}";
target = "{0, 28}";
type = Stem;
},
{
horizontal = 1;
origin = "{0, 10}";
target = "{0, 9}";
type = Stem;
},
{
horizontal = 1;
origin = "{0, 18}";
target = "{0, 1}";
type = Stem;
},
{
horizontal = 1;
origin = "{0, 18}";
target = "{0, 19}";
type = Stem;
},
{
origin = "{0, 24}";
target = "{0, 35}";
type = Stem;
},
{
origin = "{0, 5}";
target = "{0, 14}";
type = Stem;
}
);
layerId = "E3B85251-E3AC-4613-BF5C-C1AA05FDF004";
paths = (
{
closed = 1;
nodes = (
"191 619 LINE",
"176 600 LINE",
"242 600 LINE SMOOTH",
"356 600 OFFCURVE",
"410 546 OFFCURVE",
"410 436 CURVE SMOOTH",
"410 327 OFFCURVE",
"356 273 OFFCURVE",
"242 273 CURVE SMOOTH",
"184 273 LINE",
"184 243 LINE",
"272 243 LINE SMOOTH",
"417 243 OFFCURVE",
"505 314 OFFCURVE",
"505 436 CURVE SMOOTH",
"505 557 OFFCURVE",
"417 630 OFFCURVE",
"272 630 CURVE SMOOTH",
"35 630 LINE",
"35 607 LINE",
"82 607 LINE SMOOTH",
"90 607 OFFCURVE",
"96 602 OFFCURVE",
"96 595 CURVE SMOOTH",
"96 37 LINE SMOOTH",
"96 29 OFFCURVE",
"90 23 OFFCURVE",
"82 23 CURVE SMOOTH",
"35 23 LINE",
"35 0 LINE",
"272 0 LINE",
"272 23 LINE",
"205 23 LINE SMOOTH",
"197 23 OFFCURVE",
"191 29 OFFCURVE",
"191 37 CURVE SMOOTH"
);
}
);
width = 522.59669;
},
{
layerId = "EFBCEE35-D457-4A39-AEF6-BDFE7C5D5DD9";
paths = (
{
closed = 1;
nodes = (
"168 622 LINE",
"153 613 LINE",
"224 613 LINE SMOOTH",
"342 613 OFFCURVE",
"398 555 OFFCURVE",
"398 441 CURVE SMOOTH",
"398 328 OFFCURVE",
"342 270 OFFCURVE",
"224 270 CURVE SMOOTH",
"161 270 LINE",
"162 253 LINE",
"248 253 LINE SMOOTH",
"387 253 OFFCURVE",
"472 323 OFFCURVE",
"472 441 CURVE SMOOTH",
"472 559 OFFCURVE",
"387 630 OFFCURVE",
"248 630 CURVE SMOOTH",
"35 630 LINE",
"35 619 LINE",
"82 619 LINE SMOOTH",
"89 619 OFFCURVE",
"95 614 OFFCURVE",
"96 607 CURVE SMOOTH",
"96 25 LINE SMOOTH",
"96 17 OFFCURVE",
"90 11 OFFCURVE",
"82 11 CURVE SMOOTH",
"35 11 LINE",
"35 0 LINE",
"249 0 LINE",
"249 11 LINE",
"182 11 LINE SMOOTH",
"174 11 OFFCURVE",
"168 17 OFFCURVE",
"168 25 CURVE SMOOTH"
);
}
);
width = 489.67817;
}
);
leftKerningGroup = H;
leftMetricsKey = H;
rightKerningGroup = P;
rightMetricsKey = "=H*.5";
unicode = 0050;
},
{
color = 3;
glyphname = Thorn;
layers = (
{
components = (
{
name = I;
}
);
layerId = "37751B57-50B3-4ADE-85C1-D4B223AC548E";
paths = (
{
closed = 1;
nodes = (
"293 525 LINE",
"293 470 LINE",
"339 470 LINE SMOOTH",
"430 470 OFFCURVE",
"469 424 OFFCURVE",
"469 315 CURVE SMOOTH",
"469 206 OFFCURVE",
"430 160 OFFCURVE",
"339 160 CURVE SMOOTH",
"301 160 LINE",
"302 105 LINE",
"394 105 LINE SMOOTH",
"570 105 OFFCURVE",
"674 183 OFFCURVE",
"674 315 CURVE SMOOTH",
"674 447 OFFCURVE",
"570 525 OFFCURVE",
"394 525 CURVE SMOOTH"
);
}
);
width = 694;
},
{
components = (
{
alignment = -1;
name = I;
}
);
layerId = "AD4267C8-B72F-4114-A1A9-4AD5F5524DF4";
paths = (
{
closed = 1;
nodes = (
"111 500 LINE",
"111 484 LINE",
"189 484 LINE SMOOTH",
"315 484 OFFCURVE",
"377 425 OFFCURVE",
"377 315 CURVE SMOOTH",
"377 206 OFFCURVE",
"315 147 OFFCURVE",
"189 147 CURVE SMOOTH",
"119 147 LINE",
"119 131 LINE",
"204 131 LINE SMOOTH",
"331 131 OFFCURVE",
"411 199 OFFCURVE",
"411 315 CURVE SMOOTH",
"411 430 OFFCURVE",
"331 500 OFFCURVE",
"204 500 CURVE SMOOTH"
);
}
);
width = 427;
},
{
components = (
{
alignment = -1;
name = I;
}
);
layerId = "2498D94C-62B8-4145-8082-B94B7C94C74A";
paths = (
{
closed = 1;
nodes = (
"140 504 LINE",
"140 482 LINE",
"213 482 LINE SMOOTH",
"334 482 OFFCURVE",
"392 425 OFFCURVE",
"392 315 CURVE SMOOTH",
"392 206 OFFCURVE",
"334 149 OFFCURVE",
"213 149 CURVE SMOOTH",
"148 149 LINE",
"148 127 LINE",
"235 127 LINE SMOOTH",
"370 127 OFFCURVE",
"453 196 OFFCURVE",
"453 315 CURVE SMOOTH",
"453 433 OFFCURVE",
"370 504 OFFCURVE",
"235 504 CURVE SMOOTH"
);
}
);
width = 470.01667;
},
{
components = (
{
name = I;
}
);
layerId = "E8FFAA2E-5F75-47A2-A44E-FAA52327B69E";
paths = (
{
closed = 1;
nodes = (
"293 508 LINE",
"293 487 LINE",
"339 487 LINE SMOOTH",
"430 487 OFFCURVE",
"469 436 OFFCURVE",
"469 315 CURVE SMOOTH",
"469 194 OFFCURVE",
"430 143 OFFCURVE",
"339 143 CURVE SMOOTH",
"301 143 LINE",
"302 122 LINE",
"394 122 LINE SMOOTH",
"570 122 OFFCURVE",
"674 194 OFFCURVE",
"674 315 CURVE SMOOTH",
"674 436 OFFCURVE",
"570 508 OFFCURVE",
"394 508 CURVE SMOOTH"
);
}
);
width = 694;
},
{
components = (
{
alignment = -1;
name = I;
}
);
hints = (
{
horizontal = 1;
origin = "{0, 10}";
target = "{0, 9}";
type = Stem;
},
{
horizontal = 1;
origin = "{0, 1}";
target = "{0, 0}";
type = Stem;
},
{
origin = "{0, 5}";
target = "{0, 14}";
type = Stem;
}
);
layerId = "E3B85251-E3AC-4613-BF5C-C1AA05FDF004";
paths = (
{
closed = 1;
nodes = (
"176 509 LINE",
"176 479 LINE",
"242 479 LINE SMOOTH",
"356 479 OFFCURVE",
"410 425 OFFCURVE",
"410 315 CURVE SMOOTH",
"410 206 OFFCURVE",
"356 152 OFFCURVE",
"242 152 CURVE SMOOTH",
"184 152 LINE",
"184 122 LINE",
"272 122 LINE SMOOTH",
"417 122 OFFCURVE",
"505 193 OFFCURVE",
"505 315 CURVE SMOOTH",
"505 436 OFFCURVE",
"417 509 OFFCURVE",
"272 509 CURVE SMOOTH"
);
}
);
width = 523;
},
{
components = (
{
alignment = -1;
name = I;
}
);
layerId = "EFBCEE35-D457-4A39-AEF6-BDFE7C5D5DD9";
paths = (
{
closed = 1;
nodes = (
"153 502 LINE",
"153 485 LINE",
"224 485 LINE SMOOTH",
"342 485 OFFCURVE",
"398 428 OFFCURVE",
"398 315 CURVE SMOOTH",
"398 203 OFFCURVE",
"342 146 OFFCURVE",
"224 146 CURVE SMOOTH",
"161 146 LINE",
"162 129 LINE",
"248 129 LINE SMOOTH",
"387 129 OFFCURVE",
"472 198 OFFCURVE",
"472 315 CURVE SMOOTH",
"472 431 OFFCURVE",
"387 502 OFFCURVE",
"248 502 CURVE SMOOTH"
);
}
);
width = 490;
}
);
leftKerningGroup = H;
leftMetricsKey = H;
rightKerningGroup = Thorn;
rightMetricsKey = P;
unicode = 00DE;
},
{
color = 3;
glyphname = Q;
layers = (
{
components = (
{
name = O;
}
);
layerId = "37751B57-50B3-4ADE-85C1-D4B223AC548E";
paths = (
{
closed = 1;
nodes = (
"542 -205 OFFCURVE",
"580 -157 OFFCURVE",
"580 -89 CURVE",
"355 44 LINE",
"319 9 LINE",
"380 -119 LINE SMOOTH",
"410 -181 OFFCURVE",
"440 -205 OFFCURVE",
"489 -205 CURVE SMOOTH"
);
}
);
width = 737;
},
{
components = (
{
alignment = -1;
name = O;
}
);
layerId = "AD4267C8-B72F-4114-A1A9-4AD5F5524DF4";
paths = (
{
closed = 1;
nodes = (
"435 -197 OFFCURVE",
"443 -187 OFFCURVE",
"443 -173 CURVE",
"317 -1.8 LINE",
"305 -10.2 LINE",
"395 -175 LINE SMOOTH",
"402 -188 OFFCURVE",
"410 -197 OFFCURVE",
"423 -197 CURVE SMOOTH"
);
}
);
width = 611.52862;
},
{
components = (
{
alignment = -1;
name = O;
}
);
layerId = "2498D94C-62B8-4145-8082-B94B7C94C74A";
paths = (
{
closed = 1;
nodes = (
"458.308 -199.903 OFFCURVE",
"473.489 -183.554 OFFCURVE",
"473.489 -160.198 CURVE",
"326.349 6.794 LINE",
"310 -7.219 LINE",
"394.08 -163.701 LINE SMOOTH",
"406.926 -189.393 OFFCURVE",
"417.436 -199.903 OFFCURVE",
"437.288 -199.903 CURVE SMOOTH"
);
}
);
width = 631.74345;
},
{
components = (
{
name = O;
}
);
layerId = "E8FFAA2E-5F75-47A2-A44E-FAA52327B69E";
paths = (
{
closed = 1;
nodes = (
"583 -206 OFFCURVE",
"621 -158 OFFCURVE",
"621 -90 CURVE",
"357 -2 LINE",
"350 -10 LINE",
"411 -120 LINE SMOOTH",
"441 -174 OFFCURVE",
"477 -206 OFFCURVE",
"530 -206 CURVE SMOOTH"
);
}
);
width = 737;
},
{
components = (
{
alignment = -1;
name = O;
}
);
layerId = "E3B85251-E3AC-4613-BF5C-C1AA05FDF004";
paths = (
{
closed = 1;
nodes = (
"478 -201 OFFCURVE",
"498 -177 OFFCURVE",
"498 -144 CURVE",
"333 15 LINE",
"312 -3 LINE",
"391 -153 LINE SMOOTH",
"408 -187 OFFCURVE",
"423 -201 OFFCURVE",
"449 -201 CURVE SMOOTH"
);
}
);
width = 656.30331;
},
{
components = (
{
alignment = -1;
name = O;
}
);
layerId = "EFBCEE35-D457-4A39-AEF6-BDFE7C5D5DD9";
paths = (
{
closed = 1;
nodes = (
"470 -199 OFFCURVE",
"486 -181 OFFCURVE",
"486 -156 CURVE",
"326 -2 LINE",
"316 -10 LINE",
"398 -160 LINE SMOOTH",
"412 -186 OFFCURVE",
"425 -199 OFFCURVE",
"447 -199 CURVE SMOOTH"
);
}
);
width = 640.80528;
}
);
leftKerningGroup = O;
leftMetricsKey = O;
rightKerningGroup = O;
rightMetricsKey = O;
unicode = 0051;
},
{
color = 4;
glyphname = R;
layers = (
{
anchors = (
{
name = bottom;
position = "{362, 0}";
},
{
name = top;
position = "{362, 630}";
}
);
guideLines = (
{
angle = 99.8794;
position = "{719, 123}";
}
);
layerId = "37751B57-50B3-4ADE-85C1-D4B223AC548E";
paths = (
{
closed = 1;
nodes = (
"392 0 LINE",
"392 45 LINE",
"325 45 LINE SMOOTH",
"317 45 OFFCURVE",
"311 51 OFFCURVE",
"311 59 CURVE SMOOTH",
"311 613 LINE",
"293 575 LINE",
"319 575 LINE SMOOTH",
"417 575 OFFCURVE",
"459 535 OFFCURVE",
"459 440 CURVE SMOOTH",
"459 338 OFFCURVE",
"425 305 OFFCURVE",
"319 305 CURVE SMOOTH",
"291 305 LINE",
"291 250 LINE",
"374 250 LINE SMOOTH",
"556 250 OFFCURVE",
"664 321 OFFCURVE",
"664 440 CURVE SMOOTH",
"664 559 OFFCURVE",
"556 630 OFFCURVE",
"374 630 CURVE SMOOTH",
"40 630 LINE",
"40 585 LINE",
"87 585 LINE SMOOTH",
"95 585 OFFCURVE",
"101 580 OFFCURVE",
"101 573 CURVE SMOOTH",
"101 59 LINE SMOOTH",
"101 51 OFFCURVE",
"95 45 OFFCURVE",
"87 45 CURVE SMOOTH",
"40 45 LINE",
"40 0 LINE"
);
},
{
closed = 1;
nodes = (
"673 -12 OFFCURVE",
"723 23 OFFCURVE",
"723 80 CURVE SMOOTH",
"723 91 OFFCURVE",
"721 109 OFFCURVE",
"719 123 CURVE",
"672 116 LINE",
"673 109 OFFCURVE",
"674 104 OFFCURVE",
"674 99 CURVE SMOOTH",
"674 83 OFFCURVE",
"669 73 OFFCURVE",
"660 73 CURVE SMOOTH",
"651 73 OFFCURVE",
"647 87 OFFCURVE",
"647 121 CURVE SMOOTH",
"647 250 OFFCURVE",
"577 295 OFFCURVE",
"374 295 CURVE",
"374 250 LINE",
"428 250 OFFCURVE",
"447 216 OFFCURVE",
"447 121 CURVE SMOOTH",
"447 35 OFFCURVE",
"499 -12 OFFCURVE",
"594 -12 CURVE SMOOTH"
);
}
);
width = 727;
},
{
anchors = (
{
name = bottom;
position = "{235, 0}";
},
{
name = top;
position = "{235, 630}";
}
);
layerId = "AD4267C8-B72F-4114-A1A9-4AD5F5524DF4";
paths = (
{
closed = 1;
nodes = (
"206 0 LINE",
"206 11 LINE",
"138 11 LINE SMOOTH",
"130 11 OFFCURVE",
"124 17 OFFCURVE",
"124 25 CURVE SMOOTH",
"124 622 LINE",
"111 614 LINE",
"196 614 LINE SMOOTH",
"317 614 OFFCURVE",
"379 561 OFFCURVE",
"379 459 CURVE SMOOTH",
"379 358 OFFCURVE",
"314 303 OFFCURVE",
"196 303 CURVE SMOOTH",
"122 303 LINE",
"122 287 LINE",
"210 287 LINE SMOOTH",
"331 287 OFFCURVE",
"413 356 OFFCURVE",
"413 459 CURVE SMOOTH",
"413 568 OFFCURVE",
"339 630 OFFCURVE",
"210 630 CURVE SMOOTH",
"33 630 LINE",
"33 619 LINE",
"80 619 LINE SMOOTH",
"88 619 OFFCURVE",
"94 614 OFFCURVE",
"94 607 CURVE SMOOTH",
"94 25 LINE SMOOTH",
"94 17 OFFCURVE",
"88 11 OFFCURVE",
"80 11 CURVE SMOOTH",
"33 11 LINE",
"33 0 LINE"
);
},
{
closed = 1;
nodes = (
"454 -12 OFFCURVE",
"482 16 OFFCURVE",
"482 57 CURVE SMOOTH",
"482 71 OFFCURVE",
"480 81 OFFCURVE",
"478 93 CURVE",
"467 91 LINE",
"470 80 OFFCURVE",
"471 70 OFFCURVE",
"471 59 CURVE SMOOTH",
"471 28 OFFCURVE",
"452 8 OFFCURVE",
"424 8 CURVE SMOOTH",
"397 8 OFFCURVE",
"384 29 OFFCURVE",
"384 70 CURVE SMOOTH",
"384 240 OFFCURVE",
"339 299 OFFCURVE",
"210 299 CURVE",
"210 287 LINE",
"317 287 OFFCURVE",
"354 232 OFFCURVE",
"354 70 CURVE SMOOTH",
"354 16 OFFCURVE",
"375 -12 OFFCURVE",
"412.998 -12 CURVE SMOOTH"
);
}
);
width = 485;
},
{
anchors = (
{
name = bottom;
position = "{255, 0}";
},
{
name = top;
position = "{255, 630}";
}
);
layerId = "2498D94C-62B8-4145-8082-B94B7C94C74A";
paths = (
{
closed = 1;
nodes = (
"236 0 LINE",
"236 16 LINE",
"168 16 LINE SMOOTH",
"160 16 OFFCURVE",
"154 22 OFFCURVE",
"154 30 CURVE SMOOTH",
"154 621 LINE",
"140 608 LINE",
"216 608 LINE SMOOTH",
"333 608 OFFCURVE",
"392 557 OFFCURVE",
"392 456 CURVE SMOOTH",
"392 355 OFFCURVE",
"332 303 OFFCURVE",
"216 303 CURVE SMOOTH",
"149 303 LINE",
"149 281 LINE",
"236 281 LINE SMOOTH",
"367 281 OFFCURVE",
"453 350 OFFCURVE",
"453 456 CURVE SMOOTH",
"453 567 OFFCURVE",
"374 630 OFFCURVE",
"236 630 CURVE SMOOTH",
"34 630 LINE",
"34 614 LINE",
"81 614 LINE SMOOTH",
"89 614 OFFCURVE",
"95 609 OFFCURVE",
"95 602 CURVE SMOOTH",
"95 30 LINE SMOOTH",
"95 22 OFFCURVE",
"89 16 OFFCURVE",
"81 16 CURVE SMOOTH",
"34 16 LINE",
"34 0 LINE"
);
},
{
closed = 1;
nodes = (
"489 -12 OFFCURVE",
"521 17 OFFCURVE",
"521 61 CURVE SMOOTH",
"521 74 OFFCURVE",
"519 86 OFFCURVE",
"517 98 CURVE",
"500 95 LINE",
"503 85 OFFCURVE",
"504 75 OFFCURVE",
"504 65 CURVE SMOOTH",
"504 37 OFFCURVE",
"487 18 OFFCURVE",
"462 18 CURVE SMOOTH",
"438 18 OFFCURVE",
"426 38 OFFCURVE",
"426 78 CURVE SMOOTH",
"426 242 OFFCURVE",
"377 298 OFFCURVE",
"236 298 CURVE",
"236 281 LINE",
"335 281 OFFCURVE",
"369 229 OFFCURVE",
"369 78 CURVE SMOOTH",
"369 19 OFFCURVE",
"395 -12 OFFCURVE",
"442 -12 CURVE SMOOTH"
);
}
);
width = 523.98889;
},
{
anchors = (
{
name = bottom;
position = "{362, 0}";
},
{
name = top;
position = "{362, 630}";
}
);
guideLines = (
{
angle = 99.8794;
position = "{719, 123}";
}
);
layerId = "E8FFAA2E-5F75-47A2-A44E-FAA52327B69E";
paths = (
{
closed = 1;
nodes = (
"392 0 LINE",
"392 11 LINE",
"325 11 LINE SMOOTH",
"317 11 OFFCURVE",
"311 17 OFFCURVE",
"311 25 CURVE SMOOTH",
"311 621 LINE",
"293 609 LINE",
"319 609 LINE SMOOTH",
"417 609 OFFCURVE",
"459 561 OFFCURVE",
"459 447 CURVE SMOOTH",
"459 327 OFFCURVE",
"425 288 OFFCURVE",
"319 288 CURVE SMOOTH",
"291 288 LINE",
"291 267 LINE",
"374 267 LINE SMOOTH",
"556 267 OFFCURVE",
"664 334 OFFCURVE",
"664 447 CURVE SMOOTH",
"664 562 OFFCURVE",
"556 630 OFFCURVE",
"374 630 CURVE SMOOTH",
"40 630 LINE",
"40 619 LINE",
"87 619 LINE SMOOTH",
"94 619 OFFCURVE",
"101 614 OFFCURVE",
"101 607 CURVE SMOOTH",
"101 25 LINE SMOOTH",
"101 17 OFFCURVE",
"95 11 OFFCURVE",
"87 11 CURVE SMOOTH",
"40 11 LINE",
"40 0 LINE"
);
},
{
closed = 1;
nodes = (
"682 -12 OFFCURVE",
"723 17 OFFCURVE",
"723 76 CURVE SMOOTH",
"723 89 OFFCURVE",
"721 104 OFFCURVE",
"717 120 CURVE",
"702 116 LINE",
"706 103 OFFCURVE",
"708 89 OFFCURVE",
"708 76 CURVE SMOOTH",
"708 46 OFFCURVE",
"697 28 OFFCURVE",
"678 28 CURVE SMOOTH",
"665 28 OFFCURVE",
"657 42 OFFCURVE",
"657 65 CURVE SMOOTH",
"657 252 OFFCURVE",
"614 286 OFFCURVE",
"374 286 CURVE",
"374 267 LINE",
"428 267 OFFCURVE",
"447 229 OFFCURVE",
"447 121 CURVE SMOOTH",
"447 36 OFFCURVE",
"502 -12 OFFCURVE",
"600 -12 CURVE SMOOTH"
);
}
);
width = 727;
},
{
anchors = (
{
name = bottom;
position = "{280, 0}";
},
{
name = top;
position = "{280, 630}";
}
);
hints = (
{
horizontal = 1;
origin = "{1, 25}";
target = "{1, 12}";
type = Stem;
},
{
horizontal = 1;
origin = "{0, 16}";
target = "{0, 15}";
type = Stem;
},
{
horizontal = 1;
origin = "{0, 24}";
target = "{0, 7}";
type = Stem;
},
{
horizontal = 1;
origin = "{0, 35}";
target = "{0, 34}";
type = Stem;
},
{
horizontal = 1;
origin = "{0, 24}";
target = "{0, 25}";
type = Stem;
},
{
origin = "{0, 30}";
target = "{0, 5}";
type = Stem;
},
{
origin = "{1, 22}";
target = "{1, 15}";
type = Stem;
},
{
origin = "{1, 9}";
target = "{1, 2}";
type = Stem;
},
{
origin = "{0, 11}";
target = "{0, 20}";
type = Stem;
}
);
layerId = "E3B85251-E3AC-4613-BF5C-C1AA05FDF004";
paths = (
{
closed = 1;
nodes = (
"272 0 LINE",
"272 23 LINE",
"205 23 LINE SMOOTH",
"197 23 OFFCURVE",
"191 29 OFFCURVE",
"191 37 CURVE SMOOTH",
"191 619 LINE",
"176 600 LINE",
"240 600 LINE SMOOTH",
"353 600 OFFCURVE",
"408 552 OFFCURVE",
"408 452 CURVE SMOOTH",
"408 351 OFFCURVE",
"354 303 OFFCURVE",
"240 303 CURVE SMOOTH",
"182 303 LINE",
"182 274 LINE",
"268 274 LINE SMOOTH",
"411 274 OFFCURVE",
"502 343 OFFCURVE",
"502 452 CURVE SMOOTH",
"502 565 OFFCURVE",
"416 630 OFFCURVE",
"268 630 CURVE SMOOTH",
"35 630 LINE",
"35 607 LINE",
"82 607 LINE SMOOTH",
"90 607 OFFCURVE",
"96 602 OFFCURVE",
"96 595 CURVE SMOOTH",
"96 37 LINE SMOOTH",
"96 29 OFFCURVE",
"90 23 OFFCURVE",
"82 23 CURVE SMOOTH",
"35 23 LINE",
"35 0 LINE"
);
},
{
closed = 1;
nodes = (
"532 -12 OFFCURVE",
"568 18 OFFCURVE",
"568 65 CURVE SMOOTH",
"568 78 OFFCURVE",
"566 91 OFFCURVE",
"564 104 CURVE",
"540 100 LINE",
"543 91 OFFCURVE",
"544 82 OFFCURVE",
"544 73 CURVE SMOOTH",
"544 48 OFFCURVE",
"529 31 OFFCURVE",
"508 31 CURVE SMOOTH",
"488 31 OFFCURVE",
"478 49 OFFCURVE",
"478 88 CURVE SMOOTH",
"478 244 OFFCURVE",
"424 297 OFFCURVE",
"268 297 CURVE",
"268 274 LINE",
"357 274 OFFCURVE",
"387 226 OFFCURVE",
"387 88 CURVE SMOOTH",
"387 23 OFFCURVE",
"419 -12 OFFCURVE",
"477 -12 CURVE SMOOTH"
);
}
);
width = 571.35815;
},
{
anchors = (
{
name = bottom;
position = "{265, 0}";
},
{
name = top;
position = "{265, 630}";
}
);
layerId = "EFBCEE35-D457-4A39-AEF6-BDFE7C5D5DD9";
paths = (
{
closed = 1;
nodes = (
"249 0 LINE",
"249 11 LINE",
"182 11 LINE SMOOTH",
"174 11 OFFCURVE",
"168 17 OFFCURVE",
"168 25 CURVE SMOOTH",
"168 622 LINE",
"153 613 LINE",
"225 613 LINE SMOOTH",
"340 613 OFFCURVE",
"398 561 OFFCURVE",
"398 456 CURVE SMOOTH",
"398 351 OFFCURVE",
"340 300 OFFCURVE",
"225 300 CURVE SMOOTH",
"161 300 LINE",
"161 282 LINE",
"248 282 LINE SMOOTH",
"384 282 OFFCURVE",
"472 351 OFFCURVE",
"472 456 CURVE SMOOTH",
"472 567 OFFCURVE",
"390 630 OFFCURVE",
"248 630 CURVE SMOOTH",
"35 630 LINE",
"35 619 LINE",
"82 619 LINE SMOOTH",
"89 619 OFFCURVE",
"96 614 OFFCURVE",
"96 607 CURVE SMOOTH",
"96 25 LINE SMOOTH",
"96 17 OFFCURVE",
"90 11 OFFCURVE",
"82 11 CURVE SMOOTH",
"35 11 LINE",
"35 0 LINE"
);
},
{
closed = 1;
nodes = (
"507 -12 OFFCURVE",
"538 16 OFFCURVE",
"538 61 CURVE SMOOTH",
"538 75 OFFCURVE",
"536 86 OFFCURVE",
"534 99 CURVE",
"522 97 LINE",
"525 85 OFFCURVE",
"526 74 OFFCURVE",
"526 63 CURVE SMOOTH",
"526 32 OFFCURVE",
"509 13 OFFCURVE",
"483 13 CURVE SMOOTH",
"460 13 OFFCURVE",
"448 32 OFFCURVE",
"448 69 CURVE SMOOTH",
"448 243 OFFCURVE",
"403 296 OFFCURVE",
"248 296 CURVE",
"248 282 LINE",
"343 282 OFFCURVE",
"376 231 OFFCURVE",
"376 82 CURVE SMOOTH",
"376 21 OFFCURVE",
"405 -12 OFFCURVE",
"457 -12 CURVE SMOOTH"
);
}
);
width = 541.46667;
}
);
leftKerningGroup = H;
leftMetricsKey = H;
rightKerningGroup = R;
rightMetricsKey = "=H*.1";
unicode = 0052;
},
{
color = 4;
glyphname = S;
layers = (
{
anchors = (
{
name = bottom;
position = "{305, 0}";
},
{
name = top;
position = "{305, 630}";
}
);
guideLines = (
{
angle = 18.2085;
position = "{60, 449}";
},
{
angle = 110.556;
position = "{324, -12}";
},
{
angle = -84.0194;
position = "{135, 174}";
},
{
angle = -71.565;
position = "{294, 642}";
}
);
layerId = "37751B57-50B3-4ADE-85C1-D4B223AC548E";
paths = (
{
closed = 1;
nodes = (
"465 -12 OFFCURVE",
"558 67 OFFCURVE",
"558 186 CURVE SMOOTH",
"558 261 OFFCURVE",
"517 322 OFFCURVE",
"436 364 CURVE SMOOTH",
"337 416 LINE SMOOTH",
"266 454 OFFCURVE",
"246 474 OFFCURVE",
"246 508 CURVE SMOOTH",
"246 545 OFFCURVE",
"274 570 OFFCURVE",
"316 570 CURVE SMOOTH",
"380 570 OFFCURVE",
"430 515 OFFCURVE",
"436 436 CURVE",
"514 436 LINE",
"514 636 LINE",
"456 636 LINE",
"455 622 LINE SMOOTH",
"454 609 OFFCURVE",
"447 601 OFFCURVE",
"436 601 CURVE SMOOTH",
"412 601 OFFCURVE",
"384 642 OFFCURVE",
"289 642 CURVE SMOOTH",
"156 642 OFFCURVE",
"60 563 OFFCURVE",
"60 445 CURVE SMOOTH",
"60 364 OFFCURVE",
"106 306 OFFCURVE",
"182 266 CURVE SMOOTH",
"281 214 LINE SMOOTH",
"330 188 OFFCURVE",
"372 167 OFFCURVE",
"372 122 CURVE SMOOTH",
"372 92 OFFCURVE",
"354 60 OFFCURVE",
"297 60 CURVE SMOOTH",
"228 60 OFFCURVE",
"144 101 OFFCURVE",
"135 194 CURVE",
"57 194 LINE",
"57 0 LINE",
"115 0 LINE",
"116 14 LINE SMOOTH",
"117 29 OFFCURVE",
"125 35 OFFCURVE",
"135 35 CURVE SMOOTH",
"163 35 OFFCURVE",
"215 -12 OFFCURVE",
"324 -12 CURVE SMOOTH"
);
}
);
width = 604;
},
{
anchors = (
{
name = bottom;
position = "{231, 0}";
},
{
name = top;
position = "{231, 630}";
}
);
layerId = "AD4267C8-B72F-4114-A1A9-4AD5F5524DF4";
paths = (
{
closed = 1;
nodes = (
"346 -12 OFFCURVE",
"426 55 OFFCURVE",
"426 156 CURVE SMOOTH",
"426 222 OFFCURVE",
"384 273 OFFCURVE",
"299 309 CURVE SMOOTH",
"173 361 LINE SMOOTH",
"115 385 OFFCURVE",
"85 430 OFFCURVE",
"85 494 CURVE SMOOTH",
"85 573 OFFCURVE",
"145 630 OFFCURVE",
"230 630 CURVE SMOOTH",
"319 630 OFFCURVE",
"371 574 OFFCURVE",
"381 470 CURVE",
"391 470 LINE",
"391 636 LINE",
"384 636 LINE",
"383 615 LINE SMOOTH",
"382 599 OFFCURVE",
"379 594 OFFCURVE",
"370 594 CURVE SMOOTH",
"347 594 OFFCURVE",
"316 642 OFFCURVE",
"227 642 CURVE SMOOTH",
"104 642 OFFCURVE",
"58 565 OFFCURVE",
"58 483 CURVE SMOOTH",
"58 420 OFFCURVE",
"92 363 OFFCURVE",
"168 331 CURVE SMOOTH",
"293 277 LINE SMOOTH",
"365 251 OFFCURVE",
"400 206 OFFCURVE",
"400 146 CURVE SMOOTH",
"400 69 OFFCURVE",
"346 0 OFFCURVE",
"222 0 CURVE SMOOTH",
"134 0 OFFCURVE",
"68 52 OFFCURVE",
"57 160 CURVE",
"47 160 LINE",
"47.008 0 LINE",
"54 0 LINE",
"55 14 LINE SMOOTH",
"56 29 OFFCURVE",
"62 35 OFFCURVE",
"71 35 CURVE SMOOTH",
"95 35 OFFCURVE",
"134 -12 OFFCURVE",
"225 -12 CURVE SMOOTH"
);
}
);
width = 463.73906;
},
{
anchors = (
{
name = bottom;
position = "{243, 0}";
},
{
name = top;
position = "{243, 630}";
}
);
layerId = "2498D94C-62B8-4145-8082-B94B7C94C74A";
paths = (
{
closed = 1;
nodes = (
"365 -12 OFFCURVE",
"447 57 OFFCURVE",
"447 161 CURVE SMOOTH",
"447 228 OFFCURVE",
"405 281 OFFCURVE",
"321 318 CURVE SMOOTH",
"199 370 LINE SMOOTH",
"139 396 OFFCURVE",
"111 437 OFFCURVE",
"111 496 CURVE SMOOTH",
"111 569 OFFCURVE",
"165 620 OFFCURVE",
"244 620 CURVE SMOOTH",
"329 620 OFFCURVE",
"381 564 OFFCURVE",
"390 465 CURVE",
"411 465 LINE",
"411 636 LINE",
"396 636 LINE",
"395 616 LINE SMOOTH",
"394 601 OFFCURVE",
"390 595 OFFCURVE",
"381 595 CURVE SMOOTH",
"358 595 OFFCURVE",
"326 642 OFFCURVE",
"238 642 CURVE SMOOTH",
"112 642 OFFCURVE",
"58 565 OFFCURVE",
"58 477 CURVE SMOOTH",
"58 411 OFFCURVE",
"94 354 OFFCURVE",
"170 321 CURVE SMOOTH",
"291 267 LINE SMOOTH",
"363 239 OFFCURVE",
"395 198 OFFCURVE",
"395 143 CURVE SMOOTH",
"395 73 OFFCURVE",
"347 10 OFFCURVE",
"234 10 CURVE SMOOTH",
"149 10 OFFCURVE",
"80 60 OFFCURVE",
"70 165 CURVE",
"49 165 LINE",
"49 0 LINE",
"64 0 LINE",
"65 14 LINE SMOOTH",
"66 29 OFFCURVE",
"72 35 OFFCURVE",
"81 35 CURVE SMOOTH",
"106 35 OFFCURVE",
"147 -12 OFFCURVE",
"241 -12 CURVE SMOOTH"
);
}
);
width = 486.33666;
},
{
anchors = (
{
name = bottom;
position = "{305, 0}";
},
{
name = top;
position = "{305, 630}";
}
);
guideLines = (
{
angle = 150.4463;
position = "{279, 211}";
},
{
angle = 110.556;
position = "{324, -12}";
},
{
angle = -84.0194;
position = "{135, 174}";
},
{
angle = -71.565;
position = "{294, 642}";
}
);
layerId = "E8FFAA2E-5F75-47A2-A44E-FAA52327B69E";
paths = (
{
closed = 1;
nodes = (
"463 -12 OFFCURVE",
"558 65 OFFCURVE",
"558 180 CURVE SMOOTH",
"558 256 OFFCURVE",
"517 318 OFFCURVE",
"436 364 CURVE SMOOTH",
"339 419 LINE SMOOTH",
"273 455 OFFCURVE",
"246 489 OFFCURVE",
"246 533 CURVE SMOOTH",
"246 585 OFFCURVE",
"285 621 OFFCURVE",
"341 621 CURVE SMOOTH",
"417 621 OFFCURVE",
"463 556 OFFCURVE",
"473 436 CURVE",
"514 436 LINE",
"514 636 LINE",
"480 636 LINE",
"479 622 LINE SMOOTH",
"478 608 OFFCURVE",
"472 601 OFFCURVE",
"461 601 CURVE SMOOTH",
"435 601 OFFCURVE",
"401 642 OFFCURVE",
"300 642 CURVE SMOOTH",
"157 642 OFFCURVE",
"60 561 OFFCURVE",
"60 447 CURVE SMOOTH",
"60 340 OFFCURVE",
"141 289 OFFCURVE",
"182 266 CURVE SMOOTH",
"279 211 LINE SMOOTH",
"326 185 OFFCURVE",
"372 155 OFFCURVE",
"372 98 CURVE SMOOTH",
"372 53 OFFCURVE",
"343 9 OFFCURVE",
"272 9 CURVE SMOOTH",
"193 9 OFFCURVE",
"108 64 OFFCURVE",
"98 194 CURVE",
"57 194 LINE",
"57 0 LINE",
"91 0 LINE",
"92 14 LINE SMOOTH",
"93 29 OFFCURVE",
"101 35 OFFCURVE",
"111 35 CURVE SMOOTH",
"140 35 OFFCURVE",
"206 -12 OFFCURVE",
"319 -12 CURVE SMOOTH"
);
}
);
width = 604;
},
{
anchors = (
{
name = bottom;
position = "{256, 0}";
},
{
name = top;
position = "{256, 630}";
}
);
hints = (
{
horizontal = 1;
origin = "{0, 51}";
target = "{0, 38}";
type = Stem;
},
{
horizontal = 1;
origin = "{0, 25}";
target = "{0, 12}";
type = Stem;
},
{
place = "{408.5, 25.5}";
type = Stem;
},
{
origin = "{0, 28}";
target = "{0, 9}";
type = Stem;
},
{
origin = "{0, 35}";
target = "{0, 2}";
type = Stem;
},
{
origin = "{0, 15}";
target = "{0, 16}";
type = Stem;
}
);
layerId = "E3B85251-E3AC-4613-BF5C-C1AA05FDF004";
paths = (
{
closed = 1;
nodes = (
"387 -12 OFFCURVE",
"472 59 OFFCURVE",
"472 167 CURVE SMOOTH",
"472 236 OFFCURVE",
"430 291 OFFCURVE",
"347 329 CURVE SMOOTH",
"230 381 LINE SMOOTH",
"168 410 OFFCURVE",
"142 446 OFFCURVE",
"142 499 CURVE SMOOTH",
"142 563 OFFCURVE",
"189 608 OFFCURVE",
"260 608 CURVE SMOOTH",
"340 608 OFFCURVE",
"391 553 OFFCURVE",
"400 458 CURVE",
"434 458 LINE",
"434 636 LINE",
"409 636 LINE",
"408 617 LINE SMOOTH",
"407 603 OFFCURVE",
"402 596 OFFCURVE",
"393 596 CURVE SMOOTH",
"370 596 OFFCURVE",
"339 642 OFFCURVE",
"249 642 CURVE SMOOTH",
"121 642 OFFCURVE",
"57 565 OFFCURVE",
"57 470 CURVE SMOOTH",
"57 400 OFFCURVE",
"96 343 OFFCURVE",
"172 308 CURVE SMOOTH",
"288 255 LINE SMOOTH",
"354 227 OFFCURVE",
"389 191 OFFCURVE",
"389 138 CURVE SMOOTH",
"389 77 OFFCURVE",
"348 22 OFFCURVE",
"248 22 CURVE SMOOTH",
"166 22 OFFCURVE",
"94 70 OFFCURVE",
"84 172 CURVE",
"50 172 LINE",
"50 0 LINE",
"75 0 LINE",
"76 14 LINE SMOOTH",
"77 29 OFFCURVE",
"83 35 OFFCURVE",
"93 35 CURVE SMOOTH",
"118 35 OFFCURVE",
"162 -12 OFFCURVE",
"259 -12 CURVE SMOOTH"
);
}
);
width = 512;
},
{
anchors = (
{
name = bottom;
position = "{249, 0}";
},
{
name = top;
position = "{249, 630}";
}
);
layerId = "EFBCEE35-D457-4A39-AEF6-BDFE7C5D5DD9";
paths = (
{
closed = 1;
nodes = (
"374 -12 OFFCURVE",
"458 57 OFFCURVE",
"458 162 CURVE SMOOTH",
"458 230 OFFCURVE",
"416 284 OFFCURVE",
"332 322 CURVE SMOOTH",
"213 375 LINE SMOOTH",
"153 401 OFFCURVE",
"124 444 OFFCURVE",
"124 503 CURVE SMOOTH",
"124 576 OFFCURVE",
"179 628 OFFCURVE",
"257 628 CURVE SMOOTH",
"343 628 OFFCURVE",
"393 570 OFFCURVE",
"403 462 CURVE",
"421 462 LINE",
"421 636 LINE",
"407 636 LINE",
"406 617 LINE SMOOTH",
"405 601 OFFCURVE",
"402 596 OFFCURVE",
"392 596 CURVE SMOOTH",
"369 596 OFFCURVE",
"337 642 OFFCURVE",
"245 642 CURVE SMOOTH",
"117 642 OFFCURVE",
"59 564 OFFCURVE",
"59 475 CURVE SMOOTH",
"59 401 OFFCURVE",
"104 346 OFFCURVE",
"172 316 CURVE SMOOTH",
"291 262 LINE SMOOTH",
"357 236 OFFCURVE",
"394 194 OFFCURVE",
"394 135 CURVE SMOOTH",
"394 65 OFFCURVE",
"346 2 OFFCURVE",
"235 2 CURVE SMOOTH",
"149 2 OFFCURVE",
"78 55 OFFCURVE",
"68 168 CURVE",
"50 168 LINE",
"50 0 LINE",
"64 0 LINE",
"65 14 LINE SMOOTH",
"66 29 OFFCURVE",
"72 35 OFFCURVE",
"81 35 CURVE SMOOTH",
"107 35 OFFCURVE",
"152 -12 OFFCURVE",
"248 -12 CURVE SMOOTH"
);
}
);
width = 498;
}
);
leftKerningGroup = S;
leftMetricsKey = "=H*1.43";
rightKerningGroup = S;
rightMetricsKey = "=H*1.15";
unicode = 0053;
},
{
color = 4;
glyphname = Germandbls;
layers = (
{
background = {
paths = (
{
closed = 1;
nodes = (
"600 589 OFFCURVE",
"525 642 OFFCURVE",
"401 642 CURVE SMOOTH",
"221 642 OFFCURVE",
"84 561 OFFCURVE",
"84 420 CURVE",
"30 420 LINE",
"30 375 LINE",
"68 375 LINE SMOOTH",
"77 375 OFFCURVE",
"83 369 OFFCURVE",
"83 362 CURVE SMOOTH",
"83 58 LINE SMOOTH",
"83 51 OFFCURVE",
"76 45 OFFCURVE",
"68 45 CURVE SMOOTH",
"30 45 LINE",
"30 0 LINE",
"293 0 LINE",
"293 465 LINE SMOOTH",
"293 535 OFFCURVE",
"321 578 OFFCURVE",
"399 578 CURVE SMOOTH",
"450 578 OFFCURVE",
"487 542 OFFCURVE",
"487 491 CURVE",
"330 306 LINE",
"330 274 OFFCURVE",
"359 224 OFFCURVE",
"413 189 CURVE SMOOTH",
"501 128 LINE SMOOTH",
"526 105 OFFCURVE",
"547 102 OFFCURVE",
"547 79 CURVE SMOOTH",
"547 55 OFFCURVE",
"522 39 OFFCURVE",
"485 39 CURVE SMOOTH",
"449 39 OFFCURVE",
"423 58 OFFCURVE",
"419 92 CURVE SMOOTH",
"414 133 LINE",
"330 133 LINE",
"330 95 OFFCURVE",
"326 54 OFFCURVE",
"317 15 CURVE",
"379 -2 OFFCURVE",
"443 -12 OFFCURVE",
"495 -12 CURVE SMOOTH",
"634 -12 OFFCURVE",
"726 50 OFFCURVE",
"726 143 CURVE SMOOTH",
"726 225 OFFCURVE",
"678 249 OFFCURVE",
"622 291 CURVE SMOOTH",
"539 348 LINE SMOOTH",
"517 360 OFFCURVE",
"510 375 OFFCURVE",
"510 398 CURVE",
"600 503 LINE"
);
}
);
};
guideLines = (
{
angle = 226.4232;
position = "{510, 398}";
}
);
layerId = "37751B57-50B3-4ADE-85C1-D4B223AC548E";
paths = (
{
closed = 1;
nodes = (
"634 -12 OFFCURVE",
"726 50 OFFCURVE",
"726 143 CURVE SMOOTH",
"726 306 OFFCURVE",
"514 285 OFFCURVE",
"514 398 CURVE",
"604 493 LINE",
"604 585 OFFCURVE",
"515 642 OFFCURVE",
"371 642 CURVE SMOOTH",
"209 642 OFFCURVE",
"84 561 OFFCURVE",
"84 420 CURVE",
"30 420 LINE",
"30 375 LINE",
"68 375 LINE SMOOTH",
"77 375 OFFCURVE",
"83 369 OFFCURVE",
"83 362 CURVE SMOOTH",
"83 58 LINE SMOOTH",
"83 51 OFFCURVE",
"76 45 OFFCURVE",
"68 45 CURVE SMOOTH",
"30 45 LINE",
"30 0 LINE",
"293 0 LINE",
"293 445 LINE SMOOTH",
"293 527 OFFCURVE",
"318 578 OFFCURVE",
"389 578 CURVE SMOOTH",
"446 578 OFFCURVE",
"487 534 OFFCURVE",
"487 471 CURVE",
"350 327 LINE",
"350 149 OFFCURVE",
"547 154 OFFCURVE",
"547 83 CURVE SMOOTH",
"547 55 OFFCURVE",
"522 39 OFFCURVE",
"485 39 CURVE SMOOTH",
"449 39 OFFCURVE",
"423 58 OFFCURVE",
"419 92 CURVE SMOOTH",
"414 133 LINE",
"330 133 LINE",
"330 95 OFFCURVE",
"326 54 OFFCURVE",
"317 15 CURVE",
"379 -2 OFFCURVE",
"443 -12 OFFCURVE",
"495 -12 CURVE SMOOTH"
);
}
);
width = 737;
},
{
background = {
paths = (
{
closed = 1;
nodes = (
"430 598 OFFCURVE",
"376 642 OFFCURVE",
"290 642 CURVE SMOOTH",
"177 642 OFFCURVE",
"125 572 OFFCURVE",
"125 420 CURVE",
"50 420 LINE",
"50 409 LINE",
"108 409 LINE SMOOTH",
"117 409 OFFCURVE",
"124 403 OFFCURVE",
"124 396 CURVE SMOOTH",
"124 24 LINE SMOOTH",
"124 17 OFFCURVE",
"117 11 OFFCURVE",
"108 11 CURVE SMOOTH",
"50 11 LINE",
"50 0 LINE",
"154 0 LINE",
"154 499 LINE SMOOTH",
"154 578 OFFCURVE",
"206 629 OFFCURVE",
"286 629 CURVE SMOOTH",
"359 629 OFFCURVE",
"403 587 OFFCURVE",
"403 518 CURVE",
"283 348 LINE",
"283 296 OFFCURVE",
"317 269 OFFCURVE",
"357 246 CURVE SMOOTH",
"455 188 LINE SMOOTH",
"493 166 OFFCURVE",
"524 146 OFFCURVE",
"524 98 CURVE SMOOTH",
"524 43 OFFCURVE",
"476 0 OFFCURVE",
"390 0 CURVE SMOOTH",
"323 0 OFFCURVE",
"272 26 OFFCURVE",
"264 83 CURVE SMOOTH",
"260 112 LINE",
"253 112 LINE",
"253 88 OFFCURVE",
"252 73 OFFCURVE",
"249 15 CURVE",
"288 -2 OFFCURVE",
"348 -12 OFFCURVE",
"393 -12 CURVE SMOOTH",
"491 -12 OFFCURVE",
"548 40 OFFCURVE",
"548 108 CURVE SMOOTH",
"548 167 OFFCURVE",
"511 192 OFFCURVE",
"469 217 CURVE SMOOTH",
"372 274 LINE SMOOTH",
"342 292 OFFCURVE",
"302 314 OFFCURVE",
"302 348 CURVE",
"430 529 LINE"
);
}
);
};
guideLines = (
{
angle = 54.7327;
position = "{283, 348}";
}
);
layerId = "AD4267C8-B72F-4114-A1A9-4AD5F5524DF4";
paths = (
{
closed = 1;
nodes = (
"491 -12 OFFCURVE",
"548 40 OFFCURVE",
"548 108 CURVE SMOOTH",
"548 231 OFFCURVE",
"302 261 OFFCURVE",
"302 348 CURVE",
"430 529 LINE",
"430 598 OFFCURVE",
"376 642 OFFCURVE",
"290 642 CURVE SMOOTH",
"177 642 OFFCURVE",
"125 572 OFFCURVE",
"125 420 CURVE",
"50 420 LINE",
"50 409 LINE",
"108 409 LINE SMOOTH",
"117 409 OFFCURVE",
"124 403 OFFCURVE",
"124 396 CURVE SMOOTH",
"124 24 LINE SMOOTH",
"124 17 OFFCURVE",
"117 11 OFFCURVE",
"108 11 CURVE SMOOTH",
"50 11 LINE",
"50 0 LINE",
"154 0 LINE",
"154 499 LINE SMOOTH",
"154 578 OFFCURVE",
"206 629 OFFCURVE",
"286 629 CURVE SMOOTH",
"359 629 OFFCURVE",
"403 587 OFFCURVE",
"403 518 CURVE",
"283 348 LINE",
"283 223 OFFCURVE",
"524 214 OFFCURVE",
"524 98 CURVE SMOOTH",
"524 43 OFFCURVE",
"476 0 OFFCURVE",
"390 0 CURVE SMOOTH",
"323 0 OFFCURVE",
"272 26 OFFCURVE",
"264 83 CURVE SMOOTH",
"260 112 LINE",
"253 112 LINE",
"253 88 OFFCURVE",
"252 73 OFFCURVE",
"249 15 CURVE",
"288 -2 OFFCURVE",
"348 -12 OFFCURVE",
"393 -12 CURVE SMOOTH"
);
}
);
width = 576;
},
{
layerId = "2498D94C-62B8-4145-8082-B94B7C94C74A";
paths = (
{
closed = 1;
nodes = (
"514 -12 OFFCURVE",
"577 42 OFFCURVE",
"577 114 CURVE SMOOTH",
"577 243 OFFCURVE",
"336 265 OFFCURVE",
"336 356 CURVE",
"458 523 LINE",
"458 596 OFFCURVE",
"398 642 OFFCURVE",
"303 642 CURVE SMOOTH",
"182 642 OFFCURVE",
"118 570 OFFCURVE",
"118 420 CURVE",
"47 420 LINE",
"47 404 LINE",
"102 404 LINE SMOOTH",
"111 404 OFFCURVE",
"117 398 OFFCURVE",
"117 391 CURVE SMOOTH",
"117 29 LINE SMOOTH",
"117 22 OFFCURVE",
"110 16 OFFCURVE",
"102 16 CURVE SMOOTH",
"47 16 LINE",
"47 0 LINE",
"176 0 LINE",
"176 490 LINE SMOOTH",
"176 570 OFFCURVE",
"224 621 OFFCURVE",
"303 621 CURVE SMOOTH",
"373 621 OFFCURVE",
"417 578 OFFCURVE",
"417 510 CURVE",
"294 345 LINE",
"294 211 OFFCURVE",
"528 204 OFFCURVE",
"528 96 CURVE SMOOTH",
"528 45 OFFCURVE",
"483 6 OFFCURVE",
"405 6 CURVE SMOOTH",
"343 6 OFFCURVE",
"296 31 OFFCURVE",
"289 84 CURVE SMOOTH",
"285 115 LINE",
"265 115 LINE",
"265 89 OFFCURVE",
"264 70 OFFCURVE",
"260 15 CURVE",
"303 -2 OFFCURVE",
"363 -12 OFFCURVE",
"409 -12 CURVE SMOOTH"
);
}
);
width = 601.93889;
},
{
background = {
paths = (
{
closed = 1;
nodes = (
"602 585 OFFCURVE",
"513 642 OFFCURVE",
"369 642 CURVE SMOOTH",
"207 642 OFFCURVE",
"82 561 OFFCURVE",
"82 420 CURVE",
"28 420 LINE",
"28 375 LINE",
"66 375 LINE SMOOTH",
"75 375 OFFCURVE",
"81 369 OFFCURVE",
"81 362 CURVE SMOOTH",
"81 58 LINE SMOOTH",
"81 51 OFFCURVE",
"74 45 OFFCURVE",
"66 45 CURVE SMOOTH",
"28 45 LINE",
"28 0 LINE",
"291 0 LINE",
"291 445 LINE SMOOTH",
"291 527 OFFCURVE",
"316 578 OFFCURVE",
"387 578 CURVE SMOOTH",
"444 578 OFFCURVE",
"485 534 OFFCURVE",
"485 471 CURVE",
"348 327 LINE",
"348 149 OFFCURVE",
"545 154 OFFCURVE",
"545 83 CURVE SMOOTH",
"545 55 OFFCURVE",
"520 39 OFFCURVE",
"483 39 CURVE SMOOTH",
"447 39 OFFCURVE",
"421 58 OFFCURVE",
"417 92 CURVE SMOOTH",
"412 133 LINE",
"328 133 LINE",
"328 95 OFFCURVE",
"324 54 OFFCURVE",
"315 15 CURVE",
"377 -2 OFFCURVE",
"441 -12 OFFCURVE",
"493 -12 CURVE SMOOTH",
"632 -12 OFFCURVE",
"724 50 OFFCURVE",
"724 143 CURVE SMOOTH",
"724 306 OFFCURVE",
"512 285 OFFCURVE",
"512 398 CURVE",
"602 493 LINE"
);
}
);
};
guideLines = (
{
angle = 33.8401;
position = "{505, 431}";
}
);
layerId = "E8FFAA2E-5F75-47A2-A44E-FAA52327B69E";
paths = (
{
closed = 1;
nodes = (
"629 -12 OFFCURVE",
"724 46 OFFCURVE",
"724 143 CURVE SMOOTH",
"724 316 OFFCURVE",
"514 293 OFFCURVE",
"514 414 CURVE",
"602 473 LINE",
"602 577 OFFCURVE",
"513 642 OFFCURVE",
"394 641 CURVE SMOOTH",
"219 641 OFFCURVE",
"103 565 OFFCURVE",
"82 432 CURVE",
"30 432 LINE",
"30 421 LINE",
"67 421 LINE SMOOTH",
"75 421 OFFCURVE",
"81 415 OFFCURVE",
"81 407 CURVE SMOOTH",
"81 25 LINE SMOOTH",
"81 17 OFFCURVE",
"75 11 OFFCURVE",
"67 11 CURVE SMOOTH",
"30 11 LINE",
"30 0 LINE",
"291 0 LINE",
"291 504 LINE SMOOTH",
"291 562 OFFCURVE",
"314 630 OFFCURVE",
"393 630 CURVE SMOOTH",
"456 630 OFFCURVE",
"505 563 OFFCURVE",
"505 431 CURVE",
"348 326 LINE",
"348 149 OFFCURVE",
"545 153 OFFCURVE",
"547 59 CURVE SMOOTH",
"547 22 OFFCURVE",
"518 -1 OFFCURVE",
"473 -1 CURVE SMOOTH",
"429 -1 OFFCURVE",
"401 23 OFFCURVE",
"389 74 CURVE SMOOTH",
"374 136 LINE",
"326 136 LINE",
"326 85 OFFCURVE",
"322 45 OFFCURVE",
"313 15 CURVE",
"375 -2 OFFCURVE",
"438 -12 OFFCURVE",
"492 -12 CURVE SMOOTH"
);
}
);
width = 735;
},
{
hints = (
{
horizontal = 1;
origin = "{0, 50}";
target = "{0, 39}";
type = Stem;
},
{
horizontal = 1;
origin = "{0, 14}";
target = "{0, 13}";
type = Stem;
},
{
horizontal = 1;
origin = "{0, 9}";
target = "{0, 29}";
type = Stem;
},
{
horizontal = 1;
origin = "{0, 24}";
target = "{0, 23}";
type = Stem;
},
{
origin = "{0, 12}";
target = "{0, 25}";
type = Stem;
},
{
origin = "{0, 33}";
target = "{0, 5}";
type = Stem;
},
{
origin = "{0, 32}";
target = "{0, 6}";
type = Stem;
},
{
origin = "{0, 36}";
target = "{0, 2}";
type = Stem;
},
{
origin = "{0, 19}";
target = "{0, 25}";
type = Stem;
},
{
place = "{280, 37}";
type = Stem;
}
);
layerId = "E3B85251-E3AC-4613-BF5C-C1AA05FDF004";
paths = (
{
closed = 1;
nodes = (
"542 -12 OFFCURVE",
"612 44 OFFCURVE",
"612 121 CURVE SMOOTH",
"612 258 OFFCURVE",
"378 270 OFFCURVE",
"378 366 CURVE",
"492 516 LINE",
"492 593 OFFCURVE",
"425 642 OFFCURVE",
"319 642 CURVE SMOOTH",
"188 642 OFFCURVE",
"110 568 OFFCURVE",
"110 420 CURVE",
"43 420 LINE",
"43 397 LINE",
"94 397 LINE SMOOTH",
"103 397 OFFCURVE",
"109 391 OFFCURVE",
"109 384 CURVE SMOOTH",
"109 36 LINE SMOOTH",
"109 29 OFFCURVE",
"102 23 OFFCURVE",
"94 23 CURVE SMOOTH",
"43 23 LINE",
"43 0 LINE",
"203 0 LINE",
"203 479 LINE SMOOTH",
"203 560 OFFCURVE",
"246 611 OFFCURVE",
"323 611 CURVE SMOOTH",
"390 611 OFFCURVE",
"433 568 OFFCURVE",
"433 501 CURVE",
"307 341 LINE",
"307 197 OFFCURVE",
"532 192 OFFCURVE",
"532 93 CURVE SMOOTH",
"532 47 OFFCURVE",
"492 14 OFFCURVE",
"424 14 CURVE SMOOTH",
"368 14 OFFCURVE",
"326 37 OFFCURVE",
"319 86 CURVE SMOOTH",
"315 119 LINE",
"280 119 LINE",
"280 90 OFFCURVE",
"278 66 OFFCURVE",
"273 15 CURVE",
"321 -2 OFFCURVE",
"382 -12 OFFCURVE",
"429 -12 CURVE SMOOTH"
);
}
);
width = 634;
},
{
layerId = "EFBCEE35-D457-4A39-AEF6-BDFE7C5D5DD9";
paths = (
{
closed = 1;
nodes = (
"523 -12 OFFCURVE",
"589 41 OFFCURVE",
"589 116 CURVE SMOOTH",
"589 251 OFFCURVE",
"351 268 OFFCURVE",
"351 363 CURVE",
"470 516 LINE",
"470 593 OFFCURVE",
"408 642 OFFCURVE",
"314 642 CURVE SMOOTH",
"187 642 OFFCURVE",
"120 570 OFFCURVE",
"115 423 CURVE",
"45 423 LINE",
"45 412 LINE",
"98 412 LINE SMOOTH",
"107 412 OFFCURVE",
"114 406 OFFCURVE",
"114 399 CURVE SMOOTH",
"114 24 LINE SMOOTH",
"114 17 OFFCURVE",
"107 11 OFFCURVE",
"98 11 CURVE SMOOTH",
"45 11 LINE",
"45 0 LINE",
"186 0 LINE",
"186 500 LINE SMOOTH",
"186 574 OFFCURVE",
"231 629 OFFCURVE",
"311 629 CURVE SMOOTH",
"382 629 OFFCURVE",
"427 581 OFFCURVE",
"427 498 CURVE",
"298 343 LINE",
"298 206 OFFCURVE",
"529 200 OFFCURVE",
"529 89 CURVE SMOOTH",
"529 38 OFFCURVE",
"486 0 OFFCURVE",
"409 0 CURVE SMOOTH",
"348 0 OFFCURVE",
"302 25 OFFCURVE",
"293 81 CURVE SMOOTH",
"287 118 LINE",
"270 118 LINE",
"270 87 OFFCURVE",
"268 66 OFFCURVE",
"264 15 CURVE",
"308 -2 OFFCURVE",
"369 -12 OFFCURVE",
"416 -12 CURVE SMOOTH"
);
}
);
width = 613.1;
}
);
leftKerningGroup = Germandbls;
leftMetricsKey = f;
rightKerningGroup = Germandbls;
rightMetricsKey = "=n*.7";
unicode = 1E9E;
},
{
color = 4;
glyphname = Schwa;
layers = (
{
layerId = "37751B57-50B3-4ADE-85C1-D4B223AC548E";
paths = (
{
closed = 1;
nodes = (
"175 642 OFFCURVE",
"75 575 OFFCURVE",
"28 443 CURVE",
"76 428 LINE",
"107 518 OFFCURVE",
"172 570 OFFCURVE",
"254 570 CURVE SMOOTH",
"365 570 OFFCURVE",
"424 475 OFFCURVE",
"424 299 CURVE SMOOTH",
"424 154 OFFCURVE",
"380 58 OFFCURVE",
"314 58 CURVE SMOOTH",
"267 58 OFFCURVE",
"238 111 OFFCURVE",
"238 199 CURVE SMOOTH",
"238 233 OFFCURVE",
"243 278 OFFCURVE",
"250 312 CURVE",
"171 277 LINE",
"462 277 LINE",
"463 329 LINE",
"37 329 LINE",
"34 305 OFFCURVE",
"32 277 OFFCURVE",
"32 256 CURVE SMOOTH",
"32 85 OFFCURVE",
"133 -12 OFFCURVE",
"309 -12 CURVE SMOOTH",
"514 -12 OFFCURVE",
"655 122 OFFCURVE",
"655 317 CURVE SMOOTH",
"655 512 OFFCURVE",
"523 642 OFFCURVE",
"327 642 CURVE SMOOTH"
);
}
);
userData = {
RMXScaler = {
height = 143.4;
verticalShift = 5;
width = 140;
};
};
width = 683;
},
{
layerId = "AD4267C8-B72F-4114-A1A9-4AD5F5524DF4";
paths = (
{
closed = 1;
nodes = (
"145 642 OFFCURVE",
"51 563 OFFCURVE",
"38 463 CURVE",
"49 460 LINE",
"66 561 OFFCURVE",
"148 628 OFFCURVE",
"255 628 CURVE SMOOTH",
"397 628 OFFCURVE",
"480 511 OFFCURVE",
"480 311 CURVE SMOOTH",
"480 119 OFFCURVE",
"389 4 OFFCURVE",
"239 4 CURVE SMOOTH",
"129 4 OFFCURVE",
"67 75 OFFCURVE",
"67 201 CURVE SMOOTH",
"67 233 OFFCURVE",
"70 256 OFFCURVE",
"76 282 CURVE",
"58 275 LINE",
"504 275 LINE",
"504 293 LINE",
"44 293 LINE",
"40 275 OFFCURVE",
"39 260 OFFCURVE",
"39 238 CURVE SMOOTH",
"39 79 OFFCURVE",
"111 -12 OFFCURVE",
"236 -12 CURVE SMOOTH",
"403 -12 OFFCURVE",
"516 120 OFFCURVE",
"516 317 CURVE SMOOTH",
"516 511 OFFCURVE",
"409 642 OFFCURVE",
"252 642 CURVE SMOOTH"
);
}
);
userData = {
RMXScaler = {
height = 143.4;
verticalShift = 5;
width = 150;
};
};
width = 554;
},
{
layerId = "2498D94C-62B8-4145-8082-B94B7C94C74A";
paths = (
{
closed = 1;
nodes = (
"151 642 OFFCURVE",
"57 567 OFFCURVE",
"36 458 CURVE",
"54 453 LINE",
"73 551 OFFCURVE",
"151 617 OFFCURVE",
"250 617 CURVE SMOOTH",
"383 617 OFFCURVE",
"459 505 OFFCURVE",
"459 310 CURVE SMOOTH",
"459 126 OFFCURVE",
"381 14 OFFCURVE",
"252 14 CURVE SMOOTH",
"158 14 OFFCURVE",
"105 80 OFFCURVE",
"105 199 CURVE SMOOTH",
"105 231 OFFCURVE",
"108 260 OFFCURVE",
"113 289 CURVE",
"85 277 LINE",
"487 277 LINE",
"487 300 LINE",
"41 300 LINE",
"38 283 OFFCURVE",
"37 267 OFFCURVE",
"37 243 CURVE SMOOTH",
"37 81 OFFCURVE",
"114 -12 OFFCURVE",
"249 -12 CURVE SMOOTH",
"422 -12 OFFCURVE",
"540 121 OFFCURVE",
"540 317 CURVE SMOOTH",
"540 511 OFFCURVE",
"429 642 OFFCURVE",
"265 642 CURVE SMOOTH"
);
}
);
userData = {
RMXScaler = {
height = 143.4;
verticalShift = 5;
width = 145;
};
};
width = 576;
},
{
layerId = "E8FFAA2E-5F75-47A2-A44E-FAA52327B69E";
paths = (
{
closed = 1;
nodes = (
"172 642 OFFCURVE",
"72 575 OFFCURVE",
"28 445 CURVE",
"46 439 LINE",
"81 547 OFFCURVE",
"154 607 OFFCURVE",
"249 607 CURVE SMOOTH",
"365 607 OFFCURVE",
"425 500 OFFCURVE",
"425 294 CURVE SMOOTH",
"425 121 OFFCURVE",
"376 4 OFFCURVE",
"303 4 CURVE SMOOTH",
"247 4 OFFCURVE",
"214 67 OFFCURVE",
"214 173 CURVE SMOOTH",
"214 210 OFFCURVE",
"220 269 OFFCURVE",
"227 308 CURVE",
"180 301 LINE",
"461 301 LINE",
"462 317 LINE",
"36 317 LINE",
"33 292 OFFCURVE",
"31 268 OFFCURVE",
"31 254 CURVE SMOOTH",
"31 85 OFFCURVE",
"130 -12 OFFCURVE",
"302 -12 CURVE SMOOTH",
"504 -12 OFFCURVE",
"642 122 OFFCURVE",
"642 317 CURVE SMOOTH",
"642 511 OFFCURVE",
"513 642 OFFCURVE",
"320 642 CURVE SMOOTH"
);
}
);
userData = {
RMXScaler = {
height = 143.4;
verticalShift = 5;
width = 140;
};
};
width = 670;
},
{
hints = (
{
horizontal = 1;
origin = "{0, 28}";
target = "{0, 12}";
type = Stem;
},
{
horizontal = 1;
origin = "{0, 19}";
target = "{0, 22}";
type = Stem;
},
{
horizontal = 1;
origin = "{0, 34}";
target = "{0, 6}";
type = Stem;
},
{
origin = "{0, 25}";
target = "{0, 15}";
type = Stem;
},
{
origin = "{0, 9}";
target = "{0, 31}";
type = Stem;
},
{
place = "{450, 117}";
type = Stem;
}
);
layerId = "E3B85251-E3AC-4613-BF5C-C1AA05FDF004";
paths = (
{
closed = 1;
nodes = (
"157 642 OFFCURVE",
"61 569 OFFCURVE",
"34 455 CURVE",
"59 447 LINE",
"81 543 OFFCURVE",
"156 606 OFFCURVE",
"251 606 CURVE SMOOTH",
"379 606 OFFCURVE",
"451 498 OFFCURVE",
"451 307 CURVE SMOOTH",
"451 133 OFFCURVE",
"381 24 OFFCURVE",
"266 24 CURVE SMOOTH",
"183 24 OFFCURVE",
"136 87 OFFCURVE",
"136 199 CURVE SMOOTH",
"136 231 OFFCURVE",
"140 264 OFFCURVE",
"145 294 CURVE",
"105 277 LINE",
"481 277 LINE",
"481 307 LINE",
"40 307 LINE",
"37 288 OFFCURVE",
"36 269 OFFCURVE",
"36 246 CURVE SMOOTH",
"36 82 OFFCURVE",
"118 -12 OFFCURVE",
"263 -12 CURVE SMOOTH",
"443 -12 OFFCURVE",
"567 121 OFFCURVE",
"567 317 CURVE SMOOTH",
"567 511 OFFCURVE",
"451 642 OFFCURVE",
"279 642 CURVE SMOOTH"
);
}
);
width = 600.96667;
},
{
layerId = "EFBCEE35-D457-4A39-AEF6-BDFE7C5D5DD9";
paths = (
{
closed = 1;
nodes = (
"151 642 OFFCURVE",
"56 566 OFFCURVE",
"36 459 CURVE",
"48 455 LINE",
"70 558 OFFCURVE",
"149 623 OFFCURVE",
"254 623 CURVE SMOOTH",
"390 623 OFFCURVE",
"467 508 OFFCURVE",
"467 307 CURVE SMOOTH",
"467 119 OFFCURVE",
"386 4 OFFCURVE",
"254 4 CURVE SMOOTH",
"157 4 OFFCURVE",
"101 73 OFFCURVE",
"101 194 CURVE SMOOTH",
"101 228 OFFCURVE",
"105 259 OFFCURVE",
"111 288 CURVE",
"86 281 LINE",
"494 281 LINE",
"494 299 LINE",
"42 299 LINE",
"38 279 OFFCURVE",
"37 262 OFFCURVE",
"37 242 CURVE SMOOTH",
"37 80 OFFCURVE",
"115 -12 OFFCURVE",
"251 -12 CURVE SMOOTH",
"427 -12 OFFCURVE",
"545 120 OFFCURVE",
"545 317 CURVE SMOOTH",
"545 511 OFFCURVE",
"433 642 OFFCURVE",
"268 642 CURVE SMOOTH"
);
}
);
width = 581.06667;
}
);
leftKerningGroup = O;
leftMetricsKey = O;
rightKerningGroup = O;
rightMetricsKey = O;
unicode = 018F;
userData = {
RMXScaler = {
source = e;
};
};
},
{
color = 4;
glyphname = T;
layers = (
{
anchors = (
{
name = bottom;
position = "{298, 0}";
},
{
name = center;
position = "{298, 315}";
},
{
name = top;
position = "{298, 630}";
}
);
layerId = "37751B57-50B3-4ADE-85C1-D4B223AC548E";
paths = (
{
closed = 1;
nodes = (
"484 0 LINE",
"484 45 LINE",
"417 45 LINE SMOOTH",
"409 45 OFFCURVE",
"403 51 OFFCURVE",
"403 59 CURVE SMOOTH",
"403 575 LINE",
"448 575 LINE SMOOTH",
"464 575 OFFCURVE",
"469 570 OFFCURVE",
"475 553 CURVE",
"510 421 LINE",
"577 421 LINE",
"577 493 OFFCURVE",
"582 567 OFFCURVE",
"592 639 CURVE",
"568 634 OFFCURVE",
"522 630 OFFCURVE",
"454 630 CURVE SMOOTH",
"142 630 LINE SMOOTH",
"74 630 OFFCURVE",
"28 634 OFFCURVE",
"4 639 CURVE",
"14 567 OFFCURVE",
"19 493 OFFCURVE",
"19 421 CURVE",
"86 421 LINE",
"121 553 LINE",
"127 570 OFFCURVE",
"132 575 OFFCURVE",
"148 575 CURVE SMOOTH",
"193 575 LINE",
"193 59 LINE SMOOTH",
"193 51 OFFCURVE",
"187 45 OFFCURVE",
"179 45 CURVE SMOOTH",
"112 45 LINE",
"112 0 LINE"
);
}
);
width = 596;
},
{
anchors = (
{
name = bottom;
position = "{227, 0}";
},
{
name = center;
position = "{227, 322}";
},
{
name = top;
position = "{227, 630}";
}
);
layerId = "AD4267C8-B72F-4114-A1A9-4AD5F5524DF4";
paths = (
{
closed = 1;
nodes = (
"349 0 LINE",
"349 11 LINE",
"256 11 LINE SMOOTH",
"249 11 OFFCURVE",
"242 16 OFFCURVE",
"242 22 CURVE SMOOTH",
"242 614 LINE",
"396 614 LINE SMOOTH",
"412 614 OFFCURVE",
"423 610 OFFCURVE",
"424 592 CURVE SMOOTH",
"433 482 LINE",
"444 482 LINE",
"444 535 OFFCURVE",
"445 586 OFFCURVE",
"451 639 CURVE",
"433 634 OFFCURVE",
"398 630 OFFCURVE",
"346 630 CURVE SMOOTH",
"108 630 LINE SMOOTH",
"56 630 OFFCURVE",
"21 634 OFFCURVE",
"3 639 CURVE",
"9 586 OFFCURVE",
"10 535 OFFCURVE",
"10 482 CURVE",
"21 482 LINE",
"30 592 LINE SMOOTH",
"32 610 OFFCURVE",
"42 614 OFFCURVE",
"58 614 CURVE SMOOTH",
"212 614 LINE",
"212 22 LINE SMOOTH",
"212 16 OFFCURVE",
"204 11 OFFCURVE",
"198 11 CURVE SMOOTH",
"105 11 LINE",
"105 0 LINE"
);
}
);
width = 454;
},
{
anchors = (
{
name = bottom;
position = "{238, 0}";
},
{
name = center;
position = "{238, 321}";
},
{
name = top;
position = "{238, 630}";
}
);
layerId = "2498D94C-62B8-4145-8082-B94B7C94C74A";
paths = (
{
closed = 1;
nodes = (
"371 0 LINE",
"371 16 LINE",
"282 16 LINE SMOOTH",
"275 16 OFFCURVE",
"268 22 OFFCURVE",
"268 28 CURVE SMOOTH",
"268 608 LINE",
"404 608 LINE SMOOTH",
"420 608 OFFCURVE",
"430 604 OFFCURVE",
"432 586 CURVE SMOOTH",
"445 472 LINE",
"465 472 LINE",
"465 528 OFFCURVE",
"467 583 OFFCURVE",
"474 639 CURVE",
"455 634 OFFCURVE",
"418 630 OFFCURVE",
"363 630 CURVE SMOOTH",
"113 630 LINE SMOOTH",
"59 630 OFFCURVE",
"22 634 OFFCURVE",
"3 639 CURVE",
"10 583 OFFCURVE",
"11 528 OFFCURVE",
"11 472 CURVE",
"31 472 LINE",
"45 586 LINE SMOOTH",
"47 604 OFFCURVE",
"57 608 OFFCURVE",
"73 608 CURVE SMOOTH",
"209 608 LINE",
"209 28 LINE SMOOTH",
"209 22 OFFCURVE",
"201 16 OFFCURVE",
"195 16 CURVE SMOOTH",
"106 16 LINE",
"106 0 LINE"
);
}
);
width = 476.87778;
},
{
anchors = (
{
name = bottom;
position = "{298, 0}";
},
{
name = center;
position = "{298, 315}";
},
{
name = top;
position = "{298, 630}";
}
);
layerId = "E8FFAA2E-5F75-47A2-A44E-FAA52327B69E";
paths = (
{
closed = 1;
nodes = (
"484 0 LINE",
"484 11 LINE",
"417 11 LINE SMOOTH",
"409 11 OFFCURVE",
"403 17 OFFCURVE",
"403 25 CURVE SMOOTH",
"393 609 LINE",
"453 609 LINE SMOOTH",
"469 609 OFFCURVE",
"474 604 OFFCURVE",
"480 587 CURVE SMOOTH",
"525 421 LINE",
"577 421 LINE",
"577 493 OFFCURVE",
"582 567 OFFCURVE",
"592 639 CURVE",
"568 634 OFFCURVE",
"522 630 OFFCURVE",
"454 630 CURVE SMOOTH",
"142 630 LINE SMOOTH",
"74 630 OFFCURVE",
"28 634 OFFCURVE",
"4 639 CURVE",
"14 567 OFFCURVE",
"19 493 OFFCURVE",
"19 421 CURVE",
"71 421 LINE",
"116 587 LINE SMOOTH",
"122 604 OFFCURVE",
"127 609 OFFCURVE",
"143 609 CURVE SMOOTH",
"193 609 LINE",
"193 25 LINE SMOOTH",
"193 17 OFFCURVE",
"187 11 OFFCURVE",
"179 11 CURVE SMOOTH",
"112 11 LINE",
"112 0 LINE"
);
}
);
width = 596;
},
{
anchors = (
{
name = bottom;
position = "{252, 0}";
},
{
name = center;
position = "{252, 320}";
},
{
name = top;
position = "{252, 630}";
}
);
hints = (
{
horizontal = 1;
origin = "{0, 37}";
target = "{0, 36}";
type = Stem;
},
{
horizontal = 1;
origin = "{0, 19}";
target = "{0, 30}";
type = Stem;
},
{
horizontal = 1;
origin = "{0, 22}";
target = down;
type = TopGhost;
},
{
origin = "{0, 32}";
target = "{0, 5}";
type = Stem;
},
{
origin = "{0, 11}";
target = "{0, 12}";
type = Stem;
}
);
layerId = "E3B85251-E3AC-4613-BF5C-C1AA05FDF004";
paths = (
{
closed = 1;
nodes = (
"397 0 LINE",
"397 23 LINE",
"314 23 LINE SMOOTH",
"306 23 OFFCURVE",
"299 29 OFFCURVE",
"299 35 CURVE SMOOTH",
"299 600 LINE",
"414 600 LINE SMOOTH",
"430 600 OFFCURVE",
"439 596 OFFCURVE",
"442 578 CURVE SMOOTH",
"460 460 LINE",
"491 460 LINE",
"491 520 OFFCURVE",
"494 579 OFFCURVE",
"502 639 CURVE",
"481 634 OFFCURVE",
"442 630 OFFCURVE",
"384 630 CURVE SMOOTH",
"120 630 LINE SMOOTH",
"62 630 OFFCURVE",
"23 634 OFFCURVE",
"3 639 CURVE",
"11 579 OFFCURVE",
"13 520 OFFCURVE",
"13 460 CURVE",
"44 460 LINE",
"63 578 LINE SMOOTH",
"66 596 OFFCURVE",
"75 600 OFFCURVE",
"91 600 CURVE SMOOTH",
"205 600 LINE",
"205 35 LINE SMOOTH",
"205 29 OFFCURVE",
"198 23 OFFCURVE",
"191 23 CURVE SMOOTH",
"107 23 LINE",
"107 0 LINE"
);
}
);
width = 504.67296;
},
{
anchors = (
{
name = bottom;
position = "{244, 0}";
},
{
name = center;
position = "{244, 320}";
},
{
name = top;
position = "{244, 630}";
}
);
layerId = "EFBCEE35-D457-4A39-AEF6-BDFE7C5D5DD9";
paths = (
{
closed = 1;
nodes = (
"381 0 LINE",
"381 11 LINE",
"294 11 LINE SMOOTH",
"286 11 OFFCURVE",
"280 16 OFFCURVE",
"280 23 CURVE SMOOTH",
"277 613 LINE",
"409 613 LINE SMOOTH",
"425 613 OFFCURVE",
"435 609 OFFCURVE",
"437 591 CURVE SMOOTH",
"454 468 LINE",
"475 468 LINE",
"475 525 OFFCURVE",
"477 582 OFFCURVE",
"484 639 CURVE",
"465 634 OFFCURVE",
"427 630 OFFCURVE",
"371 630 CURVE SMOOTH",
"116 630 LINE SMOOTH",
"60 630 OFFCURVE",
"23 634 OFFCURVE",
"3 639 CURVE",
"10 582 OFFCURVE",
"12 525 OFFCURVE",
"12 468 CURVE",
"33 468 LINE",
"50 591 LINE SMOOTH",
"53 609 OFFCURVE",
"62 613 OFFCURVE",
"78 613 CURVE SMOOTH",
"208 613 LINE",
"208 23 LINE SMOOTH",
"208 16 OFFCURVE",
"200 11 OFFCURVE",
"194 11 CURVE SMOOTH",
"107 11 LINE",
"107 0 LINE"
);
}
);
width = 487.13333;
}
);
leftKerningGroup = T;
leftMetricsKey = "=H*.1";
rightKerningGroup = T;
rightMetricsKey = "=H*.1";
unicode = 0054;
},
{
color = 4;
glyphname = U;
layers = (
{
anchors = (
{
name = bottom;
position = "{366, 0}";
},
{
name = ogonek;
position = "{511, 21}";
},
{
name = top;
position = "{372, 630}";
},
{
name = topright;
position = "{673, 585}";
}
);
guideLines = (
{
angle = 223.7811;
position = "{386, 23}";
},
{
angle = -5.553;
position = "{79, 210}";
},
{
position = "{577, 210}";
}
);
layerId = "37751B57-50B3-4ADE-85C1-D4B223AC548E";
paths = (
{
closed = 1;
nodes = (
"524 -12 OFFCURVE",
"622 68 OFFCURVE",
"622 210 CURVE SMOOTH",
"622 571 LINE SMOOTH",
"622 579 OFFCURVE",
"628 585 OFFCURVE",
"636 585 CURVE SMOOTH",
"673 585 LINE",
"673 630 LINE",
"490 630 LINE",
"490 585 LINE",
"537 585 LINE SMOOTH",
"545 585 OFFCURVE",
"551 580 OFFCURVE",
"551 573 CURVE SMOOTH",
"551 210 LINE SMOOTH",
"551 113 OFFCURVE",
"503 57 OFFCURVE",
"419 57 CURVE SMOOTH",
"338 57 OFFCURVE",
"289 108 OFFCURVE",
"289 190 CURVE SMOOTH",
"289 573 LINE SMOOTH",
"289 580 OFFCURVE",
"295 585 OFFCURVE",
"303 585 CURVE SMOOTH",
"350 585 LINE",
"350 630 LINE",
"28 630 LINE",
"28 585 LINE",
"65 585 LINE SMOOTH",
"73 585 OFFCURVE",
"79 580 OFFCURVE",
"79 573 CURVE SMOOTH",
"79 210 LINE SMOOTH",
"79 68 OFFCURVE",
"177 -12 OFFCURVE",
"350 -12 CURVE SMOOTH"
);
}
);
width = 697;
},
{
anchors = (
{
name = bottom;
position = "{281, 0}";
},
{
name = ogonek;
position = "{343, -3}";
},
{
name = top;
position = "{335, 630}";
},
{
name = topright;
position = "{563, 619}";
}
);
layerId = "AD4267C8-B72F-4114-A1A9-4AD5F5524DF4";
paths = (
{
closed = 1;
nodes = (
"411 -12 OFFCURVE",
"490 72 OFFCURVE",
"490 217 CURVE SMOOTH",
"490 608 LINE SMOOTH",
"490 614 OFFCURVE",
"496 619 OFFCURVE",
"504 619 CURVE SMOOTH",
"554 619 LINE",
"554 630 LINE",
"411 630 LINE",
"411 619 LINE",
"458 619 LINE SMOOTH",
"466 619 OFFCURVE",
"472 614 OFFCURVE",
"472 607 CURVE SMOOTH",
"472 217 LINE SMOOTH",
"472 84 OFFCURVE",
"402 2 OFFCURVE",
"285 2 CURVE SMOOTH",
"177 2 OFFCURVE",
"117 80 OFFCURVE",
"117 213 CURVE SMOOTH",
"117 607 LINE SMOOTH",
"117 614 OFFCURVE",
"123 619 OFFCURVE",
"131 619 CURVE SMOOTH",
"178 619 LINE",
"178 630 LINE",
"23 630 LINE",
"23 619 LINE",
"73 619 LINE SMOOTH",
"81 619 OFFCURVE",
"87 614 OFFCURVE",
"87 607 CURVE SMOOTH",
"87 217 LINE SMOOTH",
"87 68 OFFCURVE",
"150 -12 OFFCURVE",
"273 -12 CURVE SMOOTH"
);
}
);
width = 574;
},
{
anchors = (
{
name = bottom;
position = "{295, 0}";
},
{
name = ogonek;
position = "{370, 1}";
},
{
name = top;
position = "{341, 630}";
},
{
name = topright;
position = "{581, 614}";
}
);
layerId = "2498D94C-62B8-4145-8082-B94B7C94C74A";
paths = (
{
closed = 1;
nodes = (
"429 -12 OFFCURVE",
"511 71 OFFCURVE",
"511 216 CURVE SMOOTH",
"511 602 LINE SMOOTH",
"511 608 OFFCURVE",
"517 614 OFFCURVE",
"525 614 CURVE SMOOTH",
"573 614 LINE",
"573 630 LINE",
"424 630 LINE",
"424 614 LINE",
"471 614 LINE SMOOTH",
"479 614 OFFCURVE",
"485 609 OFFCURVE",
"485 602 CURVE SMOOTH",
"485 216 LINE SMOOTH",
"485 89 OFFCURVE",
"418 11 OFFCURVE",
"307 11 CURVE SMOOTH",
"203 11 OFFCURVE",
"145 84 OFFCURVE",
"145 209 CURVE SMOOTH",
"145 602 LINE SMOOTH",
"145 609 OFFCURVE",
"151 614 OFFCURVE",
"159 614 CURVE SMOOTH",
"206 614 LINE",
"206 630 LINE",
"24 630 LINE",
"24 614 LINE",
"72 614 LINE SMOOTH",
"80 614 OFFCURVE",
"86 609 OFFCURVE",
"86 602 CURVE SMOOTH",
"86 216 LINE SMOOTH",
"86 68 OFFCURVE",
"154 -12 OFFCURVE",
"285 -12 CURVE SMOOTH"
);
}
);
width = 593;
},
{
anchors = (
{
name = bottom;
position = "{396, 0}";
},
{
name = ogonek;
position = "{511, 21}";
},
{
name = top;
position = "{422, 630}";
},
{
name = topright;
position = "{673, 585}";
}
);
guideLines = (
{
angle = 223.7811;
position = "{386, 23}";
},
{
angle = -5.553;
position = "{79, 210}";
}
);
layerId = "E8FFAA2E-5F75-47A2-A44E-FAA52327B69E";
paths = (
{
closed = 1;
nodes = (
"525 -12 OFFCURVE",
"622 68 OFFCURVE",
"622 210 CURVE SMOOTH",
"622 605 LINE SMOOTH",
"622 613 OFFCURVE",
"628 619 OFFCURVE",
"636 619 CURVE SMOOTH",
"673 619 LINE",
"673 630 LINE",
"541 630 LINE",
"541 619 LINE",
"588 619 LINE SMOOTH",
"596 619 OFFCURVE",
"602 614 OFFCURVE",
"602 607 CURVE SMOOTH",
"602 210 LINE SMOOTH",
"602 100 OFFCURVE",
"535 29 OFFCURVE",
"430 29 CURVE SMOOTH",
"339 29 OFFCURVE",
"289 86 OFFCURVE",
"289 190 CURVE SMOOTH",
"289 607 LINE SMOOTH",
"289 614 OFFCURVE",
"295 619 OFFCURVE",
"303 619 CURVE SMOOTH",
"350 619 LINE",
"350 630 LINE",
"28 630 LINE",
"28 619 LINE",
"65 619 LINE SMOOTH",
"73 619 OFFCURVE",
"79 614 OFFCURVE",
"79 607 CURVE SMOOTH",
"79 210 LINE SMOOTH",
"79 68 OFFCURVE",
"177 -12 OFFCURVE",
"350 -12 CURVE SMOOTH"
);
}
);
width = 697;
},
{
anchors = (
{
name = bottom;
position = "{312, 0}";
},
{
name = ogonek;
position = "{403, 6}";
},
{
name = top;
position = "{348, 630}";
},
{
name = topright;
position = "{602, 607}";
}
);
hints = (
{
horizontal = 1;
origin = "{0, 37}";
target = "{0, 18}";
type = Stem;
},
{
horizontal = 1;
origin = "{0, 28}";
target = "{0, 29}";
type = Stem;
},
{
origin = "{0, 34}";
target = "{0, 21}";
type = Stem;
},
{
origin = "{0, 15}";
target = "{0, 2}";
type = Stem;
}
);
layerId = "E3B85251-E3AC-4613-BF5C-C1AA05FDF004";
paths = (
{
closed = 1;
nodes = (
"451 -12 OFFCURVE",
"537 70 OFFCURVE",
"537 215 CURVE SMOOTH",
"537 595 LINE SMOOTH",
"537 601 OFFCURVE",
"543 607 OFFCURVE",
"551 607 CURVE SMOOTH",
"596 607 LINE",
"596 630 LINE",
"439 630 LINE",
"439 607 LINE",
"486 607 LINE SMOOTH",
"494 607 OFFCURVE",
"500 602 OFFCURVE",
"500 595 CURVE SMOOTH",
"500 215 LINE SMOOTH",
"500 95 OFFCURVE",
"438 22 OFFCURVE",
"333 22 CURVE SMOOTH",
"235 22 OFFCURVE",
"179 90 OFFCURVE",
"179 205 CURVE SMOOTH",
"179 595 LINE SMOOTH",
"179 602 OFFCURVE",
"185 607 OFFCURVE",
"193 607 CURVE SMOOTH",
"240 607 LINE",
"240 630 LINE",
"25 630 LINE",
"25 607 LINE",
"70 607 LINE SMOOTH",
"78 607 OFFCURVE",
"84 602 OFFCURVE",
"84 595 CURVE SMOOTH",
"84 215 LINE SMOOTH",
"84 68 OFFCURVE",
"159 -12 OFFCURVE",
"300 -12 CURVE SMOOTH"
);
}
);
width = 617.26667;
},
{
anchors = (
{
name = bottom;
position = "{309, 0}";
},
{
name = ogonek;
position = "{383, 3}";
},
{
name = top;
position = "{356, 630}";
},
{
name = topright;
position = "{590, 611}";
}
);
layerId = "EFBCEE35-D457-4A39-AEF6-BDFE7C5D5DD9";
paths = (
{
closed = 1;
nodes = (
"439 -12 OFFCURVE",
"522 71 OFFCURVE",
"522 215 CURVE SMOOTH",
"522 607 LINE SMOOTH",
"522 614 OFFCURVE",
"528 619 OFFCURVE",
"536 619 CURVE SMOOTH",
"583 619 LINE",
"583 630 LINE",
"442 630 LINE",
"442 619 LINE",
"489 619 LINE SMOOTH",
"497 619 OFFCURVE",
"503 614 OFFCURVE",
"503 607 CURVE SMOOTH",
"503 215 LINE SMOOTH",
"503 88 OFFCURVE",
"434 8 OFFCURVE",
"320 8 CURVE SMOOTH",
"216 8 OFFCURVE",
"158 81 OFFCURVE",
"158 208 CURVE SMOOTH",
"158 607 LINE SMOOTH",
"158 614 OFFCURVE",
"164 619 OFFCURVE",
"172 619 CURVE SMOOTH",
"219 619 LINE",
"219 630 LINE",
"25 630 LINE",
"25 619 LINE",
"72 619 LINE SMOOTH",
"80 619 OFFCURVE",
"86 614 OFFCURVE",
"86 607 CURVE SMOOTH",
"86 215 LINE SMOOTH",
"86 68 OFFCURVE",
"157 -12 OFFCURVE",
"292 -12 CURVE SMOOTH"
);
}
);
width = 604;
}
);
leftKerningGroup = U;
leftMetricsKey = "=H*.71";
rightKerningGroup = U;
rightMetricsKey = "=H*.6";
unicode = 0055;
},
{
color = 4;
glyphname = V;
layers = (
{
layerId = "37751B57-50B3-4ADE-85C1-D4B223AC548E";
paths = (
{
closed = 1;
nodes = (
"408 0 LINE",
"592 571 LINE SMOOTH",
"595 579 OFFCURVE",
"600 585 OFFCURVE",
"611 585 CURVE SMOOTH",
"641 585 LINE",
"641 630 LINE",
"452 630 LINE",
"452 585 LINE",
"523 585 LINE",
"371 112 LINE",
"425 112 LINE",
"259 585 LINE",
"311 585 LINE",
"311 630 LINE",
"4 630 LINE",
"4 585 LINE",
"33 585 LINE SMOOTH",
"44 585 OFFCURVE",
"49 579 OFFCURVE",
"52 571 CURVE SMOOTH",
"253 0 LINE"
);
}
);
width = 645;
},
{
layerId = "AD4267C8-B72F-4114-A1A9-4AD5F5524DF4";
paths = (
{
closed = 1;
nodes = (
"257 0 LINE",
"456 605 LINE SMOOTH",
"459 613 OFFCURVE",
"464 619 OFFCURVE",
"475 619 CURVE SMOOTH",
"500 619 LINE",
"500 630 LINE",
"381 630 LINE",
"381 619 LINE",
"444 619 LINE",
"251 34 LINE",
"260 34 LINE",
"77 619 LINE",
"146 619 LINE",
"146 630 LINE",
"3 630 LINE",
"3 619 LINE",
"31 619 LINE SMOOTH",
"41 619 OFFCURVE",
"47 613 OFFCURVE",
"50 605 CURVE SMOOTH",
"239 0 LINE"
);
}
);
width = 503;
},
{
layerId = "2498D94C-62B8-4145-8082-B94B7C94C74A";
paths = (
{
closed = 1;
nodes = (
"281 0 LINE",
"478 600 LINE SMOOTH",
"481 608 OFFCURVE",
"486 614 OFFCURVE",
"497 614 CURVE SMOOTH",
"523 614 LINE",
"523 630 LINE",
"392 630 LINE",
"392 614 LINE",
"457 614 LINE",
"270 47 LINE",
"287 47 LINE",
"106 614 LINE",
"173 614 LINE",
"173 630 LINE",
"3 630 LINE",
"3 614 LINE",
"31 614 LINE SMOOTH",
"41 614 OFFCURVE",
"47 608 OFFCURVE",
"50 600 CURVE SMOOTH",
"241 0 LINE"
);
}
);
width = 525.87778;
},
{
layerId = "E8FFAA2E-5F75-47A2-A44E-FAA52327B69E";
paths = (
{
closed = 1;
nodes = (
"408 0 LINE",
"592 605 LINE SMOOTH",
"595 613 OFFCURVE",
"600 619 OFFCURVE",
"611 619 CURVE SMOOTH",
"641 619 LINE",
"641 630 LINE",
"504 630 LINE",
"504 619 LINE",
"575 619 LINE",
"419 104 LINE",
"429 104 LINE",
"258 619 LINE",
"310 619 LINE",
"310 630 LINE",
"4 630 LINE",
"4 619 LINE",
"33 619 LINE SMOOTH",
"44 619 OFFCURVE",
"49 613 OFFCURVE",
"52 605 CURVE SMOOTH",
"253 0 LINE"
);
}
);
width = 645;
},
{
hints = (
{
horizontal = 1;
origin = "{0, 21}";
target = up;
type = BottomGhost;
},
{
horizontal = 1;
origin = "{0, 15}";
target = "{0, 16}";
type = Stem;
}
);
layerId = "E3B85251-E3AC-4613-BF5C-C1AA05FDF004";
paths = (
{
closed = 1;
nodes = (
"311 0 LINE",
"505 593 LINE SMOOTH",
"508 601 OFFCURVE",
"513 607 OFFCURVE",
"524 607 CURVE SMOOTH",
"551 607 LINE",
"551 630 LINE",
"406 630 LINE",
"406 607 LINE",
"472 607 LINE",
"294 62 LINE",
"319 62 LINE",
"142 607 LINE",
"205 607 LINE",
"205 630 LINE",
"3 630 LINE",
"3 607 LINE",
"31 607 LINE SMOOTH",
"42 607 OFFCURVE",
"47 601 OFFCURVE",
"50 593 CURVE SMOOTH",
"244 0 LINE"
);
}
);
width = 553.67296;
},
{
layerId = "EFBCEE35-D457-4A39-AEF6-BDFE7C5D5DD9";
paths = (
{
closed = 1;
nodes = (
"292 0 LINE",
"488 605 LINE SMOOTH",
"491 613 OFFCURVE",
"496 619 OFFCURVE",
"507 619 CURVE SMOOTH",
"533 619 LINE",
"533 630 LINE",
"410 630 LINE",
"410 619 LINE",
"475 619 LINE",
"290 50 LINE",
"299 50 LINE",
"119 619 LINE",
"184 619 LINE",
"184 630 LINE",
"3 630 LINE",
"3 619 LINE",
"31 619 LINE SMOOTH",
"42 619 OFFCURVE",
"47 613 OFFCURVE",
"50 605 CURVE SMOOTH",
"242 0 LINE"
);
}
);
width = 536.13333;
}
);
leftKerningGroup = V;
leftMetricsKey = "=H*.1";
rightKerningGroup = V;
rightMetricsKey = "=H*.1";
unicode = 0056;
},
{
color = 4;
glyphname = W;
layers = (
{
anchors = (
{
name = bottom;
position = "{526, 0}";
},
{
name = top;
position = "{584, 630}";
}
);
layerId = "37751B57-50B3-4ADE-85C1-D4B223AC548E";
paths = (
{
closed = 1;
nodes = (
"825 0 LINE",
"999 571 LINE SMOOTH",
"1001 579 OFFCURVE",
"1007 585 OFFCURVE",
"1018 585 CURVE SMOOTH",
"1048 585 LINE",
"1048 630 LINE",
"858 630 LINE",
"858 585 LINE",
"929 585 LINE",
"791 132 LINE",
"836 132 LINE",
"685 585 LINE",
"737 585 LINE",
"737 630 LINE",
"431 630 LINE",
"431 585 LINE",
"460 585 LINE SMOOTH",
"471 585 OFFCURVE",
"476 579 OFFCURVE",
"479 571 CURVE SMOOTH",
"670 0 LINE"
);
},
{
closed = 1;
nodes = (
"398 0 LINE",
"537 455 LINE",
"497 567 LINE",
"364 132 LINE",
"409 132 LINE",
"258 585 LINE",
"310 585 LINE",
"310 630 LINE",
"4 630 LINE",
"4 585 LINE",
"33 585 LINE SMOOTH",
"44 585 OFFCURVE",
"49 579 OFFCURVE",
"52 571 CURVE SMOOTH",
"243 0 LINE"
);
}
);
width = 1052;
},
{
anchors = (
{
name = bottom;
position = "{406, 0}";
},
{
name = top;
position = "{403, 630}";
}
);
guideLines = (
{
angle = 105.9579;
position = "{137, 303}";
}
);
layerId = "AD4267C8-B72F-4114-A1A9-4AD5F5524DF4";
paths = (
{
closed = 1;
nodes = (
"582 0 LINE",
"739 605 LINE SMOOTH",
"741 613 OFFCURVE",
"746 619 OFFCURVE",
"758 619 CURVE SMOOTH",
"783 619 LINE",
"783 630 LINE",
"664 630 LINE",
"664 619 LINE",
"726 619 LINE",
"572 26 LINE",
"576 26 LINE",
"406 619 LINE",
"474 619 LINE",
"474 630 LINE",
"331 630 LINE",
"331 619 LINE",
"360 619 LINE SMOOTH",
"369 619 OFFCURVE",
"377 613 OFFCURVE",
"379 605 CURVE SMOOTH",
"552 0 LINE"
);
},
{
closed = 1;
nodes = (
"253 0 LINE",
"395 562 LINE",
"391 610 LINE",
"243 26 LINE",
"247 26 LINE",
"77 619 LINE",
"146 619 LINE",
"146 630 LINE",
"3 630 LINE",
"3 619 LINE",
"31 619 LINE SMOOTH",
"41 619 OFFCURVE",
"48 613 OFFCURVE",
"50 605 CURVE SMOOTH",
"223 0 LINE"
);
}
);
width = 786;
},
{
anchors = (
{
name = bottom;
position = "{425, 0}";
},
{
name = top;
position = "{432, 630}";
}
);
layerId = "2498D94C-62B8-4145-8082-B94B7C94C74A";
paths = (
{
closed = 1;
nodes = (
"621 0 LINE",
"781 600 LINE SMOOTH",
"783 608 OFFCURVE",
"788 614 OFFCURVE",
"800 614 CURVE SMOOTH",
"826 614 LINE",
"826 630 LINE",
"695 630 LINE",
"695 614 LINE",
"759 614 LINE",
"607 43 LINE",
"618 43 LINE",
"451 614 LINE",
"516 614 LINE",
"516 630 LINE",
"347 630 LINE",
"347 614 LINE",
"376 614 LINE SMOOTH",
"385 614 OFFCURVE",
"393 608 OFFCURVE",
"395 600 CURVE SMOOTH",
"571 0 LINE"
);
},
{
closed = 1;
nodes = (
"276 0 LINE",
"418 545 LINE",
"408 603 LINE",
"262 43 LINE",
"273 43 LINE",
"106 614 LINE",
"172 614 LINE",
"172 630 LINE",
"3 630 LINE",
"3 614 LINE",
"31 614 LINE SMOOTH",
"41 614 OFFCURVE",
"48 608 OFFCURVE",
"50 600 CURVE SMOOTH",
"226 0 LINE"
);
}
);
width = 828.85556;
},
{
anchors = (
{
name = bottom;
position = "{526, 0}";
},
{
name = top;
position = "{584, 630}";
}
);
layerId = "E8FFAA2E-5F75-47A2-A44E-FAA52327B69E";
paths = (
{
closed = 1;
nodes = (
"825 0 LINE",
"999 605 LINE SMOOTH",
"1001 613 OFFCURVE",
"1007 619 OFFCURVE",
"1018 619 CURVE SMOOTH",
"1048 619 LINE",
"1048 630 LINE",
"911 630 LINE",
"911 619 LINE",
"982 619 LINE",
"833 102 LINE",
"847 102 LINE",
"685 619 LINE",
"737 619 LINE",
"737 630 LINE",
"431 630 LINE",
"431 619 LINE",
"460 619 LINE SMOOTH",
"471 619 OFFCURVE",
"476 613 OFFCURVE",
"479 605 CURVE SMOOTH",
"670 0 LINE"
);
},
{
closed = 1;
nodes = (
"398 0 LINE",
"537 455 LINE",
"550 567 LINE",
"408 102 LINE",
"420 102 LINE",
"257 619 LINE",
"309 619 LINE",
"309 630 LINE",
"4 630 LINE",
"4 619 LINE",
"33 619 LINE SMOOTH",
"44 619 OFFCURVE",
"49 613 OFFCURVE",
"52 605 CURVE SMOOTH",
"243 0 LINE"
);
}
);
width = 1052;
},
{
anchors = (
{
name = bottom;
position = "{449, 0}";
},
{
name = top;
position = "{467, 630}";
}
);
hints = (
{
horizontal = 1;
origin = "{1, 8}";
target = "{1, 9}";
type = Stem;
},
{
horizontal = 1;
origin = "{1, 14}";
target = up;
type = BottomGhost;
}
);
layerId = "E3B85251-E3AC-4613-BF5C-C1AA05FDF004";
paths = (
{
closed = 1;
nodes = (
"669 0 LINE",
"832 593 LINE SMOOTH",
"834 601 OFFCURVE",
"839 607 OFFCURVE",
"851 607 CURVE SMOOTH",
"878 607 LINE",
"878 630 LINE",
"733 630 LINE",
"733 607 LINE",
"799 607 LINE",
"650 64 LINE",
"669 64 LINE",
"506 607 LINE",
"568 607 LINE",
"568 630 LINE",
"367 630 LINE",
"367 607 LINE",
"396 607 LINE SMOOTH",
"405 607 OFFCURVE",
"412 601 OFFCURVE",
"415 593 CURVE SMOOTH",
"594 0 LINE"
);
},
{
closed = 1;
nodes = (
"304 0 LINE",
"446 524 LINE",
"429 595 LINE",
"286 64 LINE",
"305 64 LINE",
"141 607 LINE",
"204 607 LINE",
"204 630 LINE",
"3 630 LINE",
"3 607 LINE",
"31 607 LINE SMOOTH",
"42 607 OFFCURVE",
"48 601 OFFCURVE",
"50 593 CURVE SMOOTH",
"230 0 LINE"
);
}
);
width = 880.9226;
},
{
anchors = (
{
name = bottom;
position = "{434, 0}";
},
{
name = top;
position = "{445, 630}";
}
);
layerId = "EFBCEE35-D457-4A39-AEF6-BDFE7C5D5DD9";
paths = (
{
closed = 1;
nodes = (
"639 0 LINE",
"800 605 LINE SMOOTH",
"802 613 OFFCURVE",
"807 619 OFFCURVE",
"819 619 CURVE SMOOTH",
"845 619 LINE",
"845 630 LINE",
"722 630 LINE",
"722 619 LINE",
"786 619 LINE",
"633 44 LINE",
"639 44 LINE",
"471 619 LINE",
"535 619 LINE",
"535 630 LINE",
"354 630 LINE",
"354 619 LINE",
"383 619 LINE SMOOTH",
"393 619 OFFCURVE",
"400 613 OFFCURVE",
"402 605 CURVE SMOOTH",
"580 0 LINE"
);
},
{
closed = 1;
nodes = (
"287 0 LINE",
"428 537 LINE",
"428 600 LINE",
"282 44 LINE",
"287 44 LINE",
"119 619 LINE",
"184 619 LINE",
"184 630 LINE",
"3 630 LINE",
"3 619 LINE",
"31 619 LINE SMOOTH",
"42 619 OFFCURVE",
"48 613 OFFCURVE",
"50 605 CURVE SMOOTH",
"228 0 LINE"
);
}
);
width = 848.06667;
}
);
leftKerningGroup = V;
leftMetricsKey = V;
rightKerningGroup = V;
rightMetricsKey = V;
unicode = 0057;
},
{
color = 4;
glyphname = X;
layers = (
{
layerId = "37751B57-50B3-4ADE-85C1-D4B223AC548E";
paths = (
{
closed = 1;
nodes = (
"679 0 LINE",
"679 45 LINE",
"642 45 LINE SMOOTH",
"633 45 OFFCURVE",
"629 49 OFFCURVE",
"623 59 CURVE SMOOTH",
"297 585 LINE",
"367 585 LINE",
"367 630 LINE",
"14 630 LINE",
"14 585 LINE",
"51 585 LINE SMOOTH",
"60 585 OFFCURVE",
"64 581 OFFCURVE",
"70 571 CURVE SMOOTH",
"396 45 LINE",
"326 45 LINE",
"326 0 LINE"
);
},
{
closed = 1;
nodes = (
"209 0 LINE",
"209 45 LINE",
"150 45 LINE",
"335 270 LINE",
"291 326 LINE",
"70 59 LINE SMOOTH",
"60 47 OFFCURVE",
"57 45 OFFCURVE",
"48 45 CURVE SMOOTH",
"4 45 LINE",
"4 0 LINE"
);
},
{
closed = 1;
nodes = (
"604 571 LINE SMOOTH",
"614 583 OFFCURVE",
"617 585 OFFCURVE",
"626 585 CURVE SMOOTH",
"670 585 LINE",
"670 630 LINE",
"465 630 LINE",
"465 585 LINE",
"524 585 LINE",
"339 361 LINE",
"391 314 LINE"
);
}
);
width = 683;
},
{
layerId = "AD4267C8-B72F-4114-A1A9-4AD5F5524DF4";
paths = (
{
closed = 1;
nodes = (
"497 0 LINE",
"497 11 LINE",
"460 11 LINE SMOOTH",
"451 11 OFFCURVE",
"447 15 OFFCURVE",
"441 25 CURVE SMOOTH",
"96 619 LINE",
"153 619 LINE",
"153 630 LINE",
"13 630 LINE",
"13 619 LINE",
"50 619 LINE SMOOTH",
"59 619 OFFCURVE",
"63 615 OFFCURVE",
"69 605 CURVE SMOOTH",
"414 11 LINE",
"356 11 LINE",
"356 0 LINE"
);
},
{
closed = 1;
nodes = (
"127 0 LINE",
"127 11 LINE",
"66 11 LINE",
"254 319 LINE",
"244 334 LINE",
"56 25 LINE SMOOTH",
"49 13 OFFCURVE",
"43 11 OFFCURVE",
"34 11 CURVE SMOOTH",
"3 11 LINE",
"3 0 LINE"
);
},
{
closed = 1;
nodes = (
"435 605 LINE SMOOTH",
"442 617 OFFCURVE",
"448 619 OFFCURVE",
"457 619 CURVE SMOOTH",
"488 619 LINE",
"488 630 LINE",
"364 630 LINE",
"364 619 LINE",
"425 619 LINE",
"249 330 LINE",
"253 306 LINE"
);
}
);
width = 500;
},
{
layerId = "2498D94C-62B8-4145-8082-B94B7C94C74A";
paths = (
{
closed = 1;
nodes = (
"526 0 LINE",
"526 16 LINE",
"489 16 LINE SMOOTH",
"480 16 OFFCURVE",
"476 20 OFFCURVE",
"470 30 CURVE SMOOTH",
"128 614 LINE",
"187 614 LINE",
"187 630 LINE",
"13 630 LINE",
"13 614 LINE",
"50 614 LINE SMOOTH",
"59 614 OFFCURVE",
"63 610 OFFCURVE",
"69 600 CURVE SMOOTH",
"411 16 LINE",
"351 16 LINE",
"351 0 LINE"
);
},
{
closed = 1;
nodes = (
"140 0 LINE",
"140 16 LINE",
"80 16 LINE",
"267 311 LINE",
"252 333 LINE",
"58 30 LINE SMOOTH",
"51 18 OFFCURVE",
"45 16 OFFCURVE",
"36 16 CURVE SMOOTH",
"3 16 LINE",
"3 0 LINE"
);
},
{
closed = 1;
nodes = (
"462 600 LINE SMOOTH",
"470 612 OFFCURVE",
"475 614 OFFCURVE",
"484 614 CURVE SMOOTH",
"517 614 LINE",
"517 630 LINE",
"380 630 LINE",
"380 614 LINE",
"441 614 LINE",
"264 335 LINE",
"275 307 LINE"
);
}
);
width = 529.48333;
},
{
layerId = "E8FFAA2E-5F75-47A2-A44E-FAA52327B69E";
paths = (
{
closed = 1;
nodes = (
"679 0 LINE",
"679 11 LINE",
"642 11 LINE SMOOTH",
"633 11 OFFCURVE",
"629 15 OFFCURVE",
"623 25 CURVE SMOOTH",
"291 619 LINE",
"361 619 LINE",
"361 630 LINE",
"14 630 LINE",
"14 619 LINE",
"51 619 LINE SMOOTH",
"60 619 OFFCURVE",
"64 615 OFFCURVE",
"70 605 CURVE SMOOTH",
"402 11 LINE",
"332 11 LINE",
"332 0 LINE"
);
},
{
closed = 1;
nodes = (
"144 0 LINE",
"144 11 LINE",
"85 11 LINE",
"294 270 LINE",
"311 323 LINE",
"70 25 LINE SMOOTH",
"60 13 OFFCURVE",
"57 11 OFFCURVE",
"48 11 CURVE SMOOTH",
"4 11 LINE",
"4 0 LINE"
);
},
{
closed = 1;
nodes = (
"604 605 LINE SMOOTH",
"614 617 OFFCURVE",
"617 619 OFFCURVE",
"626 619 CURVE SMOOTH",
"670 619 LINE",
"670 630 LINE",
"531 630 LINE",
"531 619 LINE",
"590 619 LINE",
"381 361 LINE",
"371 316 LINE"
);
}
);
width = 683;
},
{
hints = (
{
horizontal = 1;
origin = "{1, 10}";
target = "{1, 9}";
type = Stem;
},
{
horizontal = 1;
origin = "{0, 9}";
target = "{0, 10}";
type = Stem;
}
);
layerId = "E3B85251-E3AC-4613-BF5C-C1AA05FDF004";
paths = (
{
closed = 1;
nodes = (
"562 0 LINE",
"562 23 LINE",
"525 23 LINE SMOOTH",
"516 23 OFFCURVE",
"512 27 OFFCURVE",
"506 37 CURVE SMOOTH",
"167 607 LINE",
"229 607 LINE",
"229 630 LINE",
"13 630 LINE",
"13 607 LINE",
"50 607 LINE SMOOTH",
"59 607 OFFCURVE",
"63 603 OFFCURVE",
"69 593 CURVE SMOOTH",
"407 23 LINE",
"345 23 LINE",
"345 0 LINE"
);
},
{
closed = 1;
nodes = (
"156 0 LINE",
"156 23 LINE",
"96 23 LINE",
"283 301 LINE",
"261 331 LINE",
"61 37 LINE SMOOTH",
"53 25 OFFCURVE",
"48 23 OFFCURVE",
"39 23 CURVE SMOOTH",
"3 23 LINE",
"3 0 LINE"
);
},
{
closed = 1;
nodes = (
"495 593 LINE SMOOTH",
"504 605 OFFCURVE",
"508 607 OFFCURVE",
"517 607 CURVE SMOOTH",
"553 607 LINE",
"553 630 LINE",
"400 630 LINE",
"400 607 LINE",
"460 607 LINE",
"282 341 LINE",
"302 309 LINE"
);
}
);
width = 565.30389;
},
{
layerId = "EFBCEE35-D457-4A39-AEF6-BDFE7C5D5DD9";
paths = (
{
closed = 1;
nodes = (
"539 0 LINE",
"539 11 LINE",
"502 11 LINE SMOOTH",
"493 11 OFFCURVE",
"489 15 OFFCURVE",
"483 25 CURVE SMOOTH",
"142 619 LINE",
"202 619 LINE",
"202 630 LINE",
"13 630 LINE",
"13 619 LINE",
"50 619 LINE SMOOTH",
"59 619 OFFCURVE",
"63 615 OFFCURVE",
"69 605 CURVE SMOOTH",
"411 11 LINE",
"350 11 LINE",
"350 0 LINE"
);
},
{
closed = 1;
nodes = (
"131 0 LINE",
"131 11 LINE",
"70 11 LINE",
"263 308 LINE",
"260 331 LINE",
"59 25 LINE SMOOTH",
"52 13 OFFCURVE",
"46 11 OFFCURVE",
"37 11 CURVE SMOOTH",
"3 11 LINE",
"3 0 LINE"
);
},
{
closed = 1;
nodes = (
"474 605 LINE SMOOTH",
"482 617 OFFCURVE",
"487 619 OFFCURVE",
"496 619 CURVE SMOOTH",
"530 619 LINE",
"530 630 LINE",
"403 630 LINE",
"403 619 LINE",
"464 619 LINE",
"280 337 LINE",
"281 308 LINE"
);
}
);
width = 542.7;
}
);
leftKerningGroup = X;
leftMetricsKey = "=H*.1";
rightKerningGroup = X;
rightMetricsKey = "=H*.1";
unicode = 0058;
},
{
color = 4;
glyphname = Y;
layers = (
{
anchors = (
{
name = bottom;
position = "{314, 0}";
},
{
name = top;
position = "{333, 630}";
},
{
name = topleft;
position = "{22, 630}";
}
);
layerId = "37751B57-50B3-4ADE-85C1-D4B223AC548E";
paths = (
{
closed = 1;
nodes = (
"516 0 LINE",
"516 45 LINE",
"443 45 LINE SMOOTH",
"435 45 OFFCURVE",
"428 50 OFFCURVE",
"428 57 CURVE SMOOTH",
"427 233 LINE",
"575 571 LINE SMOOTH",
"578 579 OFFCURVE",
"583 585 OFFCURVE",
"594 585 CURVE SMOOTH",
"624 585 LINE",
"624 630 LINE",
"434 630 LINE",
"434 585 LINE",
"505 585 LINE",
"367 270 LINE",
"421 270 LINE",
"269 585 LINE",
"321 585 LINE",
"321 630 LINE",
"4 630 LINE",
"4 585 LINE",
"33 585 LINE SMOOTH",
"45 585 OFFCURVE",
"49 579 OFFCURVE",
"53 571 CURVE SMOOTH",
"217 234 LINE",
"218 57 LINE SMOOTH",
"218 50 OFFCURVE",
"211 45 OFFCURVE",
"203 45 CURVE SMOOTH",
"130 45 LINE",
"130 0 LINE"
);
}
);
width = 628;
},
{
anchors = (
{
name = bottom;
position = "{237, 0}";
},
{
name = top;
position = "{239, 630}";
},
{
name = topleft;
position = "{-8, 630}";
}
);
layerId = "AD4267C8-B72F-4114-A1A9-4AD5F5524DF4";
paths = (
{
closed = 1;
nodes = (
"337 0 LINE",
"337 11 LINE",
"266 11 LINE SMOOTH",
"258 11 OFFCURVE",
"251 17 OFFCURVE",
"251 25 CURVE SMOOTH",
"252 229 LINE",
"408 605 LINE SMOOTH",
"412 616 OFFCURVE",
"418 619 OFFCURVE",
"427 619 CURVE SMOOTH",
"451 619 LINE",
"451 630 LINE",
"353 630 LINE",
"353 619 LINE",
"397 619 LINE",
"241 244 LINE",
"248 244 LINE",
"76 619 LINE",
"125 619 LINE",
"125 630 LINE",
"3 630 LINE",
"3 619 LINE",
"30 619 LINE SMOOTH",
"39 619 OFFCURVE",
"44 616 OFFCURVE",
"49 605 CURVE SMOOTH",
"222 229 LINE",
"221 25 LINE SMOOTH",
"221 17 OFFCURVE",
"215 11 OFFCURVE",
"207 11 CURVE SMOOTH",
"135 11 LINE",
"135 0 LINE"
);
}
);
width = 454;
},
{
anchors = (
{
name = bottom;
position = "{249, 0}";
},
{
name = top;
position = "{254, 630}";
},
{
name = topleft;
position = "{-3, 630}";
}
);
layerId = "2498D94C-62B8-4145-8082-B94B7C94C74A";
paths = (
{
closed = 1;
nodes = (
"366 0 LINE",
"366 16 LINE",
"295 16 LINE SMOOTH",
"287 16 OFFCURVE",
"280 22 OFFCURVE",
"280 30 CURVE SMOOTH",
"280 230 LINE",
"435 600 LINE SMOOTH",
"439 610 OFFCURVE",
"445 614 OFFCURVE",
"454 614 CURVE SMOOTH",
"479 614 LINE",
"479 630 LINE",
"366 630 LINE",
"366 614 LINE",
"414 614 LINE",
"261 248 LINE",
"276 248 LINE",
"107 614 LINE",
"157 614 LINE",
"157 630 LINE",
"3 630 LINE",
"3 614 LINE",
"30 614 LINE SMOOTH",
"40 614 OFFCURVE",
"45 610 OFFCURVE",
"50 600 CURVE SMOOTH",
"221 230 LINE",
"221 30 LINE SMOOTH",
"221 22 OFFCURVE",
"214 16 OFFCURVE",
"206 16 CURVE SMOOTH",
"134 16 LINE",
"134 0 LINE"
);
}
);
width = 482.03333;
},
{
anchors = (
{
name = bottom;
position = "{314, 0}";
},
{
name = top;
position = "{383, 630}";
},
{
name = topleft;
position = "{22, 630}";
}
);
layerId = "E8FFAA2E-5F75-47A2-A44E-FAA52327B69E";
paths = (
{
closed = 1;
nodes = (
"516 0 LINE",
"516 11 LINE",
"443 11 LINE SMOOTH",
"435 11 OFFCURVE",
"428 16 OFFCURVE",
"428 23 CURVE SMOOTH",
"427 233 LINE",
"575 605 LINE SMOOTH",
"578 613 OFFCURVE",
"583 619 OFFCURVE",
"594 619 CURVE SMOOTH",
"624 619 LINE",
"624 630 LINE",
"488 630 LINE",
"488 619 LINE",
"559 619 LINE",
"416 260 LINE",
"424 260 LINE",
"266 619 LINE",
"318 619 LINE",
"318 630 LINE",
"4 630 LINE",
"4 619 LINE",
"33 619 LINE SMOOTH",
"45 619 OFFCURVE",
"49 613 OFFCURVE",
"53 605 CURVE SMOOTH",
"217 234 LINE",
"218 23 LINE SMOOTH",
"218 16 OFFCURVE",
"211 11 OFFCURVE",
"203 11 CURVE SMOOTH",
"130 11 LINE",
"130 0 LINE"
);
}
);
width = 628;
},
{
anchors = (
{
name = bottom;
position = "{264, 0}";
},
{
name = top;
position = "{272, 630}";
},
{
name = topleft;
position = "{3, 630}";
}
);
hints = (
{
horizontal = 1;
origin = "{0, 33}";
target = "{0, 32}";
type = Stem;
},
{
horizontal = 1;
origin = "{0, 21}";
target = "{0, 22}";
type = Stem;
},
{
origin = "{0, 28}";
target = "{0, 5}";
type = Stem;
}
);
layerId = "E3B85251-E3AC-4613-BF5C-C1AA05FDF004";
paths = (
{
closed = 1;
nodes = (
"401 0 LINE",
"401 23 LINE",
"330 23 LINE SMOOTH",
"322 23 OFFCURVE",
"315 29 OFFCURVE",
"315 36 CURVE SMOOTH",
"314 231 LINE",
"468 593 LINE SMOOTH",
"471 603 OFFCURVE",
"477 607 OFFCURVE",
"487 607 CURVE SMOOTH",
"513 607 LINE",
"513 630 LINE",
"382 630 LINE",
"382 607 LINE",
"435 607 LINE",
"286 253 LINE",
"310 253 LINE",
"145 607 LINE",
"195 607 LINE",
"195 630 LINE",
"3 630 LINE",
"3 607 LINE",
"31 607 LINE SMOOTH",
"41 607 OFFCURVE",
"46 603 OFFCURVE",
"51 593 CURVE SMOOTH",
"220 231 LINE",
"220 36 LINE SMOOTH",
"220 29 OFFCURVE",
"213 23 OFFCURVE",
"205 23 CURVE SMOOTH",
"133 23 LINE",
"133 0 LINE"
);
}
);
width = 516.09222;
},
{
anchors = (
{
name = bottom;
position = "{255, 0}";
},
{
name = top;
position = "{273, 630}";
},
{
name = topleft;
position = "{-1, 630}";
}
);
layerId = "EFBCEE35-D457-4A39-AEF6-BDFE7C5D5DD9";
paths = (
{
closed = 1;
nodes = (
"379 0 LINE",
"379 11 LINE",
"307 11 LINE SMOOTH",
"299 11 OFFCURVE",
"292 17 OFFCURVE",
"292 25 CURVE SMOOTH",
"293 230 LINE",
"447 605 LINE SMOOTH",
"451 615 OFFCURVE",
"457 619 OFFCURVE",
"466 619 CURVE SMOOTH",
"491 619 LINE",
"491 630 LINE",
"385 630 LINE",
"385 619 LINE",
"435 619 LINE",
"282 248 LINE",
"289 248 LINE",
"120 619 LINE",
"170 619 LINE",
"170 630 LINE",
"3 630 LINE",
"3 619 LINE",
"31 619 LINE SMOOTH",
"40 619 OFFCURVE",
"45 615 OFFCURVE",
"50 605 CURVE SMOOTH",
"221 230 LINE",
"220 25 LINE SMOOTH",
"220 17 OFFCURVE",
"214 11 OFFCURVE",
"206 11 CURVE SMOOTH",
"134 11 LINE",
"134 0 LINE"
);
}
);
width = 494;
}
);
leftKerningGroup = V;
leftMetricsKey = V;
rightKerningGroup = V;
rightMetricsKey = V;
unicode = 0059;
},
{
color = 4;
glyphname = Z;
layers = (
{
anchors = (
{
name = bottom;
position = "{319, 0}";
},
{
name = center;
position = "{299, 315}";
},
{
name = top;
position = "{319, 630}";
}
);
layerId = "37751B57-50B3-4ADE-85C1-D4B223AC548E";
paths = (
{
closed = 1;
nodes = (
"577 61 OFFCURVE",
"572 135 OFFCURVE",
"572 209 CURVE",
"505 209 LINE",
"470 77 LINE SMOOTH",
"464 60 OFFCURVE",
"459 55 OFFCURVE",
"443 55 CURVE SMOOTH",
"220 55 LINE",
"253 30 LINE",
"587 575 LINE",
"587 630 LINE",
"206 630 LINE SMOOTH",
"133 630 OFFCURVE",
"78 633 OFFCURVE",
"51 639 CURVE",
"61 569 OFFCURVE",
"66 495 OFFCURVE",
"66 421 CURVE",
"133 421 LINE",
"168 553 LINE SMOOTH",
"174 570 OFFCURVE",
"179 575 OFFCURVE",
"195 575 CURVE SMOOTH",
"379 575 LINE",
"368 600 LINE",
"34 55 LINE",
"34 0 LINE",
"432 0 LINE SMOOTH",
"505 0 OFFCURVE",
"560 -3 OFFCURVE",
"587 -9 CURVE"
);
}
);
width = 621;
},
{
anchors = (
{
name = bottom;
position = "{246, 0}";
},
{
name = center;
position = "{245, 315}";
},
{
name = top;
position = "{246, 630}";
}
);
layerId = "AD4267C8-B72F-4114-A1A9-4AD5F5524DF4";
paths = (
{
closed = 1;
nodes = (
"449 44 OFFCURVE",
"447 95 OFFCURVE",
"447 148 CURVE",
"437 148 LINE",
"427 38 LINE SMOOTH",
"427 20 OFFCURVE",
"416 16 OFFCURVE",
"400 16 CURVE SMOOTH",
"50 16 LINE",
"50 0 LINE",
"454 609 LINE",
"454 630 LINE",
"148 630 LINE SMOOTH",
"98 630 OFFCURVE",
"66 634 OFFCURVE",
"50 639 CURVE",
"55 586 OFFCURVE",
"57 535 OFFCURVE",
"57 482 CURVE",
"67 482 LINE",
"76 592 LINE SMOOTH",
"77 610 OFFCURVE",
"89 614 OFFCURVE",
"105 614 CURVE SMOOTH",
"434 614 LINE",
"428 625 LINE",
"28 21 LINE",
"28 0 LINE",
"356 0 LINE SMOOTH",
"405 0 OFFCURVE",
"438 -4 OFFCURVE",
"454 -9 CURVE"
);
}
);
width = 482;
},
{
anchors = (
{
name = bottom;
position = "{258, 0}";
},
{
name = center;
position = "{254, 315}";
},
{
name = top;
position = "{258, 630}";
}
);
layerId = "2498D94C-62B8-4145-8082-B94B7C94C74A";
paths = (
{
closed = 1;
nodes = (
"470 47 OFFCURVE",
"467 102 OFFCURVE",
"467 158 CURVE",
"448 158 LINE",
"434 44 LINE SMOOTH",
"433 26 OFFCURVE",
"423 22 OFFCURVE",
"407 22 CURVE SMOOTH",
"77 22 LINE",
"83 5 LINE",
"475 604 LINE",
"475 630 LINE",
"157 630 LINE SMOOTH",
"103 630 OFFCURVE",
"68 634 OFFCURVE",
"50 639 CURVE",
"56 583 OFFCURVE",
"58 528 OFFCURVE",
"58 472 CURVE",
"78 472 LINE",
"91 586 LINE SMOOTH",
"93 604 OFFCURVE",
"104 608 OFFCURVE",
"120 608 CURVE SMOOTH",
"425 608 LINE",
"418 621 LINE",
"29 26 LINE",
"29 0 LINE",
"368 0 LINE SMOOTH",
"422 0 OFFCURVE",
"458 -4 OFFCURVE",
"475 -9 CURVE"
);
}
);
width = 504.39444;
},
{
anchors = (
{
name = bottom;
position = "{319, 0}";
},
{
name = center;
position = "{299, 315}";
},
{
name = top;
position = "{319, 630}";
}
);
layerId = "E8FFAA2E-5F75-47A2-A44E-FAA52327B69E";
paths = (
{
closed = 1;
nodes = (
"577 62 OFFCURVE",
"572 136 OFFCURVE",
"572 209 CURVE",
"520 209 LINE",
"475 43 LINE SMOOTH",
"469 25 OFFCURVE",
"463 21 OFFCURVE",
"448 21 CURVE SMOOTH",
"220 21 LINE",
"256 10 LINE",
"587 609 LINE",
"587 630 LINE",
"206 630 LINE SMOOTH",
"136 630 OFFCURVE",
"79 633 OFFCURVE",
"51 639 CURVE",
"61 568 OFFCURVE",
"66 494 OFFCURVE",
"66 421 CURVE",
"118 421 LINE",
"163 587 LINE SMOOTH",
"169 605 OFFCURVE",
"175 609 OFFCURVE",
"190 609 CURVE SMOOTH",
"379 609 LINE",
"365 620 LINE",
"34 21 LINE",
"34 0 LINE",
"432 0 LINE SMOOTH",
"502 0 OFFCURVE",
"559 -3 OFFCURVE",
"587 -9 CURVE"
);
}
);
width = 621;
},
{
anchors = (
{
name = bottom;
position = "{272, 0}";
},
{
name = center;
position = "{265, 315}";
},
{
name = top;
position = "{272, 630}";
}
);
hints = (
{
horizontal = 1;
origin = "{0, 27}";
target = "{0, 8}";
type = Stem;
},
{
horizontal = 1;
origin = "{0, 12}";
target = "{0, 23}";
type = Stem;
}
);
layerId = "E3B85251-E3AC-4613-BF5C-C1AA05FDF004";
paths = (
{
closed = 1;
nodes = (
"495 50 OFFCURVE",
"491 110 OFFCURVE",
"491 170 CURVE",
"461 170 LINE",
"442 52 LINE SMOOTH",
"440 34 OFFCURVE",
"431 30 OFFCURVE",
"415 30 CURVE SMOOTH",
"110 30 LINE",
"123 11 LINE",
"501 597 LINE",
"501 630 LINE",
"168 630 LINE SMOOTH",
"110 630 OFFCURVE",
"70 634 OFFCURVE",
"50 639 CURVE",
"57 580 OFFCURVE",
"60 520 OFFCURVE",
"60 460 CURVE",
"91 460 LINE",
"109 578 LINE SMOOTH",
"112 596 OFFCURVE",
"121 600 OFFCURVE",
"138 600 CURVE SMOOTH",
"414 600 LINE",
"406 616 LINE",
"30 33 LINE",
"30 0 LINE",
"383 0 LINE SMOOTH",
"441 0 OFFCURVE",
"482 -4 OFFCURVE",
"501 -9 CURVE"
);
}
);
width = 531;
},
{
anchors = (
{
name = bottom;
position = "{264, 0}";
},
{
name = center;
position = "{259, 315}";
},
{
name = top;
position = "{264, 630}";
}
);
layerId = "EFBCEE35-D457-4A39-AEF6-BDFE7C5D5DD9";
paths = (
{
closed = 1;
nodes = (
"480 48 OFFCURVE",
"477 105 OFFCURVE",
"477 162 CURVE",
"457 162 LINE",
"439 39 LINE SMOOTH",
"438 21 OFFCURVE",
"428 17 OFFCURVE",
"412 17 CURVE SMOOTH",
"91 17 LINE",
"99 2 LINE",
"486 609 LINE",
"486 630 LINE",
"163 630 LINE SMOOTH",
"108 630 OFFCURVE",
"70 634 OFFCURVE",
"51 639 CURVE",
"57 582 OFFCURVE",
"60 525 OFFCURVE",
"60 468 CURVE",
"80 468 LINE",
"97 591 LINE SMOOTH",
"99 609 OFFCURVE",
"110 613 OFFCURVE",
"126 613 CURVE SMOOTH",
"422 613 LINE",
"414 624 LINE",
"30 21 LINE",
"30 0 LINE",
"375 0 LINE SMOOTH",
"429 0 OFFCURVE",
"467 -4 OFFCURVE",
"486 -9 CURVE"
);
}
);
width = 516;
}
);
leftKerningGroup = Z;
leftMetricsKey = "=H*.85";
rightKerningGroup = Z;
rightMetricsKey = "=H*.85";
unicode = 005A;
},
{
color = 11;
export = 0;
glyphname = A.AE;
layers = (
{
anchors = (
{
name = "#exit";
position = "{355, 432}";
}
);
guideLines = (
{
angle = 63.7098;
position = "{269, 338}";
}
);
layerId = "37751B57-50B3-4ADE-85C1-D4B223AC548E";
paths = (
{
closed = 1;
nodes = (
"194 0 LINE",
"194 45 LINE",
"123 45 LINE",
"390 630 LINE",
"313 630 LINE",
"52 59 LINE SMOOTH",
"48 51 OFFCURVE",
"45 45 OFFCURVE",
"34 45 CURVE SMOOTH",
"4 45 LINE",
"4 0 LINE"
);
},
{
closed = 1;
nodes = (
"443 177 LINE",
"443 232 LINE",
"175 232 LINE",
"152 177 LINE"
);
}
);
width = 443;
},
{
anchors = (
{
name = "#exit";
position = "{313, 432}";
}
);
layerId = "AD4267C8-B72F-4114-A1A9-4AD5F5524DF4";
paths = (
{
closed = 1;
nodes = (
"124 0 LINE",
"124 11 LINE",
"62 11 LINE",
"323 630 LINE",
"306 630 LINE",
"50 25 LINE SMOOTH",
"47 17 OFFCURVE",
"42 11 OFFCURVE",
"30 11 CURVE SMOOTH",
"3 11 LINE",
"3 0 LINE"
);
},
{
closed = 1;
nodes = (
"395 223 LINE",
"395 239 LINE",
"152 239 LINE",
"147 223 LINE"
);
}
);
width = 395;
},
{
anchors = (
{
name = "#exit";
position = "{320, 432}";
}
);
layerId = "2498D94C-62B8-4145-8082-B94B7C94C74A";
paths = (
{
closed = 1;
nodes = (
"135 0 LINE",
"135 16 LINE",
"72 16 LINE",
"334 630 LINE",
"307 630 LINE",
"50 30 LINE SMOOTH",
"47 22 OFFCURVE",
"42 16 OFFCURVE",
"31 16 CURVE SMOOTH",
"3 16 LINE",
"3 0 LINE"
);
},
{
closed = 1;
nodes = (
"403 216 LINE",
"403 238 LINE",
"156 238 LINE",
"148 216 LINE"
);
}
);
width = 402.73333;
},
{
anchors = (
{
name = "#exit";
position = "{325, 432}";
}
);
guideLines = (
{
angle = 63.7098;
position = "{269, 338}";
}
);
layerId = "E8FFAA2E-5F75-47A2-A44E-FAA52327B69E";
paths = (
{
closed = 1;
nodes = (
"139 0 LINE",
"139 11 LINE",
"68 11 LINE",
"335 630 LINE",
"313 630 LINE",
"52 25 LINE SMOOTH",
"48 17 OFFCURVE",
"45 11 OFFCURVE",
"34 11 CURVE SMOOTH",
"4 11 LINE",
"4 0 LINE"
);
},
{
closed = 1;
nodes = (
"413 195 LINE",
"413 216 LINE",
"145 216 LINE",
"134 195 LINE"
);
}
);
width = 413;
},
{
anchors = (
{
name = "#exit";
position = "{328, 432}";
}
);
hints = (
{
horizontal = 1;
origin = "{0, 10}";
target = "{0, 9}";
type = Stem;
},
{
horizontal = 1;
origin = "{1, 3}";
target = "{1, 2}";
type = Stem;
},
{
horizontal = 1;
origin = "{0, 4}";
target = down;
type = TopGhost;
}
);
layerId = "E3B85251-E3AC-4613-BF5C-C1AA05FDF004";
paths = (
{
closed = 1;
nodes = (
"149 0 LINE",
"149 23 LINE",
"84 23 LINE",
"347 630 LINE",
"308 630 LINE",
"50 37 LINE SMOOTH",
"47 29 OFFCURVE",
"43 23 OFFCURVE",
"32 23 CURVE SMOOTH",
"3 23 LINE",
"3 0 LINE"
);
},
{
closed = 1;
nodes = (
"412 207 LINE",
"412 237 LINE",
"160 237 LINE",
"149 207 LINE"
);
}
);
width = 412.12889;
},
{
anchors = (
{
name = "#exit";
position = "{316, 432}";
}
);
layerId = "EFBCEE35-D457-4A39-AEF6-BDFE7C5D5DD9";
paths = (
{
closed = 1;
nodes = (
"128 0 LINE",
"128 11 LINE",
"63 11 LINE",
"326 630 LINE",
"308 630 LINE",
"50 25 LINE SMOOTH",
"47 17 OFFCURVE",
"43 11 OFFCURVE",
"31 11 CURVE SMOOTH",
"3 11 LINE",
"3 0 LINE"
);
},
{
closed = 1;
nodes = (
"399 216 LINE",
"399 234 LINE",
"150 234 LINE",
"144 216 LINE"
);
}
);
width = 399.2;
}
);
leftKerningGroup = A;
leftMetricsKey = "=H*.1";
rightKerningGroup = A;
rightMetricsKey = "=0";
},
{
color = 11;
export = 0;
glyphname = O.OE;
layers = (
{
anchors = (
{
name = "#exit";
position = "{408, 432}";
}
);
guideLines = (
{
angle = 46.3119;
position = "{409, 315}";
}
);
layerId = "37751B57-50B3-4ADE-85C1-D4B223AC548E";
paths = (
{
closed = 1;
nodes = (
"408 45 LINE",
"309 45 OFFCURVE",
"243 153 OFFCURVE",
"243 315 CURVE SMOOTH",
"243 477 OFFCURVE",
"309 585 OFFCURVE",
"408 585 CURVE",
"408 630 LINE",
"177 630 OFFCURVE",
"28 507 OFFCURVE",
"28 315 CURVE SMOOTH",
"28 123 OFFCURVE",
"177 0 OFFCURVE",
"408 0 CURVE"
);
}
);
width = 408;
},
{
anchors = (
{
name = "#exit";
position = "{322, 432}";
}
);
layerId = "AD4267C8-B72F-4114-A1A9-4AD5F5524DF4";
paths = (
{
closed = 1;
nodes = (
"322 11 LINE",
"175 11 OFFCURVE",
"72 135 OFFCURVE",
"72 315 CURVE SMOOTH",
"72 495 OFFCURVE",
"175 619 OFFCURVE",
"322 619 CURVE",
"322 630 LINE",
"151 630 OFFCURVE",
"38 505 OFFCURVE",
"38 315 CURVE SMOOTH",
"38 125 OFFCURVE",
"151 0 OFFCURVE",
"322 0 CURVE"
);
}
);
width = 322;
},
{
anchors = (
{
name = "#exit";
position = "{336, 432}";
}
);
layerId = "2498D94C-62B8-4145-8082-B94B7C94C74A";
paths = (
{
closed = 1;
nodes = (
"336 16 LINE",
"197 16 OFFCURVE",
"100 138 OFFCURVE",
"100 315 CURVE SMOOTH",
"100 492 OFFCURVE",
"197 614 OFFCURVE",
"336 614 CURVE",
"336 630 LINE",
"155 630 OFFCURVE",
"36 505 OFFCURVE",
"36 315 CURVE SMOOTH",
"36 125 OFFCURVE",
"155 0 OFFCURVE",
"336 0 CURVE"
);
}
);
width = 335.85556;
},
{
anchors = (
{
name = "#exit";
position = "{408, 432}";
}
);
guideLines = (
{
angle = 46.3119;
position = "{409, 315}";
}
);
layerId = "E8FFAA2E-5F75-47A2-A44E-FAA52327B69E";
paths = (
{
closed = 1;
nodes = (
"408 11 LINE",
"309 11 OFFCURVE",
"243 133 OFFCURVE",
"243 315 CURVE SMOOTH",
"243 497 OFFCURVE",
"309 619 OFFCURVE",
"408 619 CURVE",
"408 630 LINE",
"177 630 OFFCURVE",
"28 507 OFFCURVE",
"28 315 CURVE SMOOTH",
"28 123 OFFCURVE",
"177 0 OFFCURVE",
"408 0 CURVE"
);
}
);
width = 408;
},
{
anchors = (
{
name = "#exit";
position = "{353, 432}";
}
);
hints = (
{
horizontal = 1;
origin = "{0, 13}";
target = "{0, 0}";
type = Stem;
},
{
horizontal = 1;
origin = "{0, 7}";
target = "{0, 6}";
type = Stem;
},
{
origin = "{0, 10}";
target = "{0, 3}";
type = Stem;
}
);
layerId = "E3B85251-E3AC-4613-BF5C-C1AA05FDF004";
paths = (
{
closed = 1;
nodes = (
"353 23 LINE",
"223 23 OFFCURVE",
"133 142 OFFCURVE",
"133 315 CURVE SMOOTH",
"133 489 OFFCURVE",
"223 607 OFFCURVE",
"353 607 CURVE",
"353 630 LINE",
"160 630 OFFCURVE",
"34 505 OFFCURVE",
"34 315 CURVE SMOOTH",
"34 125 OFFCURVE",
"160 0 OFFCURVE",
"353 0 CURVE"
);
}
);
width = 352.68926;
},
{
anchors = (
{
name = "#exit";
position = "{342, 432}";
}
);
layerId = "EFBCEE35-D457-4A39-AEF6-BDFE7C5D5DD9";
paths = (
{
closed = 1;
nodes = (
"342 11 LINE",
"206 11 OFFCURVE",
"112 135 OFFCURVE",
"112 315 CURVE SMOOTH",
"112 495 OFFCURVE",
"206 619 OFFCURVE",
"342 619 CURVE",
"342 630 LINE",
"157 630 OFFCURVE",
"36 505 OFFCURVE",
"36 315 CURVE SMOOTH",
"36 125 OFFCURVE",
"157 0 OFFCURVE",
"342 0 CURVE"
);
}
);
width = 342.06667;
}
);
leftKerningGroup = O;
leftMetricsKey = O;
rightKerningGroup = O;
},
